/* XPM */
static char *result[] = {
/* columns rows colors chars-per-pixel */
"110 110 75 1 ",
"  c black",
". c #030406",
"X c #080403",
"o c #05090D",
"O c #100906",
"+ c #100C09",
"@ c #180D08",
"# c #101007",
"$ c #080D13",
"% c #0A1119",
"& c #101010",
"* c #20120B",
"= c #28160E",
"- c #201811",
"; c #301B11",
": c #381F14",
"> c #20200E",
", c #30241A",
"< c #303014",
"1 c #0D1520",
"2 c #0F1A26",
"3 c #142233",
"4 c #172639",
"5 c #192B3F",
"6 c gray19",
"7 c #412417",
"8 c #492819",
"9 c #512C1C",
"0 c #59311F",
"q c #403022",
"w c #503C2B",
"e c #613522",
"r c #693A25",
"t c #713E27",
"y c #40401B",
"u c #505022",
"i c #79432A",
"p c #604833",
"a c #70543C",
"s c #606029",
"d c #707030",
"f c #1C2F45",
"g c #1E334C",
"h c #233C58",
"j c #284465",
"k c gray25",
"l c #505050",
"z c gray44",
"x c #81472D",
"c c #806044",
"v c #8F6C4D",
"b c #9F7855",
"n c #808037",
"m c #8F8F3D",
"M c #9F9F44",
"N c #AF845E",
"B c #AFAF4B",
"V c #BFBF52",
"C c #BF9066",
"Z c #CF9C6F",
"A c #DFA877",
"S c #CFCF59",
"D c #DFDF5F",
"F c #EFEF66",
"G c #FFFF6D",
"H c #808080",
"J c gray56",
"K c #9F9F9F",
"L c #AFAFAF",
"P c #EFB480",
"I c #FFC088",
"U c gray81",
"Y c #EFEFEF",
"T c white",
"R c None",
/* pixels */
"RRRRRRRRRRRRRRRRRRRRRRRRRRRRRRRRRRRRRRRRRRRRRRRRRRRRRRRRRRRRRRRRRRRRRRRRRRRRRRRRRRRRRRRRRRRRRRRRRRRRRRRRRRRRRR",
"RRRRRRRRRRRRRRRRRRRRRRRRRRRRRRRRRRRRRRRRRRRRRRRRRRR    RRRRRRRRRRRRRRRRRRRRRRRRRRRRRRRRRRRRRRRRRRRRRRRRRRRRRRR",
"RRRRRRRRRRRRRRRRRRRRRRRRRRRRRRRRRRRRRRRRRRRR                 RRRRRRRRRRRRRRRRRRRRRRRRRRRRRRRRRRRRRRRRRRRRRRRRR",
"RRRRRRRRRRRRRRRRRRRRRRRRRRRRRRRRRRRRRRRRR                         RRRRRRRRRRRRRRRRRRRRRRRRRRRRRRRRRRRRRRRRRRRR",
"RRRRRRRRRRRRRRRRRRRRRRRRRRRRRRRRRRRRRR                               RRRRRRRRRRRRRRRRRRRRRRRRRRRRRRRRRRRRRRRRR",
"RRRRRRRRRRRRRRRRRRRRRRRRRRRRRRRRRRRR              O***O                 RRRRRRRRRRRRRRRRRRRRRRRRRRRRRRRRRRRRRR",
"RRRRRRRRRRRRRRRRRRRRRRRRRRRRRRRRRR          @;8eixxxxxxxte8;*             RRRRRRRRRRRRRRRRRRRRRRRRRRRRRRRRRRRR",
"RRRRRRRRRRRRRRRRRRRRRRRRRRRRRRRR         =9txxxxxxxxxxxxxxxxxxe8=X           RRRRRRRRRRRRRRRRRRRRRRRRRRRRRRRRR",
"RRRRRRRRRRRRRRRRRRRRRRRRRRRRRRR       X7txxxxxxxxxxxxxxxxxxxxxxxxxe:O         RRRRRRRRRRRRRRRRRRRRRRRRRRRRRRRR",
"RRRRRRRRRRRRRRRRRRRRRRRRRRRRR       X9xxxxxxxxxxxxxxxxxxxxxxxxxxxxxxxr:X        RRRRRRRRRRRRRRRRRRRRRRRRRRRRRR",
"RRRRRRRRRRRRRRRRRRRRRRRRRRRR       7ixxxxxxxxxxxxxxxxxxxxxxxxxxxxxxxxxxi9O       RRRRRRRRRRRRRRRRRRRRRRRRRRRRR",
"RRRRRRRRRRRRRRRRRRRRRRRRRRR      @rxxxxxxxxxxxxxxxxxxxxxxxxxxxxxxxxxxxxxxx9O      RRRRRRRRRRRRRRRRRRRRRRRRRRRR",
"RRRRRRRRRRRRRRRRRRRRRRRRRR      ;ixxxxxxxxxxxxxxxxxxxxxxxxxxxxxxxxxxxxxxxxxx7      RRRRRRRRRRRRRRRRRRRRRRRRRRR",
"RRRRRRRRRRRRRRRRRRRRRRRRR      :xxxxxxxxxxxxxxxxxxxxxxxxxxxxxxxxxxxxxxxxxxxxxeX     RRRRRRRRRRRRRRRRRRRRRRRRRR",
"RRRRRRRRRRRRRRRRRRRRRRRRR     9xxxxxxxxxxxxxxxxxxxxxxxxxxxxxxxxxxxxxxxxxxxxxxxi@     RRRRRRRRRRRRRRRRRRRRRRRRR",
"RRRRRRRRRRRRRRRRRRRRRRRR     :xxxxxxxxxxxxxxxxxxxxxxxxxxxxxxxxxxxxxxxxxxxxxxxxxi@     RRRRRRRRRRRRRRRRRRRRRRRR",
"RRRRRRRRRRRRRRRRRRRRRRR     =xxxxxxxxxxxxxxxxxxxxxxxxxxxxxxxxxxxxxxxxxxxxxxxxxxxi@     RRRRRRRRRRRRRRRRRRRRRRR",
"RRRRRRRRRRRRRRRRRRRRRRR    Oixxxxxxxxxxxxxxxxxxxxxxxxxxxxxxxxxxxxxxxxxxxxxxxxxxxxi@     RRRRRRRRRRRRRRRRRRRRRR",
"RRRRRRRRRRRRRRRRRRRRRR     exxxxxxxxxxxxxxxxxxxxxxxxxxxxxxxxxxxxxxxxxxxxxxxxxxxxxxrX    RRRRRRRRRRRRRRRRRRRRRR",
"RRRRRRRRRRRRRRRRRRRRRR    =xxxxxxxxxxxxxxxxxxxxxxxxxxxxxxxxxxxxxxxxxxxxxxxxxxxxxxxx9     RRRRRRRRRRRRRRRRRRRRR",
"RRRRRRRRRRRRRRRRRRRRR     txxxxxxxxxxxxxxxxxxxxxxxxxxxxxxxxxxxxxxxxxxxxxxxxxxxxxxxxx=    RRRRRRRRRRRRRRRRRRRRR",
"RRRRRRRRRRRRRRRRRRRRR    =xxxxxxxxxxxxxxxxxxxxxxxxxxxxxxxxxxxxxxxxxxxxxxxxxxxxxxxxxxtX    RRRRRRRRRRRRRRRRRRRR",
"RRRRRRRRRRRRRRRRRRRR     exxxxxxxxxxxxxxxxxxxxxxxxxxxxxxxxxxxxxxxxxxxxxxxxxxxxxxxxxxx7    RRRRRRRRRRRRRRRRRRRR",
"RRRRRRRRRRRRRRRRRRRR    @xxxxxxxxxxxxxxxxxxxxxxxxxxxxxxxxxxxxxxxxxxxxxxxxxxxxxxxxxxxxiX    RRRRRRRRRRRRRRRRRRR",
"RRRRRRRRRRRRRRRRRRRR    9xxxxxxxxxxxxxxxxxxxxxxxxxxxxxxxxxxxxxxxxxxxxxxxxxxxxxxxxxxxxx:    RRRRRRRRRRRRRRRRRRR",
"RRRRRRRRRRRRRRRRRRR    Xxxxxxxxxxxxxxxxxxxxxxxxxxxxxxxxxxxxxxxxxxxxxxxxxxxxxxxxxxxxxxxt    RRRRRRRRRRRRRRRRRRR",
"RRRRRRRRRRRRRRRRRRR    :xxxxxxxxxxxxxxxxxxxxxxxxxxxxxxxxxxxxxxxxxxxxxxxxxxxxxxxxxxxxxxx@    RRRRRRRRRRRRRRRRRR",
"RRRRRRRRRRRRRRRRRRR    txxxxxxxxxxxxxxxxxxxxxxxxxxxxxxxxxxxxxxxxxxxxxxxxxxxxxxxxxxxxxxx8    RRRRRRRRRRRRRRRRRR",
"RRRRRRRRRRRRRRRRRR    @xxxxxxxxxxxxxxxxxxxxxxxxxxxxxxxxxxxxxxxxxxxxxxxxxxxxxxxxxxxxxxxxt    RRRRRRRRRRRRRRRRRR",
"RRRRRRRRRRRRRRRRRR    8xxxxxxxxxxxxxxxxxxxxxxxxxxxxxxxxxxxxxxxxxxxxxxxxxxxxxxxxxxxxxxxxxO    RRRRRRRRRRRRRRRRR",
"RRRRRRRRRRRRRRRRRR    txxxxxxxxxxxxxxxxxxxxxxxxxxxxxxxxxxxxxxxxxxxxxxxxxxxxxxxxxxxxxxxxx;    RRRRRRRRRRRRRRRRR",
"RRRRRRRRRRRRRRRRR    @xxxxxxxxxxxxxxxxxxxxxxxxxxxxxxxxxxxxxxxxxxxxxxxxxxxxxxxxxxxxxxxxxx9    RRRRRRRRRRRRRRRRR",
"RRRRRRRRRRRRRRRRR    7xxxxxxxxxxxxxxxxxxxxxxxxxxxxxxxxxxxxxxxxxxxxxxxxxxxxxxxxxxxxxxxxxxe    RRRRRRRRRRRRRRRRR",
"RRRRRRRRRRRRRRRRR    exxxxxxxxxxxxxxxxxxxxxxxxxxxxxxxxxxxxxxxxxxxxxxxxxxxxxxxxxxxxxxxxxxx    RRRRRRRRRRRRRRRRR",
"RRRRRRRRRRRRRRRRR    xxxxxxxxxxxxxxxxxxxxxxxxxxxxxxxxxxxxxxxxxxxxxxxxxxxxxxxxxxxxxxxxxxxxX   RRRRRRRRRRRRRRRRR",
"RRRRRRRRRRRRRRRR    Oxxxxxxxxxxxxxxxxxxxxxxxxxxxxxxxxxxxxxxxxxxxxxxxxxxxxxxxxxxxxxxxxxxxx*    RRRRRRRRRRRRRRRR",
"RRRRRRRRRRRRRRRR    *xxxxxxxxxxxxxxxxxxxxxxxxxxxxxxxxxxxxxxxxxxxxxxxxxxxxxxxxxxxxxxxxxxxx*    RRRRRRRRRRRRRRRR",
"RRRRRRRRRRRRRRRR    *xxxxxxxxxxxxxxxxxxxxxxxxxxxxxxxxxxxxxxxxxxxxxxxxxxxxxxxxxxxxxxxxxxxx*    RRRRRRRRRRRRRRRR",
"RRRRRRRRRRRRRRRR    *xxxxxxxxxxxxxxxxxxxxxxxxxxxxxxxxxxxxxxxxxxxxxxxxxxxxxxxxxxxxxxxxxxxx*    RRRRRRRRRRRRRRRR",
"RRRRRRRRRRRRRRRR    *xxxxxxxxxxxxxxxxxxxxxxxxxxxxxxxxxxxxxxxxxxxxxxxxxxxxxxxxxxxxxxxxxxxx*    RRRRRRRRRRRRRRRR",
"RRRRRRRRRRRRRRRR    *xxxxxxxxxxxxxxxxxxxxxxxxxxxxxxxxxxxxxxxxxxxxxxxxxxxxxxxxxxxxxxxxxxxx*    RRRRRRRRRRRRRRRR",
"RRRRRRRRRRRRRRRR    OxxxxxxxxxxxxxxxxxxxxxxxxxxxxxxxxxxxxxxxxxxxxxxxxxxxxxxxxxxxxxxxxxxxxO    RRRRRRRRRRRRRRRR",
"RRRRRRRRRRRRRRRRR    ixxxxxxxxxxxxxxxxxxxxxxxxxxxxxxxxxxxxxxxxxxxxxxxxxxxxxxxxxxxxxxxxxxx    RRRRRRRRRRRRRRRRR",
"RRRRRRRRRRRRRRRRR    0xxxxxxxxxxxxxxxxxxxxxxxxxxxxxxxxxxxxxxxxxxxxxxxxxxxxxxxxxxxxxxxxxxr    RRRRRRRRRRRRRRRRR",
"RRRRRRRRRRRRRRRRR    ;xxxxxxxxxxxxxxxxxxxxxxxxxxxxxxxxxxxxxxxxxxxxxxxxxxxxxxxxxxxxxxxxxx9    RRRRRRRRRRRRRRRRR",
"RRRRRRRRRRRRRRRRR    Xixxxxxxxxxxxxxxxxxxxxxxxxxxxxxxxxxxxxxxxxxxxxxxxxxxxxxxxxxxxxxxxxx;    RRRRRRRRRRRRRRRRR",
"RRRRRRRRRRRRRRRRRR    7xxxxxxxxxxxxxxxxxxxxxxxxxxxxxxxxxxxxxxxxxxxxxxxxxxxxxxxxxxxxxxxxxX    RRRRRRRRRRRRRRRRR",
"RRRRRRRRRRRRRRRRRR    Xixxxxxxxxxxxxxxxxxxxxxxxxxxxxxxxxxxxxxxxxxxxxxxxxxxxxxxxxxxxxxxx0    RRRRRRRRRRRRRRRRRR",
"RRRRRRRRRRRRRRRRR      :xxxxxxxxxxxxxxxxxxxxxxxxxxxxxxxxxxxxxxxxxxxxxxxxxxxxxxxxxxxxxxx*    RRRRRRRRRRRRRRRRRR",
"RRRRRRRRRRRRRRRRR       exxxxxxxxxxxxxxxxxxxxxxxxxxxxxxxxxxxxxxxxxxxxxxxxxxxxxxxxxxxxx0     RRRRRRRRRRRRRRRRRR",
"RRRRRRRRRRRRRRRRR    p  OixxxxxxxxxxxxxxxxxxxxxxxxxxxxxxxxxxxxxxxxxxxxxxxxxxxxxxxxxxxiX     RRRRRRRRRRRRRRRRRR",
"RRRRRRRRRRRRRRRR    -Ic  @xxxxxxxxxxxxxxxxxxxxxxxxxxxxxxxxxxxxxxxxxxxxxxxxxxxxxxxxxxi@      RRRRRRRRRRRRRRRRRR",
"RRRRRRRRRRRRRRRR    aII   ;xxxxxxxxxxxxxxxxxxxxxxxxxxxxxxxxxxxxxxxxxxxxxxxxxxxxxxxxi@  qq    RRRRRRRRRRRRRRRRR",
"RRRRRRRRRRRRRRRR    cII,   ;xxxxxxxxxxxxxxxxxxxxxxxxxxxxxxxxxxxxxxxxxxxxxxxxxxxxxxr@  ,Pb    RRRRRRRRRRRRRRRRR",
"RRRRRRRRRRRRRRRR    aIIv    @ixxxxxxxxxxxxxxxxxxxxxxxxxxxxxxxxxxxxxxxxxxxxxxxxxxx7X  -PIC    RRRRRRRRRRRRRRRRR",
"RRRRRRRRRRRRRRRR    -PIA     @rxxxxxxxxxxxxxxxxxxxxxxxxxxxxxxxxxxxxxxxxxxxxxxxi9O    bIIC    RRRRRRRRRRRRRRRRR",
"RRRRRRRRRRRRRRRRR    pPI,  -  X9xxxxxxxxxxxxxxxxxxxxxxxxxxxxxxxxxxxxxxxxxxxxx7X     +PIIp    RRRRRRRRRRRRRRRRR",
"RRRRRRRRRRRRRRRRR     -bb  cp   ;ixxxxxxxxxxxxxxxxxxxxxxxxxxxxxxxxxxxxxxxxxeO   +q  pIIv     RRRRRRRRRRRRRRRRR",
"RRRRRRRRRRRRRRRRRR         +Pb+  X9xxxxxxxxxxxxxxxxxxxxxxxxxxxxxxxxxxxxxr7@   -bI-  ,q+     RRRRRRRRRRRRRRRRRR",
"RRRRRRRRRRRRRRRRRRR         wIZ,   O7ixxxxxxxxxxxxxxxxxxxxxxxxxxxxxxxx9O     cPIc           RRRRRRRRRRRRRRRRRR",
"RRRRRRRRRRRRRRRRRRRR         NIIc+    =0xxxxxxxxxxxxxxxxxxxxxxxxxxi0:O    -aAIIZ           RRRRRRRRRRRRRRRRRRR",
"RRRRRRRRRRRRRRRRRRRRR        +AIIPc-    X;8exxxxxxxxxxxxxxxxxxte8*     +cAIIIIP,         RRRRRRRRRRRRRRRRRRRRR",
"RRRRRRRRRRRRRRRRRRRRRRRRR     ,PIIIINw       *:7777777777777;@       ,vPIIIIIIw        RRRRRRRRRRRRRRRRRRRRRRR",
"RRRRRRRRRRRRRRRRRRRRRRRRRR     wIIIIIIPvq                        +pNPIIIIIIIIp     RRRRRRRRRRRRRRRRRRRRRRRRRRR",
"RRRRRRRRRRRRRRRRRRRRRRRRRRR     pIIIIIIIIIZbp,              +qaCZIIIIIIIIIIIp     RRRRRRRRRRRRRRRRRRRRRRRRRRRR",
"RRRRRRRRRRRRRRRRRRRRRRRRRRRR     ,PIIIIIIIIIIIIIIIIIIIIIIIIIIIIIIIIIIIIIIIPw     RRRRRRRRRRRRRRRRRRRRRRRRRRRRR",
"RRRRRRRRRRRRRRRRRRRRRRRRRRRRR     -ZIIIIIIIACCvbCCCCCCCCCCCCCCCAIIIIIIIIIZ,      RRRRRRRRRRRRRRRRRRRRRRRRRRRRR",
"RRRRRRRRRRRRRRRRRRRRRRRRRRRRRR      cIPbp-                      +qaccvCPc       RRRRRRRRRRRRRRRRRRRRRRRRRRRRRR",
"RRRRRRRRRRRRRRRRRRRRRRRRRRRRRRR      -                                         RRRRRRRRRRRRRRRRRRRRRRRRRRRRRRR",
"RRRRRRRRRRRRRRRRRRRRRRRRRRRRRRRR         ynmVVDSVVVVVVVVVVVVVVVnu<             RRRRRRRRRRRRRRRRRRRRRRRRRRRRRRR",
"RRRRRRRRRRRRRRRRRRRRRRRRRRRRRRR       uMGGGGGGGGGGGGGGGGGGGGGGGGGGGGGDBs#       RRRRRRRRRRRRRRRRRRRRRRRRRRRRRR",
"RRRRRRRRRRRRRRRRRRRRRRRRRRRRRR      sDGGGGGGGGGGGGGGGGGGGGGGGGGGGGGGGGGGGSs      RRRRRRRRRRRRRRRRRRRRRRRRRRRRR",
"RRRRRRRRRRRRRRRRRRRRRRRRRRRRRR     nGGGGGGGGGGGGGGGGGGGGGGGGGGGGGGGGGGGGGGGB#    RRRRRRRRRRRRRRRRRRRRRRRRRRRRR",
"RRRRRRRRRRRRRRRRRRRRRRRRRRRRR     MGGGGGGGGGGGGGGGGGGGGGGGGGGGGGGGGGGGGGGGGGB     RRRRRRRRRRRRRRRRRRRRRRRRRRRR",
"RRRRRRRRRRRRRRRRRRRRRRRRRRRR     dGGGGGGGGGGGGGGGGGGGGGGGGGGGGGGGGGGGGGGGGGGGy    RRRRRRRRRRRRRRRRRRRRRRRRRRRR",
"RRRRRRRRRRRRRRRRRRRRRRRRRRRR    >FGGGGGFnBGGGGGGGGGGGGGGGGGGGGGGGGGGssGGGGGGGV    RRRRRRRRRRRRRRRRRRRRRRRRRRRR",
"RRRRRRRRRRRRRRRRRRRRRRRRRRR     MGGGGGGn #GGGGGGGGGGGGGGGGGGGGGGGGGV  VGGGGGGG<    RRRRRRRRRRRRRRRRRRRRRRRRRRR",
"RRRRRRRRRRRRRRRRRRRRRRRRRRR    >GGGGGGGn  GGGGGGGGGGGGGGGGGGGGGGGGGV  BGGGGGGGm    RRRRRRRRRRRRRRRRRRRRRRRRRRR",
"RRRRRRRRRRRRRRRRRRRRRRRRRRR    BGGGGGGGn  GGGGGGGGGGGGGGGGGGGGGGGGGF  nGGGGGGGD    RRRRRRRRRRRRRRRRRRRRRRRRRRR",
"RRRRRRRRRRRRRRRRRRRRRRRRRR     FGGGGGGGn  GGGGGGGGGGGGGGGGGGGGGGGGGG> yGGGGGGGGy    RRRRRRRRRRRRRRRRRRRRRRRRRR",
"RRRRRRRRRRRRRRRRRRRRRRRRRR    sGGGGGGGGn  GGGGGGGGGGGGGGGGGGGGGGGGGGy yGGGGGGGGM    RRRRRRRRRRRRRRRRRRRRRRRRRR",
"RRRRRRRRRRRRRRRRRRRRRRRRRR    mGGGGGGGGn  GGGGGGGGGGGGGGGGGGGGGGGGGGy >nnMVVVVVV    RRRRRRRRRRRRRRRRRRRRRRRRRR",
"RRRRRRRRRRRRRRRRRRRRRRRRRR      >ydnnnny  GGGGGGGGGGGGGGGGGGGGGGGGGGu                RRRRRRRRRRRRRRRRRRRRRRRRR",
"RRRRRRRRRRRRRRRRRRRRRRRRRR                GGGGGGGGGGGGGGGGGGGGGGGGGGV                RRRRRRRRRRRRRRRRRRRRRRRRR",
"RRRRRRRRRRRRRRRRRRRRRRRRRR       q       nGGGGGGGGGGGGGGGGGGGGGGGGGGGGGB  vCCv      RRRRRRRRRRRRRRRRRRRRRRRRRR",
"RRRRRRRRRRRRRRRRRRRRRRRRRRRR    qIIc  yGGGGGGGGGGGGGGGGGGGGGGGGGGGGGGGGV  CIIA     RRRRRRRRRRRRRRRRRRRRRRRRRRR",
"RRRRRRRRRRRRRRRRRRRRRRRRRRRR    qIIv  yGGGGGGGGGGGGGGGGGGGGGGGGGGGGGGGGV  CIII    RRRRRRRRRRRRRRRRRRRRRRRRRRRR",
"RRRRRRRRRRRRRRRRRRRRRRRRRRRR    qIIC  #GGGGGGGGGGGGGGGGGGGGGGGGGGGVBnsyy  CIII    RRRRRRRRRRRRRRRRRRRRRRRRRRRR",
"RRRRRRRRRRRRRRRRRRRRRRRRRRRR    qIIC      #yyyyyyyyyyy<                   AIII    RRRRRRRRRRRRRRRRRRRRRRRRRRRR",
"RRRRRRRRRRRRRRRRRRRRRRRRRRRR    qIIA                                      IIII    RRRRRRRRRRRRRRRRRRRRRRRRRRRR",
"RRRRRRRRRRRRRRRRRRRRRRRRRRRR    qIII     22%%%%%%%%       .33333335gf     IIII    RRRRRRRRRRRRRRRRRRRRRRRRRRRR",
"RRRRRRRRRRRRRRRRRRRRRRRRRRRR    qIII     gjjjjjjjjj       %jjjjjjjjjg     IIII    RRRRRRRRRRRRRRRRRRRRRRRRRRRR",
"RRRRRRRRRRRRRRRRRRRRRRRRRRRR    qIII     gjjjjjjjjj.      %jjjjjjjjjg    qIIII    RRRRRRRRRRRRRRRRRRRRRRRRRRRR",
"RRRRRRRRRRRRRRRRRRRRRRRRRRRR    -III     gjjjjjjjjj.      ojjjjjjjjjg    ,IIIC    RRRRRRRRRRRRRRRRRRRRRRRRRRRR",
"RRRRRRRRRRRRRRRRRRRRRRRRRRRRR    ,cp     gjjjjjjjjg        jjjjjjjjjg     NCc-    RRRRRRRRRRRRRRRRRRRRRRRRRRRR",
"RRRRRRRRRRRRRRRRRRRRRRRRRRRRR            gjjjjjjjjg        jjjjjjjjj4             RRRRRRRRRRRRRRRRRRRRRRRRRRRR",
"RRRRRRRRRRRRRRRRRRRRRRRRRRRRRR           5jjjjjjjjh        jjjjjjjjj3            RRRRRRRRRRRRRRRRRRRRRRRRRRRRR",
"RRRRRRRRRRRRRRRRRRRRRRRRRRRRRR           1jjjjjjjjj        jjjjjjjjj%           RRRRRRRRRRRRRRRRRRRRRRRRRRRRRR",
"RRRRRRRRRRRRRRRRRRRRRRRRRRRRRRRR         %jjjjjjjjj       .jjjjjjjjj$          RRRRRRRRRRRRRRRRRRRRRRRRRRRRRRR",
"RRRRRRRRRRRRRRRRRRRRRRRRRRRRRRRRRRRRR     jjjjjjjjjo      %jjjjjjjjj    RRRRRRRRRRRRRRRRRRRRRRRRRRRRRRRRRRRRRR",
"RRRRRRRRRRRRRRRRRRRRRRRRRRRRRRRRRRRRR       o%2331%.      .%1332%o       RRRRRRRRRRRRRRRRRRRRRRRRRRRRRRRRRRRRR",
"RRRRRRRRRRRRRRRRRRRRRRRRRRRRRRRRRRRRR                                    RRRRRRRRRRRRRRRRRRRRRRRRRRRRRRRRRRRRR",
"RRRRRRRRRRRRRRRRRRRRRRRRRRRRRRRRRRRRR     lHkk   &k       &k&  &kkH6    RRRRRRRRRRRRRRRRRRRRRRRRRRRRRRRRRRRRRR",
"RRRRRRRRRRRRRRRRRRRRRRRRRRRRRRRRRRRRRR    &YTTTTTTK        KTTTTTTU&    RRRRRRRRRRRRRRRRRRRRRRRRRRRRRRRRRRRRRR",
"RRRRRRRRRRRRRRRRRRRRRRRRRRRRRRRRRRRRRR     &LTTTYz         &HTTTTK&     RRRRRRRRRRRRRRRRRRRRRRRRRRRRRRRRRRRRRR",
"RRRRRRRRRRRRRRRRRRRRRRRRRRRRRRRRRRRRRRR      kJL6            6LH6      RRRRRRRRRRRRRRRRRRRRRRRRRRRRRRRRRRRRRRR",
"RRRRRRRRRRRRRRRRRRRRRRRRRRRRRRRRRRRRRRRR              RR              RRRRRRRRRRRRRRRRRRRRRRRRRRRRRRRRRRRRRRRR",
"RRRRRRRRRRRRRRRRRRRRRRRRRRRRRRRRRRRRRRRRR            RRRR            RRRRRRRRRRRRRRRRRRRRRRRRRRRRRRRRRRRRRRRRR",
"RRRRRRRRRRRRRRRRRRRRRRRRRRRRRRRRRRRRRRRRRR         RRRRRRRR         RRRRRRRRRRRRRRRRRRRRRRRRRRRRRRRRRRRRRRRRRR",
"RRRRRRRRRRRRRRRRRRRRRRRRRRRRRRRRRRRRRRRRRRRRR     RRRRRRRRRR     RRRRRRRRRRRRRRRRRRRRRRRRRRRRRRRRRRRRRRRRRRRRR"
};
