/* XPM */
static char *result[] = {
/* columns rows colors chars-per-pixel */
"110 110 80 1 ",
"  c black",
". c #030406",
"X c #080403",
"o c #05090D",
"O c #100906",
"+ c #100C08",
"@ c #180D08",
"# c #101007",
"$ c #080D13",
"% c #0A1119",
"& c #101010",
"* c #20120B",
"= c #28160E",
"- c #201811",
"; c #301A11",
": c #381F13",
"> c #20200E",
", c #302419",
"< c #303014",
"1 c #0F1A26",
"2 c #121E2C",
"3 c #142232",
"4 c #172638",
"5 c #192B3F",
"6 c #202020",
"7 c gray19",
"8 c #412316",
"9 c #492719",
"0 c #512C1C",
"q c #59301E",
"w c #403022",
"e c #503C2A",
"r c #613521",
"t c #693924",
"y c #713D27",
"u c #40401B",
"i c #505022",
"p c #794229",
"a c #604833",
"s c #70543B",
"d c #606029",
"f c #70702F",
"g c #1E334B",
"h c #213751",
"j c #233C58",
"k c #26405E",
"l c #284464",
"z c gray25",
"x c #505050",
"c c #606060",
"v c gray44",
"b c #81462C",
"n c #806044",
"m c #8F6C4C",
"M c #9F7854",
"N c #808036",
"B c #8F8F3D",
"V c #9F9F44",
"C c #AF845D",
"Z c #AFAF4A",
"A c #BFBF51",
"S c #BF9065",
"D c #CF9C6E",
"F c #DFA876",
"G c #EFB47F",
"H c #CFCF58",
"J c #DFDF5F",
"K c #EFEF65",
"L c #FFFF6C",
"P c #808080",
"I c gray56",
"U c #9F9F9F",
"Y c #AFAFAF",
"T c gray75",
"R c #FFC087",
"E c gray81",
"W c #DFDFDF",
"Q c #EFEFEF",
"! c white",
"~ c None",
/* pixels */
"~~~~~~~~~~~~~~~~~~~~~~~~~~~~~~~~~~~~~~~~~~~~~~~~~~~~~~~~~~~~~~~~~~~~~~~~~~~~~~~~~~~~~~~~~~~~~~~~~~~~~~~~~~~~~~",
"~~~~~~~~~~~~~~~~~~~~~~~~~~~~~~~~~~~~~~~~~~~~~~~            ~~~~~~~~~~~~~~~~~~~~~~~~~~~~~~~~~~~~~~~~~~~~~~~~~~~",
"~~~~~~~~~~~~~~~~~~~~~~~~~~~~~~~~~~~~~~~~~~                      ~~~~~~~~~~~~~~~~~~~~~~~~~~~~~~~~~~~~~~~~~~~~~~",
"~~~~~~~~~~~~~~~~~~~~~~~~~~~~~~~~~~~~~~~                             ~~~~~~~~~~~~~~~~~~~~~~~~~~~~~~~~~~~~~~~~~~",
"~~~~~~~~~~~~~~~~~~~~~~~~~~~~~~~~~~~~~                                  ~~~~~~~~~~~~~~~~~~~~~~~~~~~~~~~~~~~~~~~",
"~~~~~~~~~~~~~~~~~~~~~~~~~~~~~~~~~~~           X*:80rrrr08;*               ~~~~~~~~~~~~~~~~~~~~~~~~~~~~~~~~~~~~",
"~~~~~~~~~~~~~~~~~~~~~~~~~~~~~~~~~         X=0ybbbbbbbbbbbbbbyq8*            ~~~~~~~~~~~~~~~~~~~~~~~~~~~~~~~~~~",
"~~~~~~~~~~~~~~~~~~~~~~~~~~~~~~~~        =qbbbbbbbbbbbbbbbbbbbbbbbr8@          ~~~~~~~~~~~~~~~~~~~~~~~~~~~~~~~~",
"~~~~~~~~~~~~~~~~~~~~~~~~~~~~~~        ;ybbbbbbbbbbbbbbbbbbbbbbbbbbbby9@         ~~~~~~~~~~~~~~~~~~~~~~~~~~~~~~",
"~~~~~~~~~~~~~~~~~~~~~~~~~~~~~       ;ybbbbbbbbbbbbbbbbbbbbbbbbbbbbbbbbby:X       ~~~~~~~~~~~~~~~~~~~~~~~~~~~~~",
"~~~~~~~~~~~~~~~~~~~~~~~~~~~~      @rbbbbbbbbbbbbbbbbbbbbbbbbbbbbbbbbbbbbbp8X      ~~~~~~~~~~~~~~~~~~~~~~~~~~~~",
"~~~~~~~~~~~~~~~~~~~~~~~~~~~      ;pbbbbbbbbbbbbbbbbbbbbbbbbbbbbbbbbbbbbbbbbp8       ~~~~~~~~~~~~~~~~~~~~~~~~~~",
"~~~~~~~~~~~~~~~~~~~~~~~~~~      0bbbbbbbbbbbbbbbbbbbbbbbbbbbbbbbbbbbbbbbbbbbbt@      ~~~~~~~~~~~~~~~~~~~~~~~~~",
"~~~~~~~~~~~~~~~~~~~~~~~~~      0bbbbbbbbbbbbbbbbbbbbbbbbbbbbbbbbbbbbbbbbbbbbbbp=      ~~~~~~~~~~~~~~~~~~~~~~~~",
"~~~~~~~~~~~~~~~~~~~~~~~~~     0bbbbbbbbbbbbbbbbbbbbbbbbbbbbbbbbbbbbbbbbbbbbbbbbb;     ~~~~~~~~~~~~~~~~~~~~~~~~",
"~~~~~~~~~~~~~~~~~~~~~~~~     0bbbbbbbbbbbbbbbbbyq8;*******888rtbbbbbbbbbbbbbbbbbb;     ~~~~~~~~~~~~~~~~~~~~~~~",
"~~~~~~~~~~~~~~~~~~~~~~~     :bbbbbbbbbbbbbbp0;O                 *9ybbbbbbbbbbbbbbb;     ~~~~~~~~~~~~~~~~~~~~~~",
"~~~~~~~~~~~~~~~~~~~~~~~    @bbbbbbbbbbbbbr;X      +wwwwwww         @9pbbbbbbbbbbbbb*     ~~~~~~~~~~~~~~~~~~~~~",
"~~~~~~~~~~~~~~~~~~~~~~     rbbbbbbbbbbbr*     emSRRRRRRRRRRRGSma-     ;ybbbbbbbbbbbpO    ~~~~~~~~~~~~~~~~~~~~~",
"~~~~~~~~~~~~~~~~~~~~~~    *bbbbbbbbbbt*    eMGRRRRRRRRRRRRRRRRRRRDs-    :pbbbbbbbbbbr     ~~~~~~~~~~~~~~~~~~~~",
"~~~~~~~~~~~~~~~~~~~~~     rbbbbbbbbp:    aFRRRRRRRRRRRRRRRRRRRRRRRRRCw   X9bbbbbbbbbb;    ~~~~~~~~~~~~~~~~~~~~",
"~~~~~~~~~~~~~~~~~~~~~    *bbbbbbbbtO   aFRRRRRRRRRRRRRRRRRRRRRRRRRRRRRS,   @tbbbbbbbbpX    ~~~~~~~~~~~~~~~~~~~",
"~~~~~~~~~~~~~~~~~~~~~    0bbbbbbb0   ,SRRRRRRRRRRRRRRRRRRRRRRRRRRRRRRRRRM+   :bbbbbbbb8    ~~~~~~~~~~~~~~~~~~~",
"~~~~~~~~~~~~~~~~~~~~    Obbbbbbb:   sRRRRRRRRRRRRRRRRRRRRRRRRRRRRRRRRRRRRGs   @pbbbbbbpX    ~~~~~~~~~~~~~~~~~~",
"~~~~~~~~~~~~~~~~~~~~    8bbbbbb;  +MRRRRRRRRRRRRRRRRRRRRRRRRRRRRRRRRRRRRRRRS-  Xtbbbbbb:    ~~~~~~~~~~~~~~~~~~",
"~~~~~~~~~~~~~~~~~~~~    ybbbbb;  +DRRRRRRRRRRRRRRRRRRRRRRRRRRRRRRRRRRRRRRRRRGe  Xtbbbbby    ~~~~~~~~~~~~~~~~~~",
"~~~~~~~~~~~~~~~~~~~    *bbbbb0  +DRRRRRRRRRRRRRRRRRRRRRRRRRRRRRRRRRRRRRRRRRRRRa  Opbbbbb@    ~~~~~~~~~~~~~~~~~",
"~~~~~~~~~~~~~~~~~~~    0bbbbr  +DRRRRRRRRRRRRRRRRRRRRRRRRRRRRRRRRRRRRRRRRRRRRRRa  @bbbbb8    ~~~~~~~~~~~~~~~~~",
"~~~~~~~~~~~~~~~~~~     pbbbpX  SRRRRRRRRRRRRRRRRRRRRRRRRRRRRRRRRRRRRRRRRRRRRRRRRw  8bbbbt    ~~~~~~~~~~~~~~~~~",
"~~~~~~~~~~~~~~~~~~    =bbbb=  nRRRRRRRRRRRRRRRRRRRRRRRRRRRRRRRRRRRRRRRRRRRRRRRRRG-  tbbbbX    ~~~~~~~~~~~~~~~~",
"~~~~~~~~~~~~~~~~~~    0bbbq  wRRRRRRRRRRRRRRRRRRRRRRRRRRRRRRRRRRRRRRRRRRRRRRRRRRRS  *bbbb;    ~~~~~~~~~~~~~~~~",
"~~~~~~~~~~~~~~~~~~    pbbbO  FRRRRRRRRRRRRRCw sRRRRRRRRRRRRRRRRGewnGRRRRRRRRRRRRRRe  rbbb9    ~~~~~~~~~~~~~~~~",
"~~~~~~~~~~~~~~~~~    =bbb0  nRRRRRRRRRRRRM-   wRRRRRRRRRRRRRRRRS   +nGRRRRRRRRRRRRF  *bbbt    ~~~~~~~~~~~~~~~~",
"~~~~~~~~~~~~~~~~~    9bbbO +GRRRRRRRRRSa+    aFRRRRRRRRRRRRRRRRRn-    wmSGRRRRRRRRRa  ybbb    ~~~~~~~~~~~~~~~~",
"~~~~~~~~~~~~~~~~~    tbbq  nRRRRRRRRM-      eCRRRRRRRRRRRRRRRRRRRM        waCGRRRRRD  :bbb@    ~~~~~~~~~~~~~~~",
"~~~~~~~~~~~~~~~~~   Xbbb=  GRRRRRGM-          +nGRRRRRRRRRRRRRRDw             wnGRRR- Obbb=    ~~~~~~~~~~~~~~~",
"~~~~~~~~~~~~~~~~    *bbp  eRRRRRs+    6vPPPz    +mRRRRRRRRRRRRs   &vYTTTUc&     nRRRs  ybb8    ~~~~~~~~~~~~~~~",
"~~~~~~~~~~~~~~~~    8bbq  MRRRRn    6U!!!!!!QU6   nRRRRRRRRRRs   cQ!!!!!!!!U6   CRRRS  0bb8    ~~~~~~~~~~~~~~~",
"~~~~~~~~~~~~~~~~    8bb:  GRRRRn   PQ!!!!!!!!!!U&  DRRRRRRRRS  &T!!!!!!!!!!!!x  MRRRR  :bbq    ~~~~~~~~~~~~~~~",
"~~~~~~~~~~~~~~~~    rbb* ,RRRRRs  v!!!!!!!!!!!!!T  wRRRRRRRR-  E!!!!!!!!!!!!!Q& -RRRR, *bbr    ~~~~~~~~~~~~~~~",
"~~~~~~~~~~~~~~~~    rbb  sRRRRG  7!!!!!!!!!!!!!!!c  FRRRRRRD  P!!!!!!!!!!!!!!!P  DRRRe Obbr    ~~~~~~~~~~~~~~~",
"~~~~~~~~~~~~~~~~    rby  nRRRRM  U!!!!!!!!!!!!!!!E  mRRRRRRn  W!!!!!!!!!!!!!!!W  nRRRn  bbr    ~~~~~~~~~~~~~~~",
"~~~~~~~~~~~~~~~~    0br  SRRRRe &!!!!!!UU!!!!!!!!!  sRRRRRRw 6!!!!!!TPE!!!!!!!!  nRRRn  bbr    ~~~~~~~~~~~~~~~",
"~~~~~~~~~~~~~~~~    8br  SRRRR+ x!!!!!P  PQ!!!!!!!z wRRRRRR+ x!!!!!P   z!!!!!!!6 wRRRn  bb9    ~~~~~~~~~~~~~~~",
"~~~~~~~~~~~~~~~~    =br  SRRRR  P!!!!!7   c!!!!!!!z wRRRRRR  P!!!!!6    T!!!!!!7 wRRRn  bb8    ~~~~~~~~~~~~~~~",
"~~~~~~~~~~~~~~~~~    p:  FRRRR  P!!!!E     !!!!!!!z wRRRRRR  c!!!!!7    E!!!!!!  nRRRn  bb;    ~~~~~~~~~~~~~~~",
"~~~~~~~~~~~~~~~~~    X   SRRRR  v!!!!Q6   &!!!!!!!  sRRRRRRw 7!!!!!E&  c!!!!!!!  nRRRn  bb@    ~~~~~~~~~~~~~~~",
"~~~~~~~~~~~~~~~~~        SRRRR, 7!!!!!TzxPW!!!!!!Q  nRRRRRRa  Q!!!!!TPY!!!!!!!E  MRRRe  ;p    ~~~~~~~~~~~~~~~~",
"~~~~~~~~~~~~~~~~~     -  SRRRRa  W!!!!!!!!!!!!!!!P  CRRRRRRC  P!!!!!!!!!!!!!!!c  FRRR,   X    ~~~~~~~~~~~~~~~~",
"~~~~~~~~~~~~~~~~~    ,D  nRRRRS  z!!!!!!!!!!!!!!Q& -RRRRRRRR- &W!!!!!!!!!!!!!E  wRRRR         ~~~~~~~~~~~~~~~~",
"~~~~~~~~~~~~~~~~~    CR  aRRRRRw  c!!!!!!!!!!!!!z  MRRRRRRRRM  7Q!!!!!!!!!!!Q7  SRRRS  m,     ~~~~~~~~~~~~~~~~",
"~~~~~~~~~~~~~~~~~   +RRw -RRRRRG+  zW!!!!!!!!!Qx  wRGDRRRRRRRa  6T!!!!!!!!!Q7  aRRRRn  DF    ~~~~~~~~~~~~~~~~~",
"~~~~~~~~~~~~~~~~    wRRn  FRRRRRD-   xYQ!!!!QU6  ,GR+ SRRRRRRGw   zUQ!!!!QU&  ,GRRRR, -RR,    ~~~~~~~~~~~~~~~~",
"~~~~~~~~~~~~~~~~    wRRS  mRRRRRRGe     7zz7    ,GRS  MRGmSRRRRn     7zzz    wGRRRRF  sRRn    ~~~~~~~~~~~~~~~~",
"~~~~~~~~~~~~~~~~~    FRR+ ,RRRRRRRRSa         +nRRRn  FRn  RRRRRFa         +mRRRRRRn  DRRn    ~~~~~~~~~~~~~~~~",
"~~~~~~~~~~~~~~~~~    eRRs  SRRRRRRRRRGCswwwwsCRRRRRn  RD  -RRRRRRRGCswwwwaMRRRRRRRG+ -RRRa    ~~~~~~~~~~~~~~~~",
"~~~~~~~~~~~~~~~~~     ,DF  wRRRRRRRRRRRRRRRRRRRRRRRm  n,  SRRRRRRRRRRRRRRRRRRRRRRRn  MRRM     ~~~~~~~~~~~~~~~~",
"~~~~~~~~~~~~~~~~~~      ,-  SRRRRRRRRRRRRRRRRRRRRRRF     aRRRRRRRRRRRRRRRRRRRRRRRG+  Cnw     ~~~~~~~~~~~~~~~~~",
"~~~~~~~~~~~~~~~~~~~         ,RRRRRRRRRRRRRRRRRRRRRRRM+  sRRRRRRRRRRRRRRRRRRRRRRRRs           ~~~~~~~~~~~~~~~~~",
"~~~~~~~~~~~~~~~~~~~~         mRRRRRRRRRRRRRRRRRRRRRRRRSGRRRRRRRRRRRRRRRRRRRRRRRRS           ~~~~~~~~~~~~~~~~~~",
"~~~~~~~~~~~~~~~~~~~~~         DRRRRRRRRRRRRRRRRRRRRRRRRRRRRRRRRRRRRRRRRRRRRRRRRG-          ~~~~~~~~~~~~~~~~~~~",
"~~~~~~~~~~~~~~~~~~~~~~~~      -GRRRRRRRRRRRRRRRRRRRRRRRRRRRRRRRRRRRRRRRRRRRRRRRw        ~~~~~~~~~~~~~~~~~~~~~~",
"~~~~~~~~~~~~~~~~~~~~~~~~~~     ,GRRRRRRRRRRRRRRRRRRRRRRRRRRRRRRRRRRRRRRRRRRRRRa     ~~~~~~~~~~~~~~~~~~~~~~~~~~",
"~~~~~~~~~~~~~~~~~~~~~~~~~~~     ,GRRRRRRRRRRRRRRRRFMnewwwwennMSRRRRRRRRRRRRRRa     ~~~~~~~~~~~~~~~~~~~~~~~~~~~",
"~~~~~~~~~~~~~~~~~~~~~~~~~~~~     ,GRRRRRRRRRRRGmw+             +aDRRRRRRRRRGe      ~~~~~~~~~~~~~~~~~~~~~~~~~~~",
"~~~~~~~~~~~~~~~~~~~~~~~~~~~~~     +DRRRRRRRRRS+      +wwww-      wRRRRRRRRD,       ~~~~~~~~~~~~~~~~~~~~~~~~~~~",
"~~~~~~~~~~~~~~~~~~~~~~~~~~~~        nRRRRRRRRm  -anSRRRRRRRRGSMewMRRRRRRRm+  <i    ~~~~~~~~~~~~~~~~~~~~~~~~~~~",
"~~~~~~~~~~~~~~~~~~~~~~~~~~~~    uf   -SRRRRRRGmCRRRRRRRRRRRRRRRRRRRRRRRSw   dKJ    ~~~~~~~~~~~~~~~~~~~~~~~~~~~",
"~~~~~~~~~~~~~~~~~~~~~~~~~~~~    ALA>   wCRRRRRRRRRRRRRRRRRRRRRRRRRRRRSe   #ZLLL<    ~~~~~~~~~~~~~~~~~~~~~~~~~~",
"~~~~~~~~~~~~~~~~~~~~~~~~~~~    >LLLKN    -sDRRRRRRRRRRRRRRRRRRRRRRGMw    uKLLLLV    ~~~~~~~~~~~~~~~~~~~~~~~~~~",
"~~~~~~~~~~~~~~~~~~~~~~~~~~~    NLLLLLJ      +emDRRRRRRRRRRRRRRRDme       dLLLLLL     ~~~~~~~~~~~~~~~~~~~~~~~~~",
"~~~~~~~~~~~~~~~~~~~~~~~~~~     HLLLLLA  d<       ,wnnnCSSmnnew      #dJ< uLLLLLLu    ~~~~~~~~~~~~~~~~~~~~~~~~~",
"~~~~~~~~~~~~~~~~~~~~~~~~~~    uLLLLLLN  JLJBi#                   #dZLLLu >LLLLLLA    ~~~~~~~~~~~~~~~~~~~~~~~~~",
"~~~~~~~~~~~~~~~~~~~~~~~~~~    NLLLLLLi #LLLLLLHVNu<         >ufVHLLLLLLN  LLLLLLL    ~~~~~~~~~~~~~~~~~~~~~~~~~",
"~~~~~~~~~~~~~~~~~~~~~~~~~~    ZALLLLL# iLLLLLLLLLLLLLLJAALLLLLLLLLLLLLLN  LLLLKAA>    ~~~~~~~~~~~~~~~~~~~~~~~~",
"~~~~~~~~~~~~~~~~~~~~~~~~~~       >uuf  NLLLLLLLLLLLLLLLLLLLLLLLLLLLLLLLN  uu>         ~~~~~~~~~~~~~~~~~~~~~~~~",
"~~~~~~~~~~~~~~~~~~~~~~~~~~             VLLLLLLLLLLLLLLLLLLLLLLLLLLLLLLLA             ~~~~~~~~~~~~~~~~~~~~~~~~~",
"~~~~~~~~~~~~~~~~~~~~~~~~~~       eww   ALLLLLLLLLLLLLLLLLLLLLLLLLLLLLLLA   wanw      ~~~~~~~~~~~~~~~~~~~~~~~~~",
"~~~~~~~~~~~~~~~~~~~~~~~~~~~~     SRR   ALLLLLLLLLLLLLLLLLLLLLLLLLLLLLLLJ   RRRn    ~~~~~~~~~~~~~~~~~~~~~~~~~~~",
"~~~~~~~~~~~~~~~~~~~~~~~~~~~~~    SRR+  ALLLLLLLLLLLLLLLLLLLLLLLLLLLLLLLL  wRRRn    ~~~~~~~~~~~~~~~~~~~~~~~~~~~",
"~~~~~~~~~~~~~~~~~~~~~~~~~~~~~    RRRw  ALLLLLLLLLLLLLLLLLLLLLLLLLLLLLLLL< wRRRn    ~~~~~~~~~~~~~~~~~~~~~~~~~~~",
"~~~~~~~~~~~~~~~~~~~~~~~~~~~~~    RRRw  ALLLLLLLLLLLLLLLLLLLLLLLLLLLLLLLLu ,RRRn    ~~~~~~~~~~~~~~~~~~~~~~~~~~~",
"~~~~~~~~~~~~~~~~~~~~~~~~~~~~~    RRRw  ALLLLLLLLLLLLLLLLLLLLLLLLLLLLLLLLf  RRRm    ~~~~~~~~~~~~~~~~~~~~~~~~~~~",
"~~~~~~~~~~~~~~~~~~~~~~~~~~~~~    RRRa  ALLLLLLLLLLLLLLLLLLLLLLLLLLLLLLLLN  RRRS    ~~~~~~~~~~~~~~~~~~~~~~~~~~~",
"~~~~~~~~~~~~~~~~~~~~~~~~~~~~~    GRRn  ALLLLLLLLLLLLLLLLLLLLLLLLLLLLLLLLN  RRRM    ~~~~~~~~~~~~~~~~~~~~~~~~~~~",
"~~~~~~~~~~~~~~~~~~~~~~~~~~~~~    mRRw  NLLLLLLLLLLLLLLLLLLLLLLLLLLLLLLLLN  RRRw    ~~~~~~~~~~~~~~~~~~~~~~~~~~~",
"~~~~~~~~~~~~~~~~~~~~~~~~~~~~~     +w   uuuuudNNNVAAAAAAAAKLLLLLLLLJABiuu>  ,-      ~~~~~~~~~~~~~~~~~~~~~~~~~~~",
"~~~~~~~~~~~~~~~~~~~~~~~~~~~~~~                              >u                    ~~~~~~~~~~~~~~~~~~~~~~~~~~~~",
"~~~~~~~~~~~~~~~~~~~~~~~~~~~~~~            %%o                                    ~~~~~~~~~~~~~~~~~~~~~~~~~~~~~",
"~~~~~~~~~~~~~~~~~~~~~~~~~~~~~~~           lllllljgg4       .1%33335gj%           ~~~~~~~~~~~~~~~~~~~~~~~~~~~~~",
"~~~~~~~~~~~~~~~~~~~~~~~~~~~~~~~~~~~ ~     lllllllllj       %lllllllll$       ~~~~~~~~~~~~~~~~~~~~~~~~~~~~~~~~~",
"~~~~~~~~~~~~~~~~~~~~~~~~~~~~~~~~~~~~~~    llllllllll       %lllllllll    ~~~~~~~~~~~~~~~~~~~~~~~~~~~~~~~~~~~~~",
"~~~~~~~~~~~~~~~~~~~~~~~~~~~~~~~~~~~~~~    llllllllll       .lllllllll    ~~~~~~~~~~~~~~~~~~~~~~~~~~~~~~~~~~~~~",
"~~~~~~~~~~~~~~~~~~~~~~~~~~~~~~~~~~~~~~    lllllllllj        lllllllll    ~~~~~~~~~~~~~~~~~~~~~~~~~~~~~~~~~~~~~",
"~~~~~~~~~~~~~~~~~~~~~~~~~~~~~~~~~~~~~~    lllllllllg        lllllllll    ~~~~~~~~~~~~~~~~~~~~~~~~~~~~~~~~~~~~~",
"~~~~~~~~~~~~~~~~~~~~~~~~~~~~~~~~~~~~~~    lllllllllg        llllllllj    ~~~~~~~~~~~~~~~~~~~~~~~~~~~~~~~~~~~~~",
"~~~~~~~~~~~~~~~~~~~~~~~~~~~~~~~~~~~~~~    hllllllllg        llllllllg    ~~~~~~~~~~~~~~~~~~~~~~~~~~~~~~~~~~~~~",
"~~~~~~~~~~~~~~~~~~~~~~~~~~~~~~~~~~~~~~    3llllllllg       ollllllll3    ~~~~~~~~~~~~~~~~~~~~~~~~~~~~~~~~~~~~~",
"~~~~~~~~~~~~~~~~~~~~~~~~~~~~~~~~~~~~~~    2llllllllk       %llllllhg%    ~~~~~~~~~~~~~~~~~~~~~~~~~~~~~~~~~~~~~",
"~~~~~~~~~~~~~~~~~~~~~~~~~~~~~~~~~~~~~~    %jllllllll         o%%.        ~~~~~~~~~~~~~~~~~~~~~~~~~~~~~~~~~~~~~",
"~~~~~~~~~~~~~~~~~~~~~~~~~~~~~~~~~~~~~~       o%%32%%                      ~~~~~~~~~~~~~~~~~~~~~~~~~~~~~~~~~~~~",
"~~~~~~~~~~~~~~~~~~~~~~~~~~~~~~~~~~~~~~                     cPzzzcPUTT7    ~~~~~~~~~~~~~~~~~~~~~~~~~~~~~~~~~~~~",
"~~~~~~~~~~~~~~~~~~~~~~~~~~~~~~~~~~~~~~     PPxzz  7z       7!!!!!!!!W    ~~~~~~~~~~~~~~~~~~~~~~~~~~~~~~~~~~~~~",
"~~~~~~~~~~~~~~~~~~~~~~~~~~~~~~~~~~~~~~~    7Q!!!!!!c        c!!!!!!Q7    ~~~~~~~~~~~~~~~~~~~~~~~~~~~~~~~~~~~~~",
"~~~~~~~~~~~~~~~~~~~~~~~~~~~~~~~~~~~~~~~     6T!!!Qz          xW!!!T6     ~~~~~~~~~~~~~~~~~~~~~~~~~~~~~~~~~~~~~",
"~~~~~~~~~~~~~~~~~~~~~~~~~~~~~~~~~~~~~~~~      zPU&     ~~     &cIP      ~~~~~~~~~~~~~~~~~~~~~~~~~~~~~~~~~~~~~~",
"~~~~~~~~~~~~~~~~~~~~~~~~~~~~~~~~~~~~~~~~~              ~~              ~~~~~~~~~~~~~~~~~~~~~~~~~~~~~~~~~~~~~~~",
"~~~~~~~~~~~~~~~~~~~~~~~~~~~~~~~~~~~~~~~~~~            ~~~~~           ~~~~~~~~~~~~~~~~~~~~~~~~~~~~~~~~~~~~~~~~",
"~~~~~~~~~~~~~~~~~~~~~~~~~~~~~~~~~~~~~~~~~~~         ~~~~~~~~         ~~~~~~~~~~~~~~~~~~~~~~~~~~~~~~~~~~~~~~~~~",
"~~~~~~~~~~~~~~~~~~~~~~~~~~~~~~~~~~~~~~~~~~~~~~     ~~~~~~~~~~~     ~~~~~~~~~~~~~~~~~~~~~~~~~~~~~~~~~~~~~~~~~~~"
};
