/* XPM */
static char *result[] = {
/* columns rows colors chars-per-pixel */
"110 110 81 1 ",
"  c black",
". c #030406",
"X c #080403",
"o c #05090D",
"O c #100906",
"+ c #100C09",
"@ c #180D08",
"# c #101007",
"$ c #080D13",
"% c #0A1119",
"& c #101010",
"* c #20120B",
"= c #28160E",
"- c #201811",
"; c #301B11",
": c #381F14",
"> c #20200E",
", c #30241A",
"< c #303014",
"1 c #0D1520",
"2 c #0F1A26",
"3 c #121E2C",
"4 c #142233",
"5 c #172639",
"6 c #192B3F",
"7 c #202020",
"8 c gray19",
"9 c #412417",
"0 c #492819",
"q c #512C1C",
"w c #59311F",
"e c #403022",
"r c #503C2B",
"t c #613522",
"y c #693A25",
"u c #713E27",
"i c #40401B",
"p c #505022",
"a c #79432A",
"s c #604833",
"d c #70543C",
"f c #606029",
"g c #707030",
"h c #1C2F45",
"j c #1E334C",
"k c #213752",
"l c #233C58",
"z c #26405F",
"x c #284465",
"c c gray25",
"v c #505050",
"b c #606060",
"n c gray44",
"m c #81472D",
"M c #806044",
"N c #8F6C4D",
"B c #9F7855",
"V c #808037",
"C c #9F9F44",
"Z c #AF845E",
"A c #AFAF4B",
"S c #BFBF52",
"D c #BF9066",
"F c #CF9C6F",
"G c #DFA877",
"H c #CFCF59",
"J c #DFDF5F",
"K c #EFEF66",
"L c #FFFF6D",
"P c #808080",
"I c gray56",
"U c #9F9F9F",
"Y c #AFAFAF",
"T c gray75",
"R c #EFB480",
"E c #FFC088",
"W c gray81",
"Q c #DFDFDF",
"! c #EFEFEF",
"~ c white",
"^ c None",
/* pixels */
"^^^^^^^^^^^^^^^^^^^^^^^^^^^^^^^^^^^^^^^^^^^^^^^^^^^^^^^^^^^^^^^^^^^^^^^^^^^^^^^^^^^^^^^^^^^^^^^^^^^^^^^^^^^^^^",
"^^^^^^^^^^^^^^^^^^^^^^^^^^^^^^^^^^^^^^^^^^^                     ^^^^^^^^^^^^^^^^^^^^^^^^^^^^^^^^^^^^^^^^^^^^^^",
"^^^^^^^^^^^^^^^^^^^^^^^^^^^^^^^^^^^^^^^                             ^^^^^^^^^^^^^^^^^^^^^^^^^^^^^^^^^^^^^^^^^^",
"^^^^^^^^^^^^^^^^^^^^^^^^^^^^^^^^^^^^                                  ^^^^^^^^^^^^^^^^^^^^^^^^^^^^^^^^^^^^^^^^",
"^^^^^^^^^^^^^^^^^^^^^^^^^^^^^^^^^^                                      ^^^^^^^^^^^^^^^^^^^^^^^^^^^^^^^^^^^^^^",
"^^^^^^^^^^^^^^^^^^^^^^^^^^^^^^^^           *:qtttttttttqX*wat9:*          ^^^^^^^^^^^^^^^^^^^^^^^^^^^^^^^^^^^^",
"^^^^^^^^^^^^^^^^^^^^^^^^^^^^^^^        *:wmmmmmmmmmmmmmmmmmmmmmmmu;         ^^^^^^^^^^^^^^^^^^^^^^^^^^^^^^^^^^",
"^^^^^^^^^^^^^^^^^^^^^^^^^^^^^^      X0ammmmmmmmmmmmmmmmmmmmmmmmmmmmu;         ^^^^^^^^^^^^^^^^^^^^^^^^^^^^^^^^",
"^^^^^^^^^^^^^^^^^^^^^^^^^^^^^      9ammmmmmmmmmmmmmmmmmmmmmmmmmmmmmmmtO        ^^^^^^^^^^^^^^^^^^^^^^^^^^^^^^^",
"^^^^^^^^^^^^^^^^^^^^^^^^^^^^^     0mmmmmmmmmmmmmmmmmmmmmmmmmmmmmmmmmmmmq;O      ^^^^^^^^^^^^^^^^^^^^^^^^^^^^^^",
"^^^^^^^^^^^^^^^^^^^^^^^^^^^^     0mmmmmmmmmmmmmmmmmmmmmmmmmmmmmmmmmmmmmmma=      ^^^^^^^^^^^^^^^^^^^^^^^^^^^^^",
"^^^^^^^^^^^^^^^^^^^^^^^^^^^     ;mmmmmmmmmmmmmmmmmmmmmmmmmmmmmmmmmmmmmmmmmm9      ^^^^^^^^^^^^^^^^^^^^^^^^^^^^",
"^^^^^^^^^^^^^^^^^^^^^^^^^^^    @mmmmmmmmmmmmmmmmmmmmmmmmmmmmmmmmmmmmmmmmmmmmq      ^^^^^^^^^^^^^^^^^^^^^^^^^^^",
"^^^^^^^^^^^^^^^^^^^^^^^^^^     ummmmmmmmmmmmmmmmmmmmmmmmmmmmmmmmmmmmmmmmmmmmmq      ^^^^^^^^^^^^^^^^^^^^^^^^^^",
"^^^^^^^^^^^^^^^^^^^^^^^^^^    =mmmmmmmmmmmmmmmmmmmmmmmmmmmmmmmmmmmmmmmmmmmmmmmtX     ^^^^^^^^^^^^^^^^^^^^^^^^^",
"^^^^^^^^^^^^^^^^^^^^^^^^^^    =mmmmmmmmmmmmmmmmmmmmmmmmmmmmmmmmmmmmmmmmmmmmmmmma@     ^^^^^^^^^^^^^^^^^^^^^^^^",
"^^^^^^^^^^^^^^^^^^^^^^^^^^    XtmmmmmmmmmmmmmmmmmmmmmmmmmmmmmmmmmmmmmmmmmmmmmmmmaX    ^^^^^^^^^^^^^^^^^^^^^^^^",
"^^^^^^^^^^^^^^^^^^^^^^^^^^^     wmmmmmmmmmmmmmmmmmmmmmmmmmmmmmmmmmmmmmmmmmmmmmmmmq     ^^^^^^^^^^^^^^^^^^^^^^^",
"^^^^^^^^^^^^^^^^^^^^^^^^^^^     X9ttttammmmmmmmmmmmmmmmmmmmmmmmmmmmmmmmmmmmmmmmmmmO    ^^^^^^^^^^^^^^^^^^^^^^^",
"^^^^^^^^^^^^^^^^^^^^^^^^^^^^            X*:0tmmmmmmmmmmmmmmmmmmmmmmmmmmmmmmmmmmmmmq     ^^^^^^^^^^^^^^^^^^^^^^",
"^^^^^^^^^^^^^^^^^^^^^^^^^^^^                   O:ummmmmmmmmmmmmmmmmmmmmmmmmmmmmmmmm@    ^^^^^^^^^^^^^^^^^^^^^^",
"^^^^^^^^^^^^^^^^^^^^^^^^^^^     -ZDDDDMMr,        =tmmmmmmmmmmmmmmmmmmmmmmmmmmmmmmmuX    ^^^^^^^^^^^^^^^^^^^^^",
"^^^^^^^^^^^^^^^^^^^^^^^^^^     ,REEEEEEEEEEFBMe-    *tmmmmmmmmmmmmmmmmmmmmmmmmmmmmmm9    ^^^^^^^^^^^^^^^^^^^^^",
"^^^^^^^^^^^^^^^^^^^^^^^^^     -REEEEEEEEEEEEEEEEDr    *tmmmmmmmmmmmmmmmmmmmmmmmmmmmmu     ^^^^^^^^^^^^^^^^^^^^",
"^^^^^^^^^^^^^^^^^^^^^^^^^    +FEEEEEEEEEEEEEEEEEEEGs    *tmmmmmmmmmmmmmmmmmmmmmmmmmmm;    ^^^^^^^^^^^^^^^^^^^^",
"^^^^^^^^^^^^^^^^^^^^^^^^     DEEEEEEEEEEEEEEEEEEEEEEGs    ;ummmmmmmmmmmmmmmmmmmmmmmmmu     ^^^^^^^^^^^^^^^^^^^",
"^^^^^^^^^^^^^^^^^^^^^^^     MEEEEEEEEEEEEEEEEEEEEEEEEEGr    ;ammmmmmmmmmmmmmmmmmmmmmmm=    ^^^^^^^^^^^^^^^^^^^",
"^^^^^^^^^^^^^^^^^^^^^^^    ,EEEEEEEEEEEEEEEEEEEEEEEEEEEEDe    :ammmmmmmmmmmmmmmmmmmmmmt    ^^^^^^^^^^^^^^^^^^^",
"^^^^^^^^^^^^^^^^^^^^^^     DEEEEEEEEEEEEEEEEEEEEEEEEEEEEEEDe   XqmmmmmmmmmmmmmmmmmmmmmmO    ^^^^^^^^^^^^^^^^^^",
"^^^^^^^^^^^^^^^^^^^^^^     ,ZEEEEEEEEEEEEEEEEEEEEEEEEEEEEEEEB-   9mmmmmmmmmmmmmmmmmmmmm*    ^^^^^^^^^^^^^^^^^^",
"^^^^^^^^^^^^^^^^^^^^^        -ZEEEEEEEEEEEEEEEEEEEEEEEEEEEEEEEN   :mmmmmmmmmmmmmmmmmmmm*    ^^^^^^^^^^^^^^^^^^",
"^^^^^^^^^^^^^^^^^^^^^    ,s    +sZFEEEEEEEEEEEEEEEEEEEEEEEEEEEEF+  qmmmmmmmmmmmmmmmmmmm9    ^^^^^^^^^^^^^^^^^^",
"^^^^^^^^^^^^^^^^^^^^^    ZEs       -eNFEEEEEEEEEEEEEEEEEEEEEEEEEF+ Xummmmmmmmmmmmmmmmmmq    ^^^^^^^^^^^^^^^^^^",
"^^^^^^^^^^^^^^^^^^^^    -Z-            -sZREEEEEEEEEEEEEEEEEEEEEEB  *mmmmmmmmmmmmmmmmmmy    ^^^^^^^^^^^^^^^^^^",
"^^^^^^^^^^^^^^^^^^^^        7PYTTTnc      dEEEEEEEEEEEEEEEEEEEEEEEr  0mmmmmmmmmmmmmmmmmm    ^^^^^^^^^^^^^^^^^^",
"^^^^^^^^^^^^^^^^^^^^       P!~~~~~~~QP&   MEEEEEEEEEEEEEEEEEEEEEEEG+ Xummmmmmmmmmmmmmmmm    ^^^^^^^^^^^^^^^^^^",
"^^^^^^^^^^^^^^^^^^^^     cQ~~~~~~~~~~~!8  ZEEEEEEEEEEEEEEEEEEEEEEEEN  *mmmmmmmmmmmmmmmmm    ^^^^^^^^^^^^^^^^^^",
"^^^^^^^^^^^^^^^^^^^     8!~~~~~~~~~~~~~Q& ,EEEEEEEEEEEEEEEEEEEEEEEEEr  9mmmmmmmmmmmmmmmm    ^^^^^^^^^^^^^^^^^^",
"^^^^^^^^^^^^^^^^^^^     W~~~~~~~~~~~~~~~n  FEEEEEEEEEEEEEEEEEEEEEEEER+ XammmmmmmmmmmmmmmO   ^^^^^^^^^^^^^^^^^^",
"^^^^^^^^^^^^^^^^^^^    v~~~~~~~~~~~~~~~~W  NEEEEEEEEEEEEEEEEEEEEEEEEEB  9mmmmmmmmmmmmmmm@    ^^^^^^^^^^^^^^^^^",
"^^^^^^^^^^^^^^^^^^^    U~~~~~~~~~~~~~~~~~  sEEEEEEEEEEEEEEEEEEEEEEEEEE-  ummmmmmmmmmmmmm    ^^^^^^^^^^^^^^^^^^",
"^^^^^^^^^^^^^^^^^^^    Qn 7P!~~~~~~~~~~~~c eEEEEEEEEEEEEEEEEEEEEEEEEEED  :mmmmmmmmmmmmmm    ^^^^^^^^^^^^^^^^^^",
"^^^^^^^^^^^^^^^^^^^    U    n~~~~~~~~~~~~c eEEEEEEEEEEEEEEEEEEEEEEEEEEE,  tmmmmmmmmmmmma    ^^^^^^^^^^^^^^^^^^",
"^^^^^^^^^^^^^^^^^^^    P    c~~~~~~~~~~~~c eEEEEEEEEEEEEEEEEEEEEEEEEEEEF  @mmmmmmmmmmmmt    ^^^^^^^^^^^^^^^^^^",
"^^^^^^^^^^^^^^^^^^     Y    I~~~~~~~~~~~~& rEEEEEEEEEEEEEEEEEEEEEEEEEEEEs  qmmmmmmmmmmmt    ^^^^^^^^^^^^^^^^^^",
"^^^^^^^^^^^^^^^^^      YU  n~~~~~~~~~~~~~  MEEEEEEEEEEEEEEEEEEEEEEEEEEEER+ Ommmmmmmmmmm:    ^^^^^^^^^^^^^^^^^^",
"^^^^^^^^^^^^^^^^^      b~!~~~~~~~~~~~~~~Y  NEEEEEEEEEEEEEEEEEEEEEEEEEEEEEM  qmmmmmmmmmm*    ^^^^^^^^^^^^^^^^^^",
"^^^^^^^^^^^^^^^^     - &!~~~~~~~~~~~~~~~c  GEEEEEEEEEEEEEEEEEEBseesBEEEEER+ XammmmmmmmaX    ^^^^^^^^^^^^^^^^^^",
"^^^^^^^^^^^^^^^^    sB  v~~~~~~~~~~~~~~Y  sEEEEEEEEEEEEEEEEEF-      ,REEEEN  9mmmmmmmmw    ^^^^^^^^^^^^^^^^^^^",
"^^^^^^^^^^^^^^^^    ZEe  b~~~~~~~~~~~~W&  GEEEEEEEEEEEEEEEEEe   ee   ,REEEE- Xammmmmmm9    ^^^^^^^^^^^^^^^^^^^",
"^^^^^^^^^^^^^^^^    dGR+  8W~~~~~~~~~W&  MEEEEEEEEEEEEEEEEEEB-MREERs  MEEEEB  9mmmmmmmO    ^^^^^^^^^^^^^^^^^^^",
"^^^^^^^^^^^^^^^^      +-    vY!~~~~Wb   sEEEEEEEEEEEEEEEEEEEEEEEEEER- -EEEEE- Ommmmmmu    ^^^^^^^^^^^^^^^^^^^^",
"^^^^^^^^^^^^^^^^               8cc&    dEEEEEEEEEEEEEEEEEEEEEEEEEEEEM  EEEEEN  qmmmmm9    ^^^^^^^^^^^^^^^^^^^^",
"^^^^^^^^^^^^^^^^^        eZr         eDEEEEEEEEEEEEEEEEEEEEEEEEEEEEEM  EEEEER+ *mmmmuX    ^^^^^^^^^^^^^^^^^^^^",
"^^^^^^^^^^^^^^^^^^^      +RERZMeeerMFEEEEEEEEEEEEEEEEEEEEEEEEEEEEEEEM  EEEEEEe *mmmm*    ^^^^^^^^^^^^^^^^^^^^^",
"^^^^^^^^^^^^^^^^^^^^^     MEEEEEEEEEEEEEEEEEEEEEEEEEEEEEEEEEEEEEEEEEe +EEEEEEd  mmm;     ^^^^^^^^^^^^^^^^^^^^^",
"^^^^^^^^^^^^^^^^^^^^^^    +GEEEEEEEEEEEEEEEEEEEEEEEEEEEEEEERNGEEEERs  sEEEEEEM  um0     ^^^^^^^^^^^^^^^^^^^^^^",
"^^^^^^^^^^^^^^^^^^^^^^^    rEEEEEEEEEEEEEEEEEEEEEEEEEEEEEEEr  sDGM+  +REEEEEED  O0X    ^^^^^^^^^^^^^^^^^^^^^^^",
"^^^^^^^^^^^^^^^^^^^^^^^     BEEEEEEEEEEEEEEEEEEEEEEEEEEEEEEd        -FEEEEEEEE,        ^^^^^^^^^^^^^^^^^^^^^^^",
"^^^^^^^^^^^^^^^^^^^^^^^^    +FEEGDREEEEEEEEEEEEEEEEEEEEEEEEEDe    -BEEEEEEEEER-       ^^^^^^^^^^^^^^^^^^^^^^^^",
"^^^^^^^^^^^^^^^^^^^^^^^^     -M-   eDEEEEEEEEEEEEEEEEEEEEEEEEEFMMZEEEEEEEEEEE,       ^^^^^^^^^^^^^^^^^^^^^^^^^",
"^^^^^^^^^^^^^^^^^^^^^^^^^            ,NEEEEEEEEEEEEEEEEEEEEEEEEEEEEEEEEEEEEEs       ^^^^^^^^^^^^^^^^^^^^^^^^^^",
"^^^^^^^^^^^^^^^^^^^^^^^^^^      sZs    DEEEEEEEEEEEEEEEEEEEEEEEEEEEEEEEEEERr     ^^^^^^^^^^^^^^^^^^^^^^^^^^^^^",
"^^^^^^^^^^^^^^^^^^^^^^^^^^^     -FEGd++GEEEEEEEEEEEEEEEEEEEEEEEEEEEEEEEEER,     ^^^^^^^^^^^^^^^^^^^^^^^^^^^^^^",
"^^^^^^^^^^^^^^^^^^^^^^^^^^^^     +BEEEEEEEEEEEEEEEEEEEEEEEEEEEEEEEEEEEEEZ+     ^^^^^^^^^^^^^^^^^^^^^^^^^^^^^^^",
"^^^^^^^^^^^^^^^^^^^^^^^^^^^^^      rGEEEEEEEEEEEEEEEEEEEEEEEEEEEEEEEEERs      ^^^^^^^^^^^^^^^^^^^^^^^^^^^^^^^^",
"^^^^^^^^^^^^^^^^^^^^^^^^^^^^^^      +MREEEEEEEEEEEEEEEEEEEEEEEEEEEEEEM+      ^^^^^^^^^^^^^^^^^^^^^^^^^^^^^^^^^",
"^^^^^^^^^^^^^^^^^^^^^^^^^^^^^^^       +sFEEEEEEEEEEEEEEEEEEEEEEEEERM-       ^^^^^^^^^^^^^^^^^^^^^^^^^^^^^^^^^^",
"^^^^^^^^^^^^^^^^^^^^^^^^^^^^^^^^         -dDEEEEEEEEEEEEEEEEEEERZr         ^^^^^^^^^^^^^^^^^^^^^^^^^^^^^^^^^^^",
"^^^^^^^^^^^^^^^^^^^^^^^^^^^^^^^^^^           eMBDEEEEEEEEEEFZMe     ><    ^^^^^^^^^^^^^^^^^^^^^^^^^^^^^^^^^^^^",
"^^^^^^^^^^^^^^^^^^^^^^^^^^^^^^^^^^^^               -eeeee         pALA    ^^^^^^^^^^^^^^^^^^^^^^^^^^^^^^^^^^^^",
"^^^^^^^^^^^^^^^^^^^^^^^^^^^^^^^^^^^^^^    JCf>                  VKLLLL    ^^^^^^^^^^^^^^^^^^^^^^^^^^^^^^^^^^^^",
"^^^^^^^^^^^^^^^^^^^^^^^^^^^^^^^^^^^^^^   #LLLLLf  giiiiiigVCSS  VLLLLL>    ^^^^^^^^^^^^^^^^^^^^^^^^^^^^^^^^^^^",
"^^^^^^^^^^^^^^^^^^^^^^^^^^^^^^^^^^^^^    iLLLLLS  SLLLLLLLLLLL  VLLLLLp    ^^^^^^^^^^^^^^^^^^^^^^^^^^^^^^^^^^^",
"^^^^^^^^^^^^^^^^^^^^^^^^^^^^^^^^^^^^^    iLLLLLA  SLLLLLLLLLLL  VLLLLLV    ^^^^^^^^^^^^^^^^^^^^^^^^^^^^^^^^^^^",
"^^^^^^^^^^^^^^^^^^^^^^^^^^^^^^^^^^^^^^   #LLLLLS  ALLLLLLLLLLL  fLLLLLS    ^^^^^^^^^^^^^^^^^^^^^^^^^^^^^^^^^^^",
"^^^^^^^^^^^^^^^^^^^^^^^^^^^^^^^^^^^^^^    LLLLLK  VLLLLLLLLLLL< iLLLLLK    ^^^^^^^^^^^^^^^^^^^^^^^^^^^^^^^^^^^",
"^^^^^^^^^^^^^^^^^^^^^^^^^^^^^^^^^^^^^^    LLLLLL  VLLLLLLLLLLLi >LLLLLL<    ^^^^^^^^^^^^^^^^^^^^^^^^^^^^^^^^^^",
"^^^^^^^^^^^^^^^^^^^^^^^^^^^^^^^^^^^^^^    LLLLLH  #              SLLLLLp    ^^^^^^^^^^^^^^^^^^^^^^^^^^^^^^^^^^",
"^^^^^^^^^^^^^^^^^^^^^^^^^^^^^^^^^^^^^^    LLLLLL#                KLLLLLV    ^^^^^^^^^^^^^^^^^^^^^^^^^^^^^^^^^^",
"^^^^^^^^^^^^^^^^^^^^^^^^^^^^^^^^^^^^^^    LLLLLLSpiVf  sMM  iVVVSLLLLLLV    ^^^^^^^^^^^^^^^^^^^^^^^^^^^^^^^^^^",
"^^^^^^^^^^^^^^^^^^^^^^^^^^^^^^^^^^^^^^    SLLLLLLLLLV  GED  ALLLLLLJAVVi    ^^^^^^^^^^^^^^^^^^^^^^^^^^^^^^^^^^",
"^^^^^^^^^^^^^^^^^^^^^^^^^^^^^^^^^^^^^^    <iiiiiiiii>  EED  >ii             ^^^^^^^^^^^^^^^^^^^^^^^^^^^^^^^^^^",
"^^^^^^^^^^^^^^^^^^^^^^^^^^^^^^^^^^^^^^                 EED                  ^^^^^^^^^^^^^^^^^^^^^^^^^^^^^^^^^^",
"^^^^^^^^^^^^^^^^^^^^^^^^^^^^^^^^^^^^^^         .%%%%o  EEF  o%%344%        ^^^^^^^^^^^^^^^^^^^^^^^^^^^^^^^^^^^",
"^^^^^^^^^^^^^^^^^^^^^^^^^^^^^^^^^^^^^^^         xxxx1 +EEM  lxxxxx1       ^^^^^^^^^^^^^^^^^^^^^^^^^^^^^^^^^^^^",
"^^^^^^^^^^^^^^^^^^^^^^^^^^^^^^^^^^^^^^^^        zxxxo eEEM  xxxxxl     ^^^^^^^^^^^^^^^^^^^^^^^^^^^^^^^^^^^^^^^",
"^^^^^^^^^^^^^^^^^^^^^^^^^^^^^^^^^^^^^^^^^^^^    5xxj  MEEe .xxxxz%    ^^^^^^^^^^^^^^^^^^^^^^^^^^^^^^^^^^^^^^^^",
"^^^^^^^^^^^^^^^^^^^^^^^^^^^^^^^^^^^^^^^^^^^^    %x6.  GEEe %xxxz$     ^^^^^^^^^^^^^^^^^^^^^^^^^^^^^^^^^^^^^^^^",
"^^^^^^^^^^^^^^^^^^^^^^^^^^^^^^^^^^^^^^^^^^^^     2   NEEEr  zxx$     ^^^^^^^^^^^^^^^^^^^^^^^^^^^^^^^^^^^^^^^^^",
"^^^^^^^^^^^^^^^^^^^^^^^^^^^^^^^^^^^^^^^^^^^^^        ,EEEB  2x5     ^^^^^^^^^^^^^^^^^^^^^^^^^^^^^^^^^^^^^^^^^^",
"^^^^^^^^^^^^^^^^^^^^^^^^^^^^^^^^^^^^^^^^^^^^^         FEEE- .x%    ^^^^^^^^^^^^^^^^^^^^^^^^^^^^^^^^^^^^^^^^^^^",
"^^^^^^^^^^^^^^^^^^^^^^^^^^^^^^^^^^^^^^^^^^^^^     %%  rEBMr  x%    ^^^^^^^^^^^^^^^^^^^^^^^^^^^^^^^^^^^^^^^^^^^",
"^^^^^^^^^^^^^^^^^^^^^^^^^^^^^^^^^^^^^^^^^^^^^^    hx%  -    $x.   ^^^^^^^^^^^^^^^^^^^^^^^^^^^^^^^^^^^^^^^^^^^^",
"^^^^^^^^^^^^^^^^^^^^^^^^^^^^^^^^^^^^^^^^^^^^^^    4xl.      4x.    ^^^^^^^^^^^^^^^^^^^^^^^^^^^^^^^^^^^^^^^^^^^",
"^^^^^^^^^^^^^^^^^^^^^^^^^^^^^^^^^^^^^^^^^^^^^^    $xxh. 1hjzxx.    ^^^^^^^^^^^^^^^^^^^^^^^^^^^^^^^^^^^^^^^^^^^",
"^^^^^^^^^^^^^^^^^^^^^^^^^^^^^^^^^^^^^^^^^^^^^^^    kxxxxxxxxxx    ^^^^^^^^^^^^^^^^^^^^^^^^^^^^^^^^^^^^^^^^^^^^",
"^^^^^^^^^^^^^^^^^^^^^^^^^^^^^^^^^^^^^^^^^^^^^^^    3xxxxxxxxxx    ^^^^^^^^^^^^^^^^^^^^^^^^^^^^^^^^^^^^^^^^^^^^",
"^^^^^^^^^^^^^^^^^^^^^^^^^^^^^^^^^^^^^^^^^^^^^^^    .xxxxxxxxxx    ^^^^^^^^^^^^^^^^^^^^^^^^^^^^^^^^^^^^^^^^^^^^",
"^^^^^^^^^^^^^^^^^^^^^^^^^^^^^^^^^^^^^^^^^^^^^^^^    lxxxxxxxxl    ^^^^^^^^^^^^^^^^^^^^^^^^^^^^^^^^^^^^^^^^^^^^",
"^^^^^^^^^^^^^^^^^^^^^^^^^^^^^^^^^^^^^^^^^^^^^^^     $%%%%%%%      ^^^^^^^^^^^^^^^^^^^^^^^^^^^^^^^^^^^^^^^^^^^^",
"^^^^^^^^^^^^^^^^^^^^^^^^^^^^^^^^^^^^^^^^^^^^^^                    ^^^^^^^^^^^^^^^^^^^^^^^^^^^^^^^^^^^^^^^^^^^^",
"^^^^^^^^^^^^^^^^^^^^^^^^^^^^^^^^^^^^^^^^^^^^^       7cccccccn7    ^^^^^^^^^^^^^^^^^^^^^^^^^^^^^^^^^^^^^^^^^^^^",
"^^^^^^^^^^^^^^^^^^^^^^^^^^^^^^^^^^^^^^^^^^^^^     8W~~~~~~~~~n    ^^^^^^^^^^^^^^^^^^^^^^^^^^^^^^^^^^^^^^^^^^^^",
"^^^^^^^^^^^^^^^^^^^^^^^^^^^^^^^^^^^^^^^^^^^^     cW~!TTTTT!TTP    ^^^^^^^^^^^^^^^^^^^^^^^^^^^^^^^^^^^^^^^^^^^^",
"^^^^^^^^^^^^^^^^^^^^^^^^^^^^^^^^^^^^^^^^^^^^                      ^^^^^^^^^^^^^^^^^^^^^^^^^^^^^^^^^^^^^^^^^^^^",
"^^^^^^^^^^^^^^^^^^^^^^^^^^^^^^^^^^^^^^^^^^^^                      ^^^^^^^^^^^^^^^^^^^^^^^^^^^^^^^^^^^^^^^^^^^^",
"^^^^^^^^^^^^^^^^^^^^^^^^^^^^^^^^^^^^^^^^^^^^^                     ^^^^^^^^^^^^^^^^^^^^^^^^^^^^^^^^^^^^^^^^^^^^",
"^^^^^^^^^^^^^^^^^^^^^^^^^^^^^^^^^^^^^^^^^^^^^^                   ^^^^^^^^^^^^^^^^^^^^^^^^^^^^^^^^^^^^^^^^^^^^^",
"^^^^^^^^^^^^^^^^^^^^^^^^^^^^^^^^^^^^^^^^^^^^^^^^^^^^^^^^^^^^^^^^^^^^^^^^^^^^^^^^^^^^^^^^^^^^^^^^^^^^^^^^^^^^^^"
};
