/* XPM */
static char *result[] = {
/* columns rows colors chars-per-pixel */
"110 110 80 1 ",
"  c black",
". c #030406",
"X c #080403",
"o c #05090D",
"O c #100906",
"+ c #100C08",
"@ c #180D08",
"# c #101007",
"$ c #080D13",
"% c #0A1119",
"& c #0D151F",
"* c #101010",
"= c #20120B",
"- c #28160E",
"; c #201811",
": c #301A11",
"> c #381F13",
", c #20200E",
"< c #302419",
"1 c #303014",
"2 c #0F1A26",
"3 c #121E2C",
"4 c #142232",
"5 c #172638",
"6 c #192B3F",
"7 c #202020",
"8 c gray19",
"9 c #412316",
"0 c #492719",
"q c #512C1C",
"w c #59301E",
"e c #403022",
"r c #503C2A",
"t c #613521",
"y c #693924",
"u c #713D27",
"i c #40401B",
"p c #505022",
"a c #794229",
"s c #604833",
"d c #70543B",
"f c #606029",
"g c #70702F",
"h c #213751",
"j c #233C58",
"k c #26405E",
"l c #284464",
"z c gray25",
"x c #505050",
"c c #606060",
"v c gray44",
"b c #81462C",
"n c #806044",
"m c #8F6C4C",
"M c #9F7854",
"N c #808036",
"B c #8F8F3D",
"V c #9F9F44",
"C c #AF845D",
"Z c #AFAF4A",
"A c #BFBF51",
"S c #BF9065",
"D c #CF9C6E",
"F c #DFA876",
"G c #EFB47F",
"H c #CFCF58",
"J c #DFDF5F",
"K c #EFEF65",
"L c #FFFF6C",
"P c #808080",
"I c gray56",
"U c #9F9F9F",
"Y c #AFAFAF",
"T c gray75",
"R c #FFC087",
"E c gray81",
"W c #DFDFDF",
"Q c #EFEFEF",
"! c white",
"~ c None",
/* pixels */
"~~~~~~~~~~~~~~~~~~~~~~~~~~~~~~~~~~~~~~~~~~~~~~~~~~~~~~~~~~~~~~~~~~~~~~~~~~~~~~~~~~~~~~~~~~~~~~~~~~~~~~~~~~~~~~",
"~~~~~~~~~~~~~~~~~~~~~~~~~~~~~~~~~~~~~~~~~~~~                   ~~~~~~~~~~~~~~~~~~~~~~~~~~~~~~~~~~~~~~~~~~~~~~~",
"~~~~~~~~~~~~~~~~~~~~~~~~~~~~~~~~~~~~~~~                             ~~~~~~~~~~~~~~~~~~~~~~~~~~~~~~~~~~~~~~~~~~",
"~~~~~~~~~~~~~~~~~~~~~~~~~~~~~~~~~~~~                                  ~~~~~~~~~~~~~~~~~~~~~~~~~~~~~~~~~~~~~~~~",
"~~~~~~~~~~~~~~~~~~~~~~~~~~~~~~~~~~                                      ~~~~~~~~~~~~~~~~~~~~~~~~~~~~~~~~~~~~~~",
"~~~~~~~~~~~~~~~~~~~~~~~~~~~~~~~~~          X=9qttttttq999=  :>@           ~~~~~~~~~~~~~~~~~~~~~~~~~~~~~~~~~~~~",
"~~~~~~~~~~~~~~~~~~~~~~~~~~~~~~~~       X:0ybbbbbbbbbbbbbbbqabbbbyq=X        ~~~~~~~~~~~~~~~~~~~~~~~~~~~~~~~~~~",
"~~~~~~~~~~~~~~~~~~~~~~~~~~~~~~~      Oqbbbbbbbbbbbbbbbbbbbbbbbbbbbba9X        ~~~~~~~~~~~~~~~~~~~~~~~~~~~~~~~~",
"~~~~~~~~~~~~~~~~~~~~~~~~~~~~~~      >bbbbbbbbbbbbbbbbbbbbbbbbbbbbbbbba:        ~~~~~~~~~~~~~~~~~~~~~~~~~~~~~~~",
"~~~~~~~~~~~~~~~~~~~~~~~~~~~~~~     0bbbbbbbbbbbbbbbbbbbbbbbbbbbbbbbbbbbwX       ~~~~~~~~~~~~~~~~~~~~~~~~~~~~~~",
"~~~~~~~~~~~~~~~~~~~~~~~~~~~~~     9bbbbbbbbbbbbbbbbbbbbbbbbbbbbbbbbbbbbba0-      ~~~~~~~~~~~~~~~~~~~~~~~~~~~~~",
"~~~~~~~~~~~~~~~~~~~~~~~~~~~~     :bbbbbbbbbbbbbbbbbbbbbbbbbbbbbbbbbbbbbbbbbyX     ~~~~~~~~~~~~~~~~~~~~~~~~~~~~",
"~~~~~~~~~~~~~~~~~~~~~~~~~~~~    @bbbbbbbbbbbbbbbbbbbbbbbbbbbbbbbbbbbbbbbbbbby@     ~~~~~~~~~~~~~~~~~~~~~~~~~~~",
"~~~~~~~~~~~~~~~~~~~~~~~~~~~~    tbbbbbbbbbbbbbbbbbbbbbbbbbbbbbbbbbbbbbbbbbbbba@     ~~~~~~~~~~~~~~~~~~~~~~~~~~",
"~~~~~~~~~~~~~~~~~~~~~~~~~~~~    bbbbbbbbbbbbbbbbbbbbbbbbbbbbbbbbbbbbbbbbbbbbbba@     ~~~~~~~~~~~~~~~~~~~~~~~~~",
"~~~~~~~~~~~~~~~~~~~~~~~~~~~~    tbbbbbbbbbbbbbbbbbbbbbbbbbbbbbbbbbbbbbbbbbbbbbba@     ~~~~~~~~~~~~~~~~~~~~~~~~",
"~~~~~~~~~~~~~~~~~~~~~~~~~~~~     qbbbbbbbbbbbbbbbbbbbbbbbbbbbbbbbbbbbbbbbbbbbbbba-     ~~~~~~~~~~~~~~~~~~~~~~~",
"~~~~~~~~~~~~~~~~~~~~~~~~~~~~     Xybbbbbbbbbbbbbbbbbbbbbbbbbbbbbbbbbbbbbbbbbbbbbba@    ~~~~~~~~~~~~~~~~~~~~~~~",
"~~~~~~~~~~~~~~~~~~~~~~~~~~~~~      @==>90tabbbbbbbbbbbbbbbbbbbbbbbbbbbbbbbbbbbbbbby     ~~~~~~~~~~~~~~~~~~~~~~",
"~~~~~~~~~~~~~~~~~~~~~~~~~~~~~              O-0tbbbbbbbbbbbbbbbbbbbbbbbbbbbbbbbbbbbb:    ~~~~~~~~~~~~~~~~~~~~~~",
"~~~~~~~~~~~~~~~~~~~~~~~~~~~~      eeee          X:ybbbbbbbbbbbbbbbbbbbbbbbbbbbbbbbbt     ~~~~~~~~~~~~~~~~~~~~~",
"~~~~~~~~~~~~~~~~~~~~~~~~~~~      MRRRRRRFCne+      =tbbbbbbbbbbbbbbbbbbbbbbbbbbbbbbb=    ~~~~~~~~~~~~~~~~~~~~~",
"~~~~~~~~~~~~~~~~~~~~~~~~~~      MRRRRRRRRRRRRDMne    -ubbbbbbbbbbbbbbbbbbbbbbbbbbbbbu     ~~~~~~~~~~~~~~~~~~~~",
"~~~~~~~~~~~~~~~~~~~~~~~~~~     MRRRRRRRRRRRRRRRRRFs    :abbbbbbbbbbbbbbbbbbbbbbbbbbbb:    ~~~~~~~~~~~~~~~~~~~~",
"~~~~~~~~~~~~~~~~~~~~~~~~~     mRRRRRRRRRRRRRRRRRRRRSe   X9bbbbbbbbbbbbbbbbbbbbbbbbbbbu     ~~~~~~~~~~~~~~~~~~~",
"~~~~~~~~~~~~~~~~~~~~~~~~     sRRRRRRRRRRRRRRRRRRRRRRRS<   Otbbbbbbbbbbbbbbbbbbbbbbbbbb=    ~~~~~~~~~~~~~~~~~~~",
"~~~~~~~~~~~~~~~~~~~~~~~~    <GRRRRRRRRRRRRRRRRRRRRRRRRRM+   -ubbbbbbbbbbbbbbbbbbbbbbbbq    ~~~~~~~~~~~~~~~~~~~",
"~~~~~~~~~~~~~~~~~~~~~~~     DRRRRRRRRRRRRRRRRRRRRRRRRRRRGn    9abbbbbbbbbbbbbbbbbbbbbbbO    ~~~~~~~~~~~~~~~~~~",
"~~~~~~~~~~~~~~~~~~~~~~~    +dGRRRRRRRRRRRRRRRRRRRRRRRRRRRRFe   Xqbbbbbbbbbbbbbbbbbbbbbb0    ~~~~~~~~~~~~~~~~~~",
"~~~~~~~~~~~~~~~~~~~~~~       +nRRRRRRRRRRRRRRRRRRRRRRRRRRRRRS;   :bbbbbbbbbbbbbbbbbbbbbu    ~~~~~~~~~~~~~~~~~~",
"~~~~~~~~~~~~~~~~~~~~~~    e;   ;sFRRRRRRRRRRRRRRRRRRRRRRRRRRRRn+  :bbbbbbbbbbbbbbbbbbbbbO    ~~~~~~~~~~~~~~~~~",
"~~~~~~~~~~~~~~~~~~~~~    +GG<     ;rMDRRRRRRRRRRRRRRRRRRRRRRRRRD<  :bbbbbbbbbbbbbbbbbbbb=    ~~~~~~~~~~~~~~~~~",
"~~~~~~~~~~~~~~~~~~~~~    sM+          ;dDRRRRRRRRRRRRRRRRRRRRRRRG<  qbbbbbbbbbbbbbbbbbbb=    ~~~~~~~~~~~~~~~~~",
"~~~~~~~~~~~~~~~~~~~~~    +   7zPPvz      ;nRRRRRRRRRRRRRRRRRRRRRRD+ Xabbbbbbbbbbbbbbbbbb=    ~~~~~~~~~~~~~~~~~",
"~~~~~~~~~~~~~~~~~~~~       *P!!!!!!QUz     SRRRRRRRRRRRRRRRRRRRRRRm  >bbbbbbbbbbbbbbbbbb9    ~~~~~~~~~~~~~~~~~",
"~~~~~~~~~~~~~~~~~~~~      PQ!!!!!!!!!!T8  ;GRRRRRRRRRRRRRRRRRRRRRRR<  ybbbbbbbbbbbbbbbbb0    ~~~~~~~~~~~~~~~~~",
"~~~~~~~~~~~~~~~~~~~~     U!!!!!!!!!!!!!Q7 +GRRRRRRRRRRRRRRRRRRRRRRRS  @bbbbbbbbbbbbbbbbbt    ~~~~~~~~~~~~~~~~~",
"~~~~~~~~~~~~~~~~~~~~    x!!!!!!!!!!!!!!!U  mRRRRRRRRRRRRRRRRRRRRRRRRs  9bbbbbbbbbbbbbbbbw    ~~~~~~~~~~~~~~~~~",
"~~~~~~~~~~~~~~~~~~~~    W!!!!!!!!!!!!!!!!* eRRRRRRRRRRRRRRRRRRRRRRRRG+ Xubbbbbbbbbbbbbbb9    ~~~~~~~~~~~~~~~~~",
"~~~~~~~~~~~~~~~~~~~    8!!!!!!!!!!!!!!!!!c +RRRRRRRRRRRRRRRRRRRRRRRRRC  :bbbbbbbbbbbbbbbw    ~~~~~~~~~~~~~~~~~",
"~~~~~~~~~~~~~~~~~~~    PU77vQ!!!!!!!!!!!!P  RRRRRRRRRRRRRRRRRRRRRRRRRRe Xubbbbbbbbbbbbbbt    ~~~~~~~~~~~~~~~~~",
"~~~~~~~~~~~~~~~~~~~    U    8!!!!!!!!!!!!P  RRRRRRRRRRRRRRRRRRRRRRRRRRM  :bbbbbbbbbbbbbb9    ~~~~~~~~~~~~~~~~~",
"~~~~~~~~~~~~~~~~~~~    P     !!!!!!!!!!!!P  RRRRRRRRRRRRRRRRRRRRRRRRRRR< Xabbbbbbbbbbbbb9    ~~~~~~~~~~~~~~~~~",
"~~~~~~~~~~~~~~~~~~     U*   z!!!!!!!!!!!!P  RRRRRRRRRRRRRRRRRRRRRRRRRRRM  :bbbbbbbbbbbbb-    ~~~~~~~~~~~~~~~~~",
"~~~~~~~~~~~~~~~~~      PT  zQ!!!!!!!!!!!!z ;RRRRRRRRRRRRRRRRRRRRRRRRRRRRe  ubbbbbbbbbbbb=    ~~~~~~~~~~~~~~~~~",
"~~~~~~~~~~~~~~~~~      8!WE!!!!!!!!!!!!!!7 eRRRRRRRRRRRRRRRRRRRRRRRRRRRRS  :bbbbbbbbbbbb    ~~~~~~~~~~~~~~~~~~",
"~~~~~~~~~~~~~~~~     <  E!!!!!!!!!!!!!!!T  nRRRRRRRRRRRRRRRRRRRRRRRRRRRRRe  ubbbbbbbbbbu    ~~~~~~~~~~~~~~~~~~",
"~~~~~~~~~~~~~~~~    sD  z!!!!!!!!!!!!!!!8  FRRRRRRRRRRRRRRRRRRRRDFRRRRRRRS  :bbbbbbbbbb9    ~~~~~~~~~~~~~~~~~~",
"~~~~~~~~~~~~~~~~    CRr  c!!!!!!!!!!!!!P  sRRRRRRRRRRRRRRRRRRM<    rSRRRRRe  ubbbbbbbbb:    ~~~~~~~~~~~~~~~~~~",
"~~~~~~~~~~~~~~~~    rCG;  zW!!!!!!!!!!U  +GRRRRRRRRRRRRRRRRRn        MRRRRS  :bbbbbbbba     ~~~~~~~~~~~~~~~~~~",
"~~~~~~~~~~~~~~~~           *PW!!!!!!Wx  +DRRRRRRRRRRRRRRRRRRs +dMms  +FRRRRe  ubbbbbbbw    ~~~~~~~~~~~~~~~~~~~",
"~~~~~~~~~~~~~~~~              8vPPPz   +DRRRRRRRRRRRRRRRRRRRGSGRRRRM  sRRRRC  9bbbbbbb:    ~~~~~~~~~~~~~~~~~~~",
"~~~~~~~~~~~~~~~~~        eM;          eFRRRRRRRRRRRRRRRRRRRRRRRRRRRRe +RRRRR; ObbbbbbbX    ~~~~~~~~~~~~~~~~~~~",
"~~~~~~~~~~~~~~~~~~~      <RRDd<    ;sSRRRRRRRRRRRRRRRRRRRRRRRRRRRRRRn  RRRRRn  qbbbbbq    ~~~~~~~~~~~~~~~~~~~~",
"~~~~~~~~~~~~~~~~~~~~~     SRRRRRRRRRRRRRRRRRRRRRRRRRRRRRRRRRRRRRRRRRd  RRRRRG  :bbbbaO    ~~~~~~~~~~~~~~~~~~~~",
"~~~~~~~~~~~~~~~~~~~~~~    eRRRRRRRRRRRRRRRRRRRRRRRRRRRRRRRRRRRRRRRRRe <RRRRRRe =bbbb:     ~~~~~~~~~~~~~~~~~~~~",
"~~~~~~~~~~~~~~~~~~~~~~     MRRRRRRRRRRRRRRRRRRRRRRRRRRRRRRRRRRRRRRRD  rRRRRRRe =bbb0     ~~~~~~~~~~~~~~~~~~~~~",
"~~~~~~~~~~~~~~~~~~~~~~~    +GRRRRRRRRRRRRRRRRRRRRRRRRRRRRRR< sFRRGn+  CRRRRRRs Xbbq     ~~~~~~~~~~~~~~~~~~~~~~",
"~~~~~~~~~~~~~~~~~~~~~~~     rRRRRRRRRRRRRRRRRRRRRRRRRRRRRRR+   ss    sRRRRRRRn  9wX     ~~~~~~~~~~~~~~~~~~~~~~",
"~~~~~~~~~~~~~~~~~~~~~~~~     smeeesFRRRRRRRRRRRRRRRRRRRRRRRS;      ;MRRRRRRRRF+        ~~~~~~~~~~~~~~~~~~~~~~~",
"~~~~~~~~~~~~~~~~~~~~~~~~~           sFRRRRRRRRRRRRRRRRRRRRRRRM<  rMRRRRRRRRRRD+       ~~~~~~~~~~~~~~~~~~~~~~~~",
"~~~~~~~~~~~~~~~~~~~~~~~~~      +e<    dRRRRRRRRRRRRRRRRRRRRRRRRRRRRRRRRRRRRRD+       ~~~~~~~~~~~~~~~~~~~~~~~~~",
"~~~~~~~~~~~~~~~~~~~~~~~~~~     +DRSe  eRRRRRRRRRRRRRRRRRRRRRRRRRRRRRRRRRRRRD+       ~~~~~~~~~~~~~~~~~~~~~~~~~~",
"~~~~~~~~~~~~~~~~~~~~~~~~~~~      MRRSnDRRRRRRRRRRRRRRRRRRRRRRRRRRRRRRRRRRRS+     ~~~~~~~~~~~~~~~~~~~~~~~~~~~~~",
"~~~~~~~~~~~~~~~~~~~~~~~~~~~~      sGRRRRRRRRRRRRRRRRRRRRRRRRRRRRRRRRRRRRRn      ~~~~~~~~~~~~~~~~~~~~~~~~~~~~~~",
"~~~~~~~~~~~~~~~~~~~~~~~~~~~~~      ;SRRRRRRRRRRRRRRRRRRRRRRRRRRRRRRRRRRFe      ~~~~~~~~~~~~~~~~~~~~~~~~~~~~~~~",
"~~~~~~~~~~~~~~~~~~~~~~~~~~~~~~       eSRRRRRRRRRRRRRRRRRRRRRRRRRRRRRRGn       ~~~~~~~~~~~~~~~~~~~~~~~~~~~~~~~~",
"~~~~~~~~~~~~~~~~~~~~~~~~~~~~~~~        eMRRRRRRRRRRRRRRRRRRRRRRRRRRFn+       ~~~~~~~~~~~~~~~~~~~~~~~~~~~~~~~~~",
"~~~~~~~~~~~~~~~~~~~~~~~~~~~~~~~~~        +sCGRRRRRRRRRRRRRRRRRRRRCr        ~~~~~~~~~~~~~~~~~~~~~~~~~~~~~~~~~~~",
"~~~~~~~~~~~~~~~~~~~~~~~~~~~~~~~~~~           <dMDRRRRRRRRRRRGSnr     ,     ~~~~~~~~~~~~~~~~~~~~~~~~~~~~~~~~~~~",
"~~~~~~~~~~~~~~~~~~~~~~~~~~~~~~~~~~~~              ;eeeddeee+       pZL1    ~~~~~~~~~~~~~~~~~~~~~~~~~~~~~~~~~~~",
"~~~~~~~~~~~~~~~~~~~~~~~~~~~~~~~~~~~~~~    #  ,                 #pVKLLLN    ~~~~~~~~~~~~~~~~~~~~~~~~~~~~~~~~~~~",
"~~~~~~~~~~~~~~~~~~~~~~~~~~~~~~~~~~~~~~      #LLAVNpiii#,i   NZJLLLLLLLZ    ~~~~~~~~~~~~~~~~~~~~~~~~~~~~~~~~~~~",
"~~~~~~~~~~~~~~~~~~~~~~~~~~~~~~~~~~~~~~      pLLLLLLLLLLLH  fLLLLLLLLLLH    ~~~~~~~~~~~~~~~~~~~~~~~~~~~~~~~~~~~",
"~~~~~~~~~~~~~~~~~~~~~~~~~~~~~~~~~~~~~~      VLLLLLLLLLLLB  JLLLLLLLLLLL#   ~~~~~~~~~~~~~~~~~~~~~~~~~~~~~~~~~~~",
"~~~~~~~~~~~~~~~~~~~~~~~~~~~~~~~~~~~~~~      VKLLLLLLLLLLg  LLLLLLLLLLLLi    ~~~~~~~~~~~~~~~~~~~~~~~~~~~~~~~~~~",
"~~~~~~~~~~~~~~~~~~~~~~~~~~~~~~~~~~~~~~       #fHLLLLLLLK# 1LLLLLLLLLLLLN    ~~~~~~~~~~~~~~~~~~~~~~~~~~~~~~~~~~",
"~~~~~~~~~~~~~~~~~~~~~~~~~~~~~~~~~~~~~~    ,#    iVLLLLLB  VLLLLLLLLLLLLZ    ~~~~~~~~~~~~~~~~~~~~~~~~~~~~~~~~~~",
"~~~~~~~~~~~~~~~~~~~~~~~~~~~~~~~~~~~~~~    NLV#    ,NKLLN  LLLLLLLLLLLLLJ    ~~~~~~~~~~~~~~~~~~~~~~~~~~~~~~~~~~",
"~~~~~~~~~~~~~~~~~~~~~~~~~~~~~~~~~~~~~~    NLA  ;     fH, ,LLLLLLLLLLLLLL    ~~~~~~~~~~~~~~~~~~~~~~~~~~~~~~~~~~",
"~~~~~~~~~~~~~~~~~~~~~~~~~~~~~~~~~~~~~~    NLp  DGm       gLLLLLLLLLLLLLL     ~~~~~~~~~~~~~~~~~~~~~~~~~~~~~~~~~",
"~~~~~~~~~~~~~~~~~~~~~~~~~~~~~~~~~~~~~~    pJ  rRRC  #    BLLLLLLLLLLKAZV       ~~~~~~~~~~~~~~~~~~~~~~~~~~~~~~~",
"~~~~~~~~~~~~~~~~~~~~~~~~~~~~~~~~~~~~~~    ,1  SRRe  1,   1iiiiiiii1             ~~~~~~~~~~~~~~~~~~~~~~~~~~~~~~",
"~~~~~~~~~~~~~~~~~~~~~~~~~~~~~~~~~~~~~~       eRRF                         ;      ~~~~~~~~~~~~~~~~~~~~~~~~~~~~~",
"~~~~~~~~~~~~~~~~~~~~~~~~~~~~~~~~~~~~~       +FRR<   $%%%%%%%%%%%%%%   +DMSGM<    ~~~~~~~~~~~~~~~~~~~~~~~~~~~~~",
"~~~~~~~~~~~~~~~~~~~~~~~~~~~~~~~~~~~~        MRRC  &llllllllllllllll$   DRRRRC     ~~~~~~~~~~~~~~~~~~~~~~~~~~~~",
"~~~~~~~~~~~~~~~~~~~~~~~~~~~~~~~~~~~~      ;CRRF+  jllllllllllllllll4   mFRRC     ~~~~~~~~~~~~~~~~~~~~~~~~~~~~~",
"~~~~~~~~~~~~~~~~~~~~~~~~~~~~~~~~~~~~      sRRRd  5lllllllllllllllll2     nDe     ~~~~~~~~~~~~~~~~~~~~~~~~~~~~~",
"~~~~~~~~~~~~~~~~~~~~~~~~~~~~~~~~~~~~      rRRRe .llllllllllllllllll.            ~~~~~~~~~~~~~~~~~~~~~~~~~~~~~~",
"~~~~~~~~~~~~~~~~~~~~~~~~~~~~~~~~~~~~~     nRRRe  2llllllllllllllllh            ~~~~~~~~~~~~~~~~~~~~~~~~~~~~~~~",
"~~~~~~~~~~~~~~~~~~~~~~~~~~~~~~~~~~~       rRRRe   %kllllllllllllllk            ~~~~~~~~~~~~~~~~~~~~~~~~~~~~~~~",
"~~~~~~~~~~~~~~~~~~~~~~~~~~~~~~~~~~           r;    $hllllllllllllll%          ~~~~~~~~~~~~~~~~~~~~~~~~~~~~~~~~",
"~~~~~~~~~~~~~~~~~~~~~~~~~~~~~~~~~               3%  .6lllllllllllllj.       ~~~~~~~~~~~~~~~~~~~~~~~~~~~~~~~~~~",
"~~~~~~~~~~~~~~~~~~~~~~~~~~~~~~~~            o  &ll2   6lllllllllllllh.       ~~~~~~~~~~~~~~~~~~~~~~~~~~~~~~~~~",
"~~~~~~~~~~~~~~~~~~~~~~~~~~~~~~~~    7zz8    .%o6kll3   2klllllllllllljo       ~~~~~~~~~~~~~~~~~~~~~~~~~~~~~~~~",
"~~~~~~~~~~~~~~~~~~~~~~~~~~~~~~~~    *Q!!EP*      .&.    ohllllllllllllk$       ~~~~~~~~~~~~~~~~~~~~~~~~~~~~~~~",
"~~~~~~~~~~~~~~~~~~~~~~~~~~~~~~~~     x!!!!QI8            .hllllllllllk3         ~~~~~~~~~~~~~~~~~~~~~~~~~~~~~~",
"~~~~~~~~~~~~~~~~~~~~~~~~~~~~~~~~~     c!!!!!!!EYP7         4llllllllj$    z*     ~~~~~~~~~~~~~~~~~~~~~~~~~~~~~",
"~~~~~~~~~~~~~~~~~~~~~~~~~~~~~~~~~~     8E!!!!!!!!*          %jlllllh.  8Y!!E*    ~~~~~~~~~~~~~~~~~~~~~~~~~~~~~",
"~~~~~~~~~~~~~~~~~~~~~~~~~~~~~~~~~~       cW!!!!!T    ~~      .hllk4.  cQ!!E8     ~~~~~~~~~~~~~~~~~~~~~~~~~~~~~",
"~~~~~~~~~~~~~~~~~~~~~~~~~~~~~~~~~~~        8zPPIc    ~~~      .64.   c!!!Q*      ~~~~~~~~~~~~~~~~~~~~~~~~~~~~~",
"~~~~~~~~~~~~~~~~~~~~~~~~~~~~~~~~~~~~~                ~~~~~         7Y!!!Q8       ~~~~~~~~~~~~~~~~~~~~~~~~~~~~~",
"~~~~~~~~~~~~~~~~~~~~~~~~~~~~~~~~~~~~~~               ~~~~~~      7PQ!!!P*      ~~~~~~~~~~~~~~~~~~~~~~~~~~~~~~~",
"~~~~~~~~~~~~~~~~~~~~~~~~~~~~~~~~~~~~~~~~            ~~~~~~~     PQ!!!Qx      ~~~~~~~~~~~~~~~~~~~~~~~~~~~~~~~~~",
"~~~~~~~~~~~~~~~~~~~~~~~~~~~~~~~~~~~~~~~~~~~        ~~~~~~~~    z!!!WP*      ~~~~~~~~~~~~~~~~~~~~~~~~~~~~~~~~~~",
"~~~~~~~~~~~~~~~~~~~~~~~~~~~~~~~~~~~~~~~~~~~~~~~~~~~~~~~~~~     Pzz8        ~~~~~~~~~~~~~~~~~~~~~~~~~~~~~~~~~~~",
"~~~~~~~~~~~~~~~~~~~~~~~~~~~~~~~~~~~~~~~~~~~~~~~~~~~~~~~~~~~              ~~~~~~~~~~~~~~~~~~~~~~~~~~~~~~~~~~~~~",
"~~~~~~~~~~~~~~~~~~~~~~~~~~~~~~~~~~~~~~~~~~~~~~~~~~~~~~~~~~~             ~~~~~~~~~~~~~~~~~~~~~~~~~~~~~~~~~~~~~~",
"~~~~~~~~~~~~~~~~~~~~~~~~~~~~~~~~~~~~~~~~~~~~~~~~~~~~~~~~~~~~          ~~~~~~~~~~~~~~~~~~~~~~~~~~~~~~~~~~~~~~~~",
"~~~~~~~~~~~~~~~~~~~~~~~~~~~~~~~~~~~~~~~~~~~~~~~~~~~~~~~~~~~~~      ~~~~~~~~~~~~~~~~~~~~~~~~~~~~~~~~~~~~~~~~~~~"
};
