/* XPM */
static char *result[] = {
/* columns rows colors chars-per-pixel */
"110 110 78 1 ",
"  c black",
". c #030406",
"X c #080403",
"o c #100906",
"O c #100C08",
"+ c #180D08",
"@ c #101007",
"# c #080D13",
"$ c #0A1119",
"% c #0D151F",
"& c #101010",
"* c #20120B",
"= c #28160E",
"- c #201811",
"; c #301A11",
": c #381F13",
"> c #20200E",
", c #302419",
"< c #303014",
"1 c #121E2C",
"2 c #142232",
"3 c #172638",
"4 c #202020",
"5 c gray19",
"6 c #412316",
"7 c #492719",
"8 c #512C1C",
"9 c #59301E",
"0 c #403022",
"q c #503C2A",
"w c #613521",
"e c #693924",
"r c #713D27",
"t c #40401B",
"y c #505022",
"u c #794229",
"i c #604833",
"p c #70543B",
"a c #606029",
"s c #70702F",
"d c #1C2F45",
"f c #1E334B",
"g c #233C58",
"h c #26405E",
"j c #284464",
"k c gray25",
"l c #505050",
"z c #606060",
"x c gray44",
"c c #81462C",
"v c #806044",
"b c #8F6C4C",
"n c #9F7854",
"m c #808036",
"M c #8F8F3D",
"N c #9F9F44",
"B c #AF845D",
"V c #AFAF4A",
"C c #BFBF51",
"Z c #BF9065",
"A c #CF9C6E",
"S c #DFA876",
"D c #EFB47F",
"F c #CFCF58",
"G c #DFDF5F",
"H c #EFEF65",
"J c #FFFF6C",
"K c #808080",
"L c gray56",
"P c #9F9F9F",
"I c #AFAFAF",
"U c gray75",
"Y c #FFC087",
"T c gray81",
"R c #DFDFDF",
"E c #EFEFEF",
"W c white",
"Q c None",
/* pixels */
"QQQQQQQQQQQQQQQQQQQQQQQQQQQQQQQQQQQQQQQQQQ                       QQQQQQQQQQQQQQQQQQQQQQQQQQQQQQQQQQQQQQQQQQQQQ",
"QQQQQQQQQQQQQQQQQQQQQQQQQQQQQQQQQQQQQQQ                              QQQQQQQQQQQQQQQQQQQQQQQQQQQQQQQQQQQQQQQQQ",
"QQQQQQQQQQQQQQQQQQQQQQQQQQQQQQQQQQQQQ                                   QQQQQQQQQQQQQQQQQQQQQQQQQQQQQQQQQQQQQQ",
"QQQQQQQQQQQQQQQQQQQQQQQQQQQQQQQQQQQ            +=668www66*o               QQQQQQQQQQQQQQQQQQQQQQQQQQQQQQQQQQQQ",
"QQQQQQQQQQQQQQQQQQQQQQQQQQQQQQQQQ          *7wccccccccccccccw8;+             QQQQQQQQQQQQQQQQQQQQQQQQQQQQQQQQQ",
"QQQQQQQQQQQQQQQQQQQQQQQQQQQQQQQ         *8ucccccccccccccccccccccu9:o           QQQQQQQQQQQQQQQQQQQQQQQQQQQQQQQ",
"QQQQQQQQQQQQQQQQQQQQQQQQQQQQQQ        ;ecccccccccccccccccccccccccccce6o         QQQQQQQQQQQQQQQQQQQQQQQQQQQQQQ",
"QQQQQQQQQQQQQQQQQQQQQQQQQQQQQ       =rccccccccccccccccccccccccccccccccce;        QQQQQQQQQQQQQQQQQQQQQQQQQQQQQ",
"QQQQQQQQQQQQQQQQQQQQQQQQQQQQ      o9cccccccccccccccccccccccccccccccccccccu6X       QQQQQQQQQQQQQQQQQQQQQQQQQQQ",
"QQQQQQQQQQQQQQQQQQQQQQQQQQQ      =uccccccccccccccccccccccccccccccccccccccccu:       QQQQQQQQQQQQQQQQQQQQQQQQQQ",
"QQQQQQQQQQQQQQQQQQQQQQQQQQ      6ccccccccccccccccccccccccccccccccccccccccccccwX      QQQQQQQQQQQQQQQQQQQQQQQQQ",
"QQQQQQQQQQQQQQQQQQQQQQQQQ      8ccccccccccccccccccccccccccccccccccccccccccccccu+      QQQQQQQQQQQQQQQQQQQQQQQQ",
"QQQQQQQQQQQQQQQQQQQQQQQQ      8ccccccccccccccccccccccccccccccccccccccccccccccccc;      QQQQQQQQQQQQQQQQQQQQQQQ",
"QQQQQQQQQQQQQQQQQQQQQQQQ     7ccccccccccccccccccccccccccccccccccccccccccccccccccc;     QQQQQQQQQQQQQQQQQQQQQQQ",
"QQQQQQQQQQQQQQQQQQQQQQQ     =cccccccccccccccccuw6;*+    o**;669ucccccccccccccccccc;     QQQQQQQQQQQQQQQQQQQQQQ",
"QQQQQQQQQQQQQQQQQQQQQQQ    ouccccccccccccccr7*                  o:9cccccccccccccccu+     QQQQQQQQQQQQQQQQQQQQQ",
"QQQQQQQQQQQQQQQQQQQQQQ     9ccccccccccccc8+        000000-         X;ecccccccccccccrX    QQQQQQQQQQQQQQQQQQQQQ",
"QQQQQQQQQQQQQQQQQQQQQQ    *cccccccccccc6o     0vZDYYYYYYYYYYSZbqO     *wcccccccccccc9     QQQQQQQQQQQQQQQQQQQQ",
"QQQQQQQQQQQQQQQQQQQQQ     9cccccccccc9o    0nDYYYYYYYYYYYYYYYYYYYApO    *rccccccccccc=     QQQQQQQQQQQQQQQQQQQ",
"QQQQQQQQQQQQQQQQQQQQQ    occcccccccr*    iSYYYYYYYYYYYYYYYYYYYYYYYYYn,    :ucccccccccr     QQQQQQQQQQQQQQQQQQQ",
"QQQQQQQQQQQQQQQQQQQQ     8cccccccc9X   qSYYYYYYYYYYYYYYYYYYYYYYYYYYYYYB-   X9ccccccccc6    QQQQQQQQQQQQQQQQQQQ",
"QQQQQQQQQQQQQQQQQQQQ    Xuccccccc:   -ZYYYYYYYYYYYYYYYYYYYYYYYYYYYYYYYYYbO   =ucccccccu     QQQQQQQQQQQQQQQQQQ",
"QQQQQQQQQQQQQQQQQQQQ    ;ccccccc;   iDYYYYYYYYYYYYYYYYYYYYYYYYYYYYYYYYYYYDi   Xeccccccc;    QQQQQQQQQQQQQQQQQQ",
"QQQQQQQQQQQQQQQQQQQ     ecccccu+   nYYYYYYYYYYYYYYYYYYYYYYYYYYYYYYYYYYYYYYYZ-  Xwccccccw     QQQQQQQQQQQQQQQQQ",
"QQQQQQQQQQQQQQQQQQQ    +cccccc=  OAYYYYYYYYYYYYYYYYYYYYYYYYYYYYYYYYYYYYYYYYYD0   wcccccco    QQQQQQQQQQQQQQQQQ",
"QQQQQQQQQQQQQQQQQQQ    7ccccc;  OAYYYYYYYYYYYYYYYYYYYYYYYYYYYYYYYYYYYYYYYYYYYYi  Xeccccc:    QQQQQQQQQQQQQQQQQ",
"QQQQQQQQQQQQQQQQQQ     rcccc8  OAYYYYYYYYYYYYYYYYYYYYYYYYYYYYYYYYYYYYYYYYYYYYYYi  oucccc9    QQQQQQQQQQQQQQQQQ",
"QQQQQQQQQQQQQQQQQQ    +cccce   nYYYYYYYYYYYYYYYYYYYYYYYYYYYYYYYYYYYYYYYYYYYYYYYY,  =ccccc     QQQQQQQQQQQQQQQQ",
"QQQQQQQQQQQQQQQQQQ    7cccc+  vYYYYYYYYYYYYYYYYYYYYYYYYYYYYYYYYYYYYYYYYYYYYYYYYYDO  9cccc*    QQQQQQQQQQQQQQQQ",
"QQQQQQQQQQQQQQQQQ     rccc6  ,YYYYYYYYYYYYYYYYYYYYYYYYYYYYYYYYYYYYYYYYYYYYYYYYYYYB  occcc6    QQQQQQQQQQQQQQQQ",
"QQQQQQQQQQQQQQQQQ    +cccuX  AYYYYYYYYYYYYYYYYYYYYYYYYYYYYYYYYYYYYYYYYYYYYYYYYYYYY0  8cccw    QQQQQQQQQQQQQQQQ",
"QQQQQQQQQQQQQQQQQ    6ccc6  pYYYYYYYYYYYYYYYYZDYYYYYYYYYYYYYYYYYYYYYYYYYYYYYYYYYYYS  occcu     QQQQQQQQQQQQQQQ",
"QQQQQQQQQQQQQQQQQ    wccuX ODYYYYYYYYYYYYYDvO qYYYYYYYYYYYYYYYYSO qAYYYYYYYYYYYYYYYq  9ccco    QQQQQQQQQQQQQQQ",
"QQQQQQQQQQQQQQQQ     ccc8  pYYYYYYYYYYYYSi    0YYYYYYYYYYYYYYYYZ    qBYYYYYYYYYYYYYZ  ;ccc*    QQQQQQQQQQQQQQQ",
"QQQQQQQQQQQQQQQQ    +ccc+  SYYYYYYYYYDb,    OiSYYYYYYYYYYYYYYYYYb-    OivZYYYYYYYYYY- Xccc:    QQQQQQQQQQQQQQQ",
"QQQQQQQQQQQQQQQQ    ;ccr  qYYYYYYYYSi       ,pSYYYYYYYYYYYYYYYYYDp         -vZYYYYYYp  wcc6    QQQQQQQQQQQQQQQ",
"QQQQQQQQQQQQQQQQ    6cc7  nYYYYYYAi            0ZYYYYYYYYYYYYYYbO             OqAYYYB  6cc6    QQQQQQQQQQQQQQQ",
"QQQQQQQQQQQQQQQQ    6cc=  SYYYYD0     5KKKKl&    qDYYYYYYYYYYD,   &xURWTIx4     qYYYD  =cc8    QQQQQQQQQQQQQQQ",
"QQQQQQQQQQQQQQQQ    wcco -YYYYYq    4PWWWWWWWP4   qYYYYYYYYYY0   zEWWWWWWWWIk   bYYYY- +ccw    QQQQQQQQQQQQQQQ",
"QQQQQQQQQQQQQQQQ    8cu  qYYYYYi   KWWWWWWWWWWWP&  nYYYYYYYYv  &TWWWWWWWWWWWWl  iYYYY0  cc9    QQQQQQQQQQQQQQQ",
"QQQQQQQQQQQQQQQQ    6cw  vYYYYY0  xWWWWWWWWWWWWWU  -YYYYYYYDO  TWWWWWWWWWWWWWE&  DYYYi  cc6    QQQQQQQQQQQQQQQ",
"QQQQQQQQQQQQQQQQ    :cw  nYYYYS  4WWWWWWWWWWWWWWWl  ZYYYYYYn  zWWWWWWWWWWWWWWWx  BYYYv  rc6    QQQQQQQQQQQQQQQ",
"QQQQQQQQQQQQQQQQ    +c7  ZYYYYp  PWWWWWWWWWWWWWWWI  vYYYYYYi  TWWWWWWWWWWWWWWWT  vYYYv  wc:    QQQQQQQQQQQQQQQ",
"QQQQQQQQQQQQQQQQ     r6  ZYYYY,  EWWWWEzxWWWWWWWWW  0YYYYYY- &WWWWWEKlPEWWWWWWW  0YYYv  wc*    QQQQQQQQQQQQQQQ",
"QQQQQQQQQQQQQQQQQ    :*  ZYYYY  kWWWWWz  kTWWWWWWW  0YYYYYY  kWWWWWz   &EWWWWWW  0YYYv  ucX    QQQQQQQQQQQQQQQ",
"QQQQQQQQQQQQQQQQQ        ZYYYY  xWWWWE&   5WWWWWWW5 0YYYYYY  kWWWWW     PWWWWWW  0YYYq  cr     QQQQQQQQQQQQQQQ",
"QQQQQQQQQQQQQQQQQ        ZYYYY  KWWWWU     TWWWWWW  0YYYYYY  kWWWWW4    TWWWWWW  0YYY0  +:    QQQQQQQQQQQQQQQQ",
"QQQQQQQQQQQQQQQQQ     -  bYYYY  lWWWWE4   &RWWWWWW  0YYYYYY- 4WWWWWT&  zWWWWWWR  vYYYO        QQQQQQQQQQQQQQQQ",
"QQQQQQQQQQQQQQQQQ    -B  vYYYY- 4WWWWWTkzLRWWWWWWT  vYYYYYYi  TWWWWWUKUWWWWWWWP  vYYS         QQQQQQQQQQQQQQQQ",
"QQQQQQQQQQQQQQQQQ    nY  0YYYYi  UWWWWWWWWWWWWWWWz  nYYYYYYn  zWWWWWWWWWWWWWWWk  AYYB  v,    QQQQQQQQQQQQQQQQQ",
"QQQQQQQQQQQQQQQQ     YY, OYYYYZ  4EWWWWWWWWWWWWWU  OYYYYYYYYO  UWWWWWWWWWWWWWP  0YYYi  AZ     QQQQQQQQQQQQQQQQ",
"QQQQQQQQQQQQQQQQ    0YYp  ZYYYYq  5RWWWWWWWWWWWE4  bZnYYYYYYn  &TWWWWWWWWWWWT&  ZYYY- OYY,    QQQQQQQQQQQQQQQQ",
"QQQQQQQQQQQQQQQQ    -YYB  pYYYYD-  &PWWWWWWWWWT4  0S  bYYYYYYi   KEWWWWWWWWU&  iYYYB  iYYv    QQQQQQQQQQQQQQQQ",
"QQQQQQQQQQQQQQQQ     ZYYO OYYYYYS,   &xUEWWEIz   ,Dn  bYAqvYYYi   &xUWWWWIz   ,DYYYi  BYYv    QQQQQQQQQQQQQQQQ",
"QQQQQQQQQQQQQQQQQ    ,DYi  nYYYYYDp             0DYv  AY0  YYYYbO     &      qDYYYS  -YYY-    QQQQQQQQQQQQQQQQ",
"QQQQQQQQQQQQQQQQQ     OnA  -YYYYYYYSiO        -nYYYv  ZB  -YYYYYSpO        -nYYYYYi  bYDi     QQQQQQQQQQQQQQQQ",
"QQQQQQQQQQQQQQQQQQ          nYYYYYYYYYZvq00qvAYYYYYv  0O  BYYYYYYYYZvq000vBYYYYYYS   pqO     QQQQQQQQQQQQQQQQQ",
"QQQQQQQQQQQQQQQQQQQ         ODYYYYYYYYYYYYYYYYYYYYYS     iYYYYYYYYYYYYYYYYYYYYYYY0           QQQQQQQQQQQQQQQQQ",
"QQQQQQQQQQQQQQQQQQQQ         qYYYYYYYYYYYYYYYYYYYYYYnO OvYYYYYYYYYYYYYYYYYYYYYYYb           QQQQQQQQQQQQQQQQQQ",
"QQQQQQQQQQQQQQQQQQQQQ         nYYYYYYYYYYYYYYYYYYYYYYYYYYYYYYYYYYYYYYYYYYYYYYYYA           QQQQQQQQQQQQQQQQQQQ",
"QQQQQQQQQQQQQQQQQQQQQQQQ      OAYYYYYYYYYYYYYYYYYYYYYYYYYYYYYYYYYYYYYYYYYYYYYYDO        QQQQQQQQQQQQQQQQQQQQQQ",
"QQQQQQQQQQQQQQQQQQQQQQQQQQ     OAYYYYYYYYYYYYYYYYYYYYYYYYYYYYYYYYYYYYYYYYYYYYD,     QQQQQQQQQQQQQQQQQQQQQQQQQQ",
"QQQQQQQQQQQQQQQQQQQQQQQQQQQ     OAYYYYYYYYYYYYYYYYYYYYYYYYYYYYYYYYYYYYYYYYYYD,     QQQQQQQQQQQQQQQQQQQQQQQQQQQ",
"QQQQQQQQQQQQQQQQQQQQQQQQQQQ      OZYYYYYYYYYYYYYYSni0-    O00ivAYYYYYYYYYYYA-     QQQQQQQQQQQQQQQQQQQQQQQQQQQQ",
"QQQQQQQQQQQQQQQQQQQQQQQQQQQ        bYYYYYYYYYYBq                -nYYYYYYYYnO      QQQQQQQQQQQQQQQQQQQQQQQQQQQQ",
"QQQQQQQQQQQQQQQQQQQQQQQQQQ     Na   0SYYYYYYYb       ,0000,      0YYYYYYDq        QQQQQQQQQQQQQQQQQQQQQQQQQQQQ",
"QQQQQQQQQQQQQQQQQQQQQQQQQQ    >JJm    vDYYYYYb  ,vbAYYYYYYYYYZBi0nYYYYYvO   sM     QQQQQQQQQQQQQQQQQQQQQQQQQQQ",
"QQQQQQQQQQQQQQQQQQQQQQQQQQ    mJJJC>   OpSYYYYZAYYYYYYYYYYYYYYYYYYYYDb-   >VJJ>    QQQQQQQQQQQQQQQQQQQQQQQQQQQ",
"QQQQQQQQQQQQQQQQQQQQQQQQQQ    sCGJJJm@    ,bAYYYYYYYYYYYYYYYYYYYYYBiO    yHJJJM    QQQQQQQQQQQQQQQQQQQQQQQQQQQ",
"QQQQQQQQQQQQQQQQQQQQQQQQQQ        ttty       -ibZDYYYYYYYYYYYYZbqO       tJJJJH     QQQQQQQQQQQQQQQQQQQQQQQQQQ",
"QQQQQQQQQQQQQQQQQQQQQQQQQQ              yy         00qvvvi00O       >mG< tJJJJJy    QQQQQQQQQQQQQQQQQQQQQQQQQQ",
"QQQQQQQQQQQQQQQQQQQQQQQQQQ       ,,     FJHNa>                   >sFJJJt  JJJJJC     QQQQQQQQQQQQQQQQQQQQQQQQQ",
"QQQQQQQQQQQQQQQQQQQQQQQQQQQQ     ZYY0   JJJJJJGCmat>       @tymVHJJJJJJs  GJJJJJ     QQQQQQQQQQQQQQQQQQQQQQQQQ",
"QQQQQQQQQQQQQQQQQQQQQQQQQQQQQ    ZYY0  tJJJJJJJJJJJJJJJJJJJJJJJJJJJJJJJm  CJJJJJa    QQQQQQQQQQQQQQQQQQQQQQQQQ",
"QQQQQQQQQQQQQQQQQQQQQQQQQQQQQ    ZYY0  mJJJJJJJJJJJJJJJJJJJJJJJJJJJJJJJm  CJJJJJF    QQQQQQQQQQQQQQQQQQQQQQQQQ",
"QQQQQQQQQQQQQQQQQQQQQQQQQQQQQ    pDY,  mJJJJJJJJJJJJJJJJJJJJJJJJJJJJJJJM  CJJJJJJ     QQQQQQQQQQQQQQQQQQQQQQQQ",
"QQQQQQQQQQQQQQQQQQQQQQQQQQQQQ          NJJJJJJJJJJJJJJJJJJJJJJJJJJJJJJJC  ymmsttt@    QQQQQQQQQQQQQQQQQQQQQQQQ",
"QQQQQQQQQQQQQQQQQQQQQQQQQQQQQ          CJJJJJJJJJJJJJJJJJJJJJJJJJJJJJJJC              QQQQQQQQQQQQQQQQQQQQQQQQ",
"QQQQQQQQQQQQQQQQQQQQQQQQQQQQQQ         CJJJJJJJJJJJJJJJJJJJJJJJJJJJJJJJJ    qvO      QQQQQQQQQQQQQQQQQQQQQQQQQ",
"QQQQQQQQQQQQQQQQQQQQQQQQQQQQQQQ        CJJJJJJJJJJJJJJJJJJJJJJJJJJJJJJJs   OAS       QQQQQQQQQQQQQQQQQQQQQQQQQ",
"QQQQQQQQQQQQQQQQQQQQQQQQQQQQQQQQQQ     CJJJJJJJJJJJJJJJJJJJJJJJJJJJJJJM   qDYYS,    QQQQQQQQQQQQQQQQQQQQQQQQQQ",
"QQQQQQQQQQQQQQQQQQQQQQQQQQQQQQQQQQQ    CJJJJJJJJJJJJJJJJJJJJJJJJJJJJJJ>  nYYYYYZ    QQQQQQQQQQQQQQQQQQQQQQQQQQ",
"QQQQQQQQQQQQQQQQQQQQQQQQQQQQQQQQQQQ    CJJJJJJJJJJJJJJJJJJJJJJJJJJJJJC  iYYYYYYY     QQQQQQQQQQQQQQQQQQQQQQQQQ",
"QQQQQQQQQQQQQQQQQQQQQQQQQQQQQQQQQQQ    MJJJJJJJJJJJJJJJJJJJJJJJJJJJJJV  BYYYYYYY-    QQQQQQQQQQQQQQQQQQQQQQQQQ",
"QQQQQQQQQQQQQQQQQQQQQQQQQQQQQQQQQQQ    mJJJJJJJJJJJJJJJJJJJJJJJJJJJJJm  ZYYYYYYY,    QQQQQQQQQQQQQQQQQQQQQQQQQ",
"QQQQQQQQQQQQQQQQQQQQQQQQQQQQQQQQQQQ    @    @tttymmmmmmmmNCCFHCCCCMmt@  ZYYYYYYS     QQQQQQQQQQQQQQQQQQQQQQQQQ",
"QQQQQQQQQQQQQQQQQQQQQQQQQQQQQQQQQQQ                                     nYYYYYYq    QQQQQQQQQQQQQQQQQQQQQQQQQQ",
"QQQQQQQQQQQQQQQQQQQQQQQQQQQQQQQQQQQ      .%$$$                           vDYYDi     QQQQQQQQQQQQQQQQQQQQQQQQQQ",
"QQQQQQQQQQQQQQQQQQQQQQQQQQQQQQQQQQQQ     .jjjjjjjjj2        2222ffff2      0i-     QQQQQQQQQQQQQQQQQQQQQQQQQQQ",
"QQQQQQQQQQQQQQQQQQQQQQQQQQQQQQQQQQQQQ     jjjjjjjjjf        jjjjjjjj1              QQQQQQQQQQQQQQQQQQQQQQQQQQQ",
"QQQQQQQQQQQQQQQQQQQQQQQQQQQQQQQQQQQQQ     jjjjjjjjjf       #ffjffd2%.             QQQQQQQQQQQQQQQQQQQQQQQQQQQQ",
"QQQQQQQQQQQQQQQQQQQQQQQQQQQQQQQQQQQQQ     jjjjjjjjjf                             QQQQQQQQQQQQQQQQQQQQQQQQQQQQQ",
"QQQQQQQQQQQQQQQQQQQQQQQQQQQQQQQQQQQQQ     jjjjjjjjjf                           QQQQQQQQQQQQQQQQQQQQQQQQQQQQQQQ",
"QQQQQQQQQQQQQQQQQQQQQQQQQQQQQQQQQQQQQ     jjjjjjjjjh       zIKKKKIUWWk    QQQQQQQQQQQQQQQQQQQQQQQQQQQQQQQQQQQQ",
"QQQQQQQQQQQQQQQQQQQQQQQQQQQQQQQQQQQQQQ    gjjjjjjjjh       kWWWWWWWWR     QQQQQQQQQQQQQQQQQQQQQQQQQQQQQQQQQQQQ",
"QQQQQQQQQQQQQQQQQQQQQQQQQQQQQQQQQQQQQQ    fjjjjjjjjd        KWWWWWWWl    QQQQQQQQQQQQQQQQQQQQQQQQQQQQQQQQQQQQQ",
"QQQQQQQQQQQQQQQQQQQQQQQQQQQQQQQQQQQQQQ    fjjjjjjjj2         xEWWWRk     QQQQQQQQQQQQQQQQQQQQQQQQQQQQQQQQQQQQQ",
"QQQQQQQQQQQQQQQQQQQQQQQQQQQQQQQQQQQQQQ    fjjjjjjjjd          4LUL&     QQQQQQQQQQQQQQQQQQQQQQQQQQQQQQQQQQQQQQ",
"QQQQQQQQQQQQQQQQQQQQQQQQQQQQQQQQQQQQQQ    3jjjjjjjjf    Q               QQQQQQQQQQQQQQQQQQQQQQQQQQQQQQQQQQQQQQ",
"QQQQQQQQQQQQQQQQQQQQQQQQQQQQQQQQQQQQQQ    1jjjjjjjjf    QQ             QQQQQQQQQQQQQQQQQQQQQQQQQQQQQQQQQQQQQQQ",
"QQQQQQQQQQQQQQQQQQQQQQQQQQQQQQQQQQQQQQ    #jjjjjjjjg    QQQ          QQQQQQQQQQQQQQQQQQQQQQQQQQQQQQQQQQQQQQQQQ",
"QQQQQQQQQQQQQQQQQQQQQQQQQQQQQQQQQQQQQQ     $$23fff32     QQQQ       QQQQQQQQQQQQQQQQQQQQQQQQQQQQQQQQQQQQQQQQQQ",
"QQQQQQQQQQQQQQQQQQQQQQQQQQQQQQQQQQQQQQ                   QQQQQQQQQQQQQQQQQQQQQQQQQQQQQQQQQQQQQQQQQQQQQQQQQQQQQ",
"QQQQQQQQQQQQQQQQQQQQQQQQQQQQQQQQQQQQQQ    &4             QQQQQQQQQQQQQQQQQQQQQQQQQQQQQQQQQQQQQQQQQQQQQQQQQQQQQ",
"QQQQQQQQQQQQQQQQQQQQQQQQQQQQQQQQQQQQQQ    kWWTUULKUUl    QQQQQQQQQQQQQQQQQQQQQQQQQQQQQQQQQQQQQQQQQQQQQQQQQQQQQ",
"QQQQQQQQQQQQQQQQQQQQQQQQQQQQQQQQQQQQQQ    4EWWWWWWWT&    QQQQQQQQQQQQQQQQQQQQQQQQQQQQQQQQQQQQQQQQQQQQQQQQQQQQQ",
"QQQQQQQQQQQQQQQQQQQQQQQQQQQQQQQQQQQQQQ     5RWWWWEL&     QQQQQQQQQQQQQQQQQQQQQQQQQQQQQQQQQQQQQQQQQQQQQQQQQQQQQ",
"QQQQQQQQQQQQQQQQQQQQQQQQQQQQQQQQQQQQQQQ      lKPK&      QQQQQQQQQQQQQQQQQQQQQQQQQQQQQQQQQQQQQQQQQQQQQQQQQQQQQQ",
"QQQQQQQQQQQQQQQQQQQQQQQQQQQQQQQQQQQQQQQ                QQQQQQQQQQQQQQQQQQQQQQQQQQQQQQQQQQQQQQQQQQQQQQQQQQQQQQQ",
"QQQQQQQQQQQQQQQQQQQQQQQQQQQQQQQQQQQQQQQQ              QQQQQQQQQQQQQQQQQQQQQQQQQQQQQQQQQQQQQQQQQQQQQQQQQQQQQQQQ"
};
