/* XPM */
static char *result[] = {
/* columns rows colors chars-per-pixel */
"110 110 77 1 ",
"  c black",
". c #030406",
"X c #080403",
"o c #05090D",
"O c #100906",
"+ c #100C09",
"@ c #180D08",
"# c #101007",
"$ c #080D13",
"% c #0A1119",
"& c #101010",
"* c #20120B",
"= c #28160E",
"- c #201811",
"; c #301B11",
": c #381F14",
"> c #20200E",
", c #30241A",
"< c #303014",
"1 c #0D1520",
"2 c #0F1A26",
"3 c #142233",
"4 c #172639",
"5 c #192B3F",
"6 c gray19",
"7 c #412417",
"8 c #492819",
"9 c #512C1C",
"0 c #59311F",
"q c #403022",
"w c #503C2B",
"e c #613522",
"r c #693A25",
"t c #713E27",
"y c #40401B",
"u c #505022",
"i c #79432A",
"p c #604833",
"a c #70543C",
"s c #606029",
"d c #707030",
"f c #1C2F45",
"g c #1E334C",
"h c #213752",
"j c #233C58",
"k c #26405F",
"l c #284465",
"z c gray25",
"x c #606060",
"c c #81472D",
"v c #806044",
"b c #8F6C4D",
"n c #9F7855",
"m c #808037",
"M c #8F8F3D",
"N c #9F9F44",
"B c #AF845E",
"V c #AFAF4B",
"C c #BFBF52",
"Z c #BF9066",
"A c #CF9C6F",
"S c #DFA877",
"D c #CFCF59",
"F c #DFDF5F",
"G c #EFEF66",
"H c #FFFF6D",
"J c #808080",
"K c #9F9F9F",
"L c #AFAFAF",
"P c gray75",
"I c #EFB480",
"U c #FFC088",
"Y c gray81",
"T c #DFDFDF",
"R c #EFEFEF",
"E c white",
"W c None",
/* pixels */
"WWWWWWWWWWWWWWWWWWWWWWWWWWWWWWWWWWWWWWWWWWW                         WWWWWWWWWWWWWWWWWWWWWWWWWWWWWWWWWWWWWWWWWW",
"WWWWWWWWWWWWWWWWWWWWWWWWWWWWWWWWWWWWWWWW                               WWWWWWWWWWWWWWWWWWWWWWWWWWWWWWWWWWWWWWW",
"WWWWWWWWWWWWWWWWWWWWWWWWWWWWWWWWWWWWWW              O***O                 WWWWWWWWWWWWWWWWWWWWWWWWWWWWWWWWWWWW",
"WWWWWWWWWWWWWWWWWWWWWWWWWWWWWWWWWWWW          @;8eicccccccte8;*             WWWWWWWWWWWWWWWWWWWWWWWWWWWWWWWWWW",
"WWWWWWWWWWWWWWWWWWWWWWWWWWWWWWWWWW         =9tcccccccccccccccccce8=X           WWWWWWWWWWWWWWWWWWWWWWWWWWWWWWW",
"WWWWWWWWWWWWWWWWWWWWWWWWWWWWWWWWW       X7tccccccccccccccccccccccccce:O         WWWWWWWWWWWWWWWWWWWWWWWWWWWWWW",
"WWWWWWWWWWWWWWWWWWWWWWWWWWWWWWW       X9cccccccccccccccccccccccccccccccr:X        WWWWWWWWWWWWWWWWWWWWWWWWWWWW",
"WWWWWWWWWWWWWWWWWWWWWWWWWWWWWW       7icccccccccccccccccccccccccccccccccci9O       WWWWWWWWWWWWWWWWWWWWWWWWWWW",
"WWWWWWWWWWWWWWWWWWWWWWWWWWWWW      @rccccccccccccccccccccccccccccccccccccccc9O      WWWWWWWWWWWWWWWWWWWWWWWWWW",
"WWWWWWWWWWWWWWWWWWWWWWWWWWWW      ;icccccccccccccccccccccccccccccccccccccccccc7      WWWWWWWWWWWWWWWWWWWWWWWWW",
"WWWWWWWWWWWWWWWWWWWWWWWWWWW      :ccccccccccccccccccccccccccccccccccccccccccccceX     WWWWWWWWWWWWWWWWWWWWWWWW",
"WWWWWWWWWWWWWWWWWWWWWWWWWWW     9ccccccccccccccccccccccccccccccccccccccccccccccci@     WWWWWWWWWWWWWWWWWWWWWWW",
"WWWWWWWWWWWWWWWWWWWWWWWWWW     :ccccccccccccccccccccccccccccccccccccccccccccccccci@     WWWWWWWWWWWWWWWWWWWWWW",
"WWWWWWWWWWWWWWWWWWWWWWWWW     =ccccccccccccccccccccccccccccccccccccccccccccccccccci@     WWWWWWWWWWWWWWWWWWWWW",
"WWWWWWWWWWWWWWWWWWWWWWWWW    Oicccccccccccccccccccccccccccccccccccccccccccccccccccci@     WWWWWWWWWWWWWWWWWWWW",
"WWWWWWWWWWWWWWWWWWWWWWWW     eccccccccccccccccccccccccccccccccccccccccccccccccccccccrX    WWWWWWWWWWWWWWWWWWWW",
"WWWWWWWWWWWWWWWWWWWWWWWW    =cccccccccccccccccccccccccccccccccccccccccccccccccccccccc9     WWWWWWWWWWWWWWWWWWW",
"WWWWWWWWWWWWWWWWWWWWWWW     tccccccccccccccccccccccccccccccccccccccccccccccccccccccccc=    WWWWWWWWWWWWWWWWWWW",
"WWWWWWWWWWWWWWWWWWWWWWW    =cccccccccccccccccccccccccccccccccccccccccccccccccccccccccctX    WWWWWWWWWWWWWWWWWW",
"WWWWWWWWWWWWWWWWWWWWWW     eccccccccccccccccccccccccccccccccccccccccccccccccccccccccccc7    WWWWWWWWWWWWWWWWWW",
"WWWWWWWWWWWWWWWWWWWWWW    @cccccccccccccccccccccccccccccccccccccccccccccccccccccccccccciX    WWWWWWWWWWWWWWWWW",
"WWWWWWWWWWWWWWWWWWWWWW    9ccccccccccccccccccccccccccccccccccccccccccccccccccccccccccccc:    WWWWWWWWWWWWWWWWW",
"WWWWWWWWWWWWWWWWWWWWW    Xcccccccccccccccccccccccccccccccccccccccccccccccccccccccccccccct    WWWWWWWWWWWWWWWWW",
"WWWWWWWWWWWWWWWWWWWWW    :ccccccccccccccccccccccccccccccccccccccccccccccccccccccccccccccc@    WWWWWWWWWWWWWWWW",
"WWWWWWWWWWWWWWWWWWWWW    tccccccccccccccccccccccccccccccccccccccccccccccccccccccccccccccc8    WWWWWWWWWWWWWWWW",
"WWWWWWWWWWWWWWWWWWWW    @cccccccccccccccccccccccccccccccccccccccccccccccccccccccccccccccct    WWWWWWWWWWWWWWWW",
"WWWWWWWWWWWWWWWWWWWW    8cccccccccccccccccccccccccccccccccccccccccccccccccccccccccccccccccO    WWWWWWWWWWWWWWW",
"WWWWWWWWWWWWWWWWWWWW    tccccccccccccccccccccccccccccccccccccccccccccccccccccccccccccccccc;    WWWWWWWWWWWWWWW",
"WWWWWWWWWWWWWWWWWWW    @cccccccccccccccccccccccccccccccccccccccccccccccccccccccccccccccccc9    WWWWWWWWWWWWWWW",
"WWWWWWWWWWWWWWWWWWW    7cccccccccccccccccccccccccccccccccccccccccccccccccccccccccccccccccce    WWWWWWWWWWWWWWW",
"WWWWWWWWWWWWWWWWWWW    eccccccccccccccccccccccccccccccccccccccccccccccccccccccccccccccccccc    WWWWWWWWWWWWWWW",
"WWWWWWWWWWWWWWWWWWW    ccccccccccccccccccccccccccccccccccccccccccccccccccccccccccccccccccccX   WWWWWWWWWWWWWWW",
"WWWWWWWWWWWWWWWWWW    Occcccccccccccccccccccccccccccccccccccccccccccccccccccccccccccccccccc*    WWWWWWWWWWWWWW",
"WWWWWWWWWWWWWWWWWW    *cccccccccccccccccccccccccccccccccccccccccccccccccccccccccccccccccccc*    WWWWWWWWWWWWWW",
"WWWWWWWWWWWWWWWWWW    *cccccccccccccccccccccccccccccccccccccccccccccccccccccccccccccccccccc*    WWWWWWWWWWWWWW",
"WWWWWWWWWWWWWWWWWW    *cccccccccccccccccccccccccccccccccccccccccccccccccccccccccccccccccccc*    WWWWWWWWWWWWWW",
"WWWWWWWWWWWWWWWWWW    *cccccccccccccccccccccccccccccccccccccccccccccccccccccccccccccccccccc*    WWWWWWWWWWWWWW",
"WWWWWWWWWWWWWWWWWW    *cccccccccccccccccccccccccccccccccccccccccccccccccccccccccccccccccccc*    WWWWWWWWWWWWWW",
"WWWWWWWWWWWWWWWWWW    OccccccccccccccccccccccccccccccccccccccccccccccccccccccccccccccccccccO    WWWWWWWWWWWWWW",
"WWWWWWWWWWWWWWWWWWW    iccccccccccccccccccccccccccccccccccccccccccccccccccccccccccccccccccc    WWWWWWWWWWWWWWW",
"WWWWWWWWWWWWWWWWWWW    0ccccccccccccccccccccccccccccccccccccccccccccccccccccccccccccccccccr    WWWWWWWWWWWWWWW",
"WWWWWWWWWWWWWWWWWWW    ;cccccccccccccccccccccccccccccccccccccccccccccccccccccccccccccccccc9    WWWWWWWWWWWWWWW",
"WWWWWWWWWWWWWWWWWWW    Xiccccccccccccccccccccccccccccccccccccccccccccccccccccccccccccccccc;    WWWWWWWWWWWWWWW",
"WWWWWWWWWWWWWWWWWWWW    7cccccccccccccccccccccccccccccccccccccccccccccccccccccccccccccccccX    WWWWWWWWWWWWWWW",
"WWWWWWWWWWWWWWWWWWWW    Xiccccccccccccccccccccccccccccccccccccccccccccccccccccccccccccccc0    WWWWWWWWWWWWWWWW",
"WWWWWWWWWWWWWWWWWWW      :ccccccccccccccccccccccccccccccccccccccccccccccccccccccccccccccc*    WWWWWWWWWWWWWWWW",
"WWWWWWWWWWWWWWWWWWW       eccccccccccccccccccccccccccccccccccccccccccccccccccccccccccccc0     WWWWWWWWWWWWWWWW",
"WWWWWWWWWWWWWWWWWWW    p  OiccccccccccccccccccccccccccccccccccccccccccccccccccccccccccciX     WWWWWWWWWWWWWWWW",
"WWWWWWWWWWWWWWWWWW    -Uv  @cccccccccccccccccccccccccccccccccccccccccccccccccccccccccci@      WWWWWWWWWWWWWWWW",
"WWWWWWWWWWWWWWWWWW    aUU   ;cccccccccccccccccccccccccccccccccccccccccccccccccccccccci@  qq    WWWWWWWWWWWWWWW",
"WWWWWWWWWWWWWWWWWW    vUU,   ;ccccccccccccccccccccccccccccccccccccccccccccccccccccccr@  ,In    WWWWWWWWWWWWWWW",
"WWWWWWWWWWWWWWWWWW    aUUb    @iccccccccccccccccccccccccccccccccccccccccccccccccccc7X  -IUZ    WWWWWWWWWWWWWWW",
"WWWWWWWWWWWWWWWWWW    -IUS     @rccccccccccccccccccccccccccccccccccccccccccccccci9O    nUUZ    WWWWWWWWWWWWWWW",
"WWWWWWWWWWWWWWWWWWW    pIU,  -  X9ccccccccccccccccccccccccccccccccccccccccccccc7X     +IUUp    WWWWWWWWWWWWWWW",
"WWWWWWWWWWWWWWWWWWW     -nn  vp   ;iccccccccccccccccccccccccccccccccccccccccceO   +q  pUUb     WWWWWWWWWWWWWWW",
"WWWWWWWWWWWWWWWWWWWW         +In+  X9cccccccccccccccccccccccccccccccccccccr7@   -nU-  ,q+     WWWWWWWWWWWWWWWW",
"WWWWWWWWWWWWWWWWWWWWW         wUA,   O7icccccccccccccccccccccccccccccccc9O     vIUv           WWWWWWWWWWWWWWWW",
"WWWWWWWWWWWWWWWWWWWWWW         BUUv+    =0cccccccccccccccccccccccccci0:O    -aSUUA           WWWWWWWWWWWWWWWWW",
"WWWWWWWWWWWWWWWWWWWWWWW        +SUUIv-    X;8eccccccccccccccccccte8*     +vSUUUUI,         WWWWWWWWWWWWWWWWWWW",
"WWWWWWWWWWWWWWWWWWWWWWWWWWW     ,IUUUUBw       *:7777777777777;@       ,bIUUUUUUp        WWWWWWWWWWWWWWWWWWWWW",
"WWWWWWWWWWWWWWWWWWWWWWWWWWWW     wUUUUUUIbq                        +pBIUUUUUUUUp     WWWWWWWWWWWWWWWWWWWWWWWWW",
"WWWWWWWWWWWWWWWWWWWWWWWWWWWWW     pUUUUUUUUUAnp,              +qaZAUUUUUUUUUUUp     WWWWWWWWWWWWWWWWWWWWWWWWWW",
"WWWWWWWWWWWWWWWWWWWWWWWWWWWWWW     ,IUUUUUUUUUUUUUUUUUUUUUUUUUUUUUUUUUUUUUUUIw     WWWWWWWWWWWWWWWWWWWWWWWWWWW",
"WWWWWWWWWWWWWWWWWWWWWWWWWWWWWWW     -AUUUUUUUUUUUUUUUUUUUUZZZZvvvvvbZZIUUUUA,      WWWWWWWWWWWWWWWWWWWWWWWWWWW",
"WWWWWWWWWWWWWWWWWWWWWWWWWWWWWWWW      vUUUUUUUUUIZvvaqq+               -pBv       WWWWWWWWWWWWWWWWWWWWWWWWWWWW",
"WWWWWWWWWWWWWWWWWWWWWWWWWWWWWWWW       -nUUUUUnw                                WWWWWWWWWWWWWWWWWWWWWWWWWWWWWW",
"WWWWWWWWWWWWWWWWWWWWWWWWWWWWWWW                      <yummNCCCGHHHHFCVm<        WWWWWWWWWWWWWWWWWWWWWWWWWWWWWW",
"WWWWWWWWWWWWWWWWWWWWWWWWWWWWWW                  <mCGHHHHHHHHHHHHHHHHHHHHFm>      WWWWWWWWWWWWWWWWWWWWWWWWWWWWW",
"WWWWWWWWWWWWWWWWWWWWWWWWWWWWW      >smmmmmmmmduCHHHHHHHHHHHHHHHHHHHHHHHHHHHN#     WWWWWWWWWWWWWWWWWWWWWWWWWWWW",
"WWWWWWWWWWWWWWWWWWWWWWWWWWWWW    #VHHHHHHHHHHHHHHHHHHHHHHHHHHHHHHHHHHHHHHHHHD#     WWWWWWWWWWWWWWWWWWWWWWWWWWW",
"WWWWWWWWWWWWWWWWWWWWWWWWWWWWW    NHHHHHHHHHHHHHHHHHHHHHHHHHHHHHHHHHHHHHHHHHHHG#    WWWWWWWWWWWWWWWWWWWWWWWWWWW",
"WWWWWWWWWWWWWWWWWWWWWWWWWWWWW    GHHHHHHHHHHHHHHHHHHHHHHHHHHHHHHHHHHHHHHHHHHHHC     WWWWWWWWWWWWWWWWWWWWWWWWWW",
"WWWWWWWWWWWWWWWWWWWWWWWWWWWWW    HHHHHHHHHHHHHHHHHHHHHHHHHHHHHHHHHHHHHHHHHHHHHHd    WWWWWWWWWWWWWWWWWWWWWWWWWW",
"WWWWWWWWWWWWWWWWWWWWWWWWWWWWW    CHHHHHHHHHHHHHHHHHHHHHHHHHHHHHHHHHHHHm dHHHHHHG#    WWWWWWWWWWWWWWWWWWWWWWWWW",
"WWWWWWWWWWWWWWWWWWWWWWWWWWWWW    yHHHHHHHHHHHHHHHHHHHHHHHHHHHHHHHHHHHHy yHHHHHHHm    WWWWWWWWWWWWWWWWWWWWWWWWW",
"WWWWWWWWWWWWWWWWWWWWWWWWWWWWW     uDHHHGMNHHHHHHHHHHHHHHHHHHHHHHHHHHHHy yHHHHHHHG#    WWWWWWWWWWWWWWWWWWWWWWWW",
"WWWWWWWWWWWWWWWWWWWWWWWWWWWWW             DHHHHHHHHHHHHHHHHHHHHHHHHHHHy yHHHHHHHHs    WWWWWWWWWWWWWWWWWWWWWWWW",
"WWWWWWWWWWWWWWWWWWWWWWWWWWWWW    q       #GHHHHHHHHHHHHHHHHHHHHHHHHHHHy >HHHHHHHHC    WWWWWWWWWWWWWWWWWWWWWWWW",
"WWWWWWWWWWWWWWWWWWWWWWWWWWWWW    UAvvva  uHHHHHHHHHHHHHHHHHHHHHHHHHHHHy <HHHHHHHHH>    WWWWWWWWWWWWWWWWWWWWWWW",
"WWWWWWWWWWWWWWWWWWWWWWWWWWWWW    aUUUU,  MHHHHHHHHHHHHHHHHHHHHHHHHHHHHy yHHHHHHHHHy    WWWWWWWWWWWWWWWWWWWWWWW",
"WWWWWWWWWWWWWWWWWWWWWWWWWWWWW     -vvq  <GHHHHHHHHHHHHHHHHHHHHHHHHHHHHy >mmmmmmy#      WWWWWWWWWWWWWWWWWWWWWWW",
"WWWWWWWWWWWWWWWWWWWWWWWWWWWWWW          mHHHHHHHHHHHHHHHHHHHHHHHHHHHHHy                WWWWWWWWWWWWWWWWWWWWWWW",
"WWWWWWWWWWWWWWWWWWWWWWWWWWWWWW          mHHHHHHHHHHHHHHHHHHHHHHHHHHHHHV        +      WWWWWWWWWWWWWWWWWWWWWWWW",
"WWWWWWWWWWWWWWWWWWWWWWWWWWWWWWWW        >yumNCGHHHHHHHHHHHHHHHHHHHHHHHHHHH# qUUZ     WWWWWWWWWWWWWWWWWWWWWWWWW",
"WWWWWWWWWWWWWWWWWWWWWWWWWWWWWWWWWW              <yummmVCCCCDHHHHHHHHHHHHHHy qUUZ    WWWWWWWWWWWWWWWWWWWWWWWWWW",
"WWWWWWWWWWWWWWWWWWWWWWWWWWWWWWWWWWW                           <yyyummdyyyu> qUUZ    WWWWWWWWWWWWWWWWWWWWWWWWWW",
"WWWWWWWWWWWWWWWWWWWWWWWWWWWWWWWWWWWW       kg431%o                          wUUZ    WWWWWWWWWWWWWWWWWWWWWWWWWW",
"WWWWWWWWWWWWWWWWWWWWWWWWWWWWWWWWWWWW       lllllllllf        %%%.           vUUZ    WWWWWWWWWWWWWWWWWWWWWWWWWW",
"WWWWWWWWWWWWWWWWWWWWWWWWWWWWWWWWWWWWWW     lllllllllg        lllllllll4     vUUZ    WWWWWWWWWWWWWWWWWWWWWWWWWW",
"WWWWWWWWWWWWWWWWWWWWWWWWWWWWWWWWWWWWWWW    lllllllllj        lllllllll3     vUUZ    WWWWWWWWWWWWWWWWWWWWWWWWWW",
"WWWWWWWWWWWWWWWWWWWWWWWWWWWWWWWWWWWWWWW    llllllllll        lllllllll%     vUUZ    WWWWWWWWWWWWWWWWWWWWWWWWWW",
"WWWWWWWWWWWWWWWWWWWWWWWWWWWWWWWWWWWWWWW    hlllllllll       .lllllllll$     vUUU    WWWWWWWWWWWWWWWWWWWWWWWWWW",
"WWWWWWWWWWWWWWWWWWWWWWWWWWWWWWWWWWWWWWW    glllllllll       %lllllllll      vUUZ    WWWWWWWWWWWWWWWWWWWWWWWWWW",
"WWWWWWWWWWWWWWWWWWWWWWWWWWWWWWWWWWWWWWW    glllllllll       .%1332%o        vUUn    WWWWWWWWWWWWWWWWWWWWWWWWWW",
"WWWWWWWWWWWWWWWWWWWWWWWWWWWWWWWWWWWWWWW    glllllllllo                      qZb-    WWWWWWWWWWWWWWWWWWWWWWWWWW",
"WWWWWWWWWWWWWWWWWWWWWWWWWWWWWWWWWWWWWWW    gllllllllh       &z&  &zzJ6              WWWWWWWWWWWWWWWWWWWWWWWWWW",
"WWWWWWWWWWWWWWWWWWWWWWWWWWWWWWWWWWWWWWW    gllllllllg        KEEEEEEY&             WWWWWWWWWWWWWWWWWWWWWWWWWWW",
"WWWWWWWWWWWWWWWWWWWWWWWWWWWWWWWWWWWWWWW    fllllllllh        &JEEEEK&             WWWWWWWWWWWWWWWWWWWWWWWWWWWW",
"WWWWWWWWWWWWWWWWWWWWWWWWWWWWWWWWWWWWWWW    2lllllllll          6LJ6      WW      WWWWWWWWWWWWWWWWWWWWWWWWWWWWW",
"WWWWWWWWWWWWWWWWWWWWWWWWWWWWWWWWWWWWWWW    %lllllllll                   WWWWWWWWWWWWWWWWWWWWWWWWWWWWWWWWWWWWWW",
"WWWWWWWWWWWWWWWWWWWWWWWWWWWWWWWWWWWWWWW    .lllllllll.    W            WWWWWWWWWWWWWWWWWWWWWWWWWWWWWWWWWWWWWWW",
"WWWWWWWWWWWWWWWWWWWWWWWWWWWWWWWWWWWWWWW     %%235gg43o    WWW         WWWWWWWWWWWWWWWWWWWWWWWWWWWWWWWWWWWWWWWW",
"WWWWWWWWWWWWWWWWWWWWWWWWWWWWWWWWWWWWWWW                   WWWW     WWWWWWWWWWWWWWWWWWWWWWWWWWWWWWWWWWWWWWWWWWW",
"WWWWWWWWWWWWWWWWWWWWWWWWWWWWWWWWWWWWWWW     6z            WWWWWWWWWWWWWWWWWWWWWWWWWWWWWWWWWWWWWWWWWWWWWWWWWWWW",
"WWWWWWWWWWWWWWWWWWWWWWWWWWWWWWWWWWWWWWWW    6EEEPPPYY     WWWWWWWWWWWWWWWWWWWWWWWWWWWWWWWWWWWWWWWWWWWWWWWWWWWW",
"WWWWWWWWWWWWWWWWWWWWWWWWWWWWWWWWWWWWWWWW     zTEEEEL&    WWWWWWWWWWWWWWWWWWWWWWWWWWWWWWWWWWWWWWWWWWWWWWWWWWWWW",
"WWWWWWWWWWWWWWWWWWWWWWWWWWWWWWWWWWWWWWWWW     &JYRx      WWWWWWWWWWWWWWWWWWWWWWWWWWWWWWWWWWWWWWWWWWWWWWWWWWWWW",
"WWWWWWWWWWWWWWWWWWWWWWWWWWWWWWWWWWWWWWWWWW              WWWWWWWWWWWWWWWWWWWWWWWWWWWWWWWWWWWWWWWWWWWWWWWWWWWWWW",
"WWWWWWWWWWWWWWWWWWWWWWWWWWWWWWWWWWWWWWWWWWW            WWWWWWWWWWWWWWWWWWWWWWWWWWWWWWWWWWWWWWWWWWWWWWWWWWWWWWW",
"WWWWWWWWWWWWWWWWWWWWWWWWWWWWWWWWWWWWWWWWWWWW          WWWWWWWWWWWWWWWWWWWWWWWWWWWWWWWWWWWWWWWWWWWWWWWWWWWWWWWW"
};
