/* XPM */
static char *result[] = {
/* columns rows colors chars-per-pixel */
"110 110 51 1 ",
"  c black",
". c #0D0C0B",
"X c #10100E",
"o c #1A1915",
"O c #1F201C",
"+ c #272520",
"@ c #2F2F2B",
"# c #34322A",
"$ c #393831",
"% c #3E3F39",
"& c #4D4A3F",
"* c #4E4F47",
"= c #5A574A",
"- c #5D5F55",
"; c #676354",
": c #746F5F",
"> c #6D6E63",
", c #7C7E72",
"< c #817C69",
"1 c #8E8874",
"2 c #9B957E",
"3 c #8C8E80",
"4 c #9B9E8E",
"5 c #A7A189",
"6 c #ADAC98",
"7 c #ABAD9C",
"8 c #B4AD93",
"9 c #BAB9A2",
"0 c #BABDAA",
"q c #C1BA9E",
"w c #CEC6A8",
"e c #D1C9AC",
"r c #D3CDAF",
"t c #CACDB8",
"y c #D6D0B3",
"u c #D9D4B7",
"i c #DBD7BA",
"p c #DEDABE",
"a c #D9DDC7",
"s c #E0DEC2",
"d c #E3E1C6",
"f c #E6E4C9",
"g c #E8E8CD",
"h c #EBEBD1",
"j c #E9ECD5",
"k c #EEEFD4",
"l c #F0F2D8",
"z c #F3F5DC",
"x c #F5F9DF",
"c c #F8FCE3",
"v c None",
/* pixels */
"vvvvvvvvvvvvvvvvvvvvvvvvvvvvvvvvvvvvvvvvvvvvvvvvvvvvvvvvvvvvvvvvvvvvvvvvvvvvvvvvvvvvvvvvvvvvvvvvvvvvvvvvvvvvvv",
"vvvvvvvvvvvvvvvvvvvvvvvvvvvvvvvvvvvvvvvvvvvvvvvvvvvvvvvvvvvvvvvvvvvvvvvvvvvvvvvvvvvvvvvvvvvvvvvvvvvvvvvvvvvvvv",
"vvvvvvvvvvvvvvvvvvvvvvvvvvvvvvvvvvvvvvvvvvvvvvvvvvvvvvvvvvvvvvvvvvvvvvvvvvvvvvvvvvvvvvvvvvvvvvvvvvvvvvvvvvvvvv",
"vvvvvvvvvvvvvvvvvvvvvvvvvvvvvvvvvvvvvvvvvvvvvvvvv              vvvvvvvvvvvvvvvvvvvvvvvvvvvvvvvvvvvvvvvvvvvvvvv",
"vvvvvvvvvvvvvvvvvvvvvvvvvvvvvvvvvvvvvvvvvvvv                         vvvvvvvvvvvvvvvvvvvvvvvvvvvvvvvvvvvvvvvvv",
"vvvvvvvvvvvvvvvvvvvvvvvvvvvvvvvvvvvvvvvv                                vvvvvvvvvvvvvvvvvvvvvvvvvvvvvvvvvvvvvv",
"vvvvvvvvvvvvvvvvvvvvvvvvvvvvvvvvvvvvvv                                     vvvvvvvvvvvvvvvvvvvvvvvvvvvvvvvvvvv",
"vvvvvvvvvvvvvvvvvvvvvvvvvvvvvvvvvvvv             @%%,,,,,,,,*%%              vvvvvvvvvvvvvvvvvvvvvvvvvvvvvvvvv",
"vvvvvvvvvvvvvvvvvvvvvvvvvvvvvvvvvv          %,0accccccccccccccccj03*X         vvvvvvvvvvvvvvvvvvvvvvvvvvvvvvvv",
"vvvvvvvvvvvvvvvvvvvvvvvvvvvvvvvvv        *7jccccccccccccccccccccccccc0-X        vvvvvvvvvvvvvvvvvvvvvvvvvvvvvv",
"vvvvvvvvvvvvvvvvvvvvvvvvvvvvvvv       X,jccccccccccccccccccccccccccccccc4O       vvvvvvvvvvvvvvvvvvvvvvvvvvvvv",
"vvvvvvvvvvvvvvvvvvvvvvvvvvvvvv       ,jcccccccccccccccxdxccccccccccccccccc4X      vvvvvvvvvvvvvvvvvvvvvvvvvvvv",
"vvvvvvvvvvvvvvvvvvvvvvvvvvvvv      %acccccccccccccccccdwdccccccccccccccccccj>      vvvvvvvvvvvvvvvvvvvvvvvvvvv",
"vvvvvvvvvvvvvvvvvvvvvvvvvvvv      >cccccccccccccccccccuwgcccccccccccccccccccc4X     vvvvvvvvvvvvvvvvvvvvvvvvvv",
"vvvvvvvvvvvvvvvvvvvvvvvvvvv      4ccccccccccccccccccccuwgccccccccccccccccccccctX     vvvvvvvvvvvvvvvvvvvvvvvvv",
"vvvvvvvvvvvvvvvvvvvvvvvvvvv     4cccccccccccccccccccccdwexccccccccccccccccccccctX     vvvvvvvvvvvvvvvvvvvvvvvv",
"vvvvvvvvvvvvvvvvvvvvvvvvvv     4cccccccccccccccccccccccywgcccccccccccccccccccccctX    vvvvvvvvvvvvvvvvvvvvvvvv",
"vvvvvvvvvvvvvvvvvvvvvvvvv     -cccccccccccccccccccccccciwdccccccccccccccccccccccc4     vvvvvvvvvvvvvvvvvvvvvvv",
"vvvvvvvvvvvvvvvvvvvvvvvvv    Ojcccccccccccccccccccccccgwwzcccccccccccccccccccccccc*    vvvvvvvvvvvvvvvvvvvvvvv",
"vvvvvvvvvvvvvvvvvvvvvvvv     0cccccccccccccccccccccccgwwdcccccccccccccccccccccccccjX    vvvvvvvvvvvvvvvvvvvvvv",
"vvvvvvvvvvvvvvvvvvvvvvvv    %cccccccccccccccccccccccxewpccccccccccccccccccccccccccc,    vvvvvvvvvvvvvvvvvvvvvv",
"vvvvvvvvvvvvvvvvvvvvvvv     0cccccccccccccccccccccccgwyccccccccccccccccccccccccccccjX    vvvvvvvvvvvvvvvvvvvvv",
"vvvvvvvvvvvvvvvvvvvvvvv    @ccccccccccccccccccccccccdwdccccccccccccccccccccccccccccc>    vvvvvvvvvvvvvvvvvvvvv",
"vvvvvvvvvvvvvvvvvvvvvvv    3ccccccccccccccccccccccccdwdccccccccccccccccccccccccccccca    vvvvvvvvvvvvvvvvvvvvv",
"vvvvvvvvvvvvvvvvvvvvvvv    accccccccccccccccccccccccfwiccccccccccccccccccccccccccccccO    vvvvvvvvvvvvvvvvvvvv",
"vvvvvvvvvvvvvvvvvvvvvv    Occccccccccccccccccccccccczwwlccccccccccccccccccccccccccccc-    vvvvvvvvvvvvvvvvvvvv",
"vvvvvvvvvvvvvvvvvvvvvv    *cccccccccccccccccccccccccciwyxcccccccccccccccccccccccccccc3    vvvvvvvvvvvvvvvvvvvv",
"vvvvvvvvvvvvvvvvvvvvvv    ,ccccccccccccccccccccccccccxewscccccccccccccccccccccccccccc0    vvvvvvvvvvvvvvvvvvvv",
"vvvvvvvvvvvvvvvvvvvvvv    ,ccccccccccccccccccccccccccckwwlccccccccccccccccccccccccccc0    vvvvvvvvvvvvvvvvvvvv",
"vvvvvvvvvvvvvvvvvvvvvv    4ccccccccccccccccccccccccccccpwpcccccccccccccccccccccccccccj    vvvvvvvvvvvvvvvvvvvv",
"vvvvvvvvvvvvvvvvvvvvvv    0cccccccccccccccccccccccccccckwucccccccccccccccccccccccccccc    vvvvvvvvvvvvvvvvvvvv",
"vvvvvvvvvvvvvvvvvvvvvv    7cccccccccccccccccccccccccccciwpcccccccccccccccccccccccccccj    vvvvvvvvvvvvvvvvvvvv",
"vvvvvvvvvvvvvvvvvvvvvv    ,cccccccccccccccccccccccccccpwwkccccccccccccccccccccccccccc0    vvvvvvvvvvvvvvvvvvvv",
"vvvvvvvvvvvvvvvvvvvvvv    ,ccccccccccccccccccccccccccswwycccccccccccccccccccccccccccc0    vvvvvvvvvvvvvvvvvvvv",
"vvvvvvvvvvvvvvvvvvvvvv    ,ccccccccccccccccccccccccchwwwwlccccccccccccccccccccccccccc0    vvvvvvvvvvvvvvvvvvvv",
"vvvvvvvvvvvvvvvvvvvvvv    *cccccccccccccccccccccccclewsiwiccccccccccccccccccccccccccc3    vvvvvvvvvvvvvvvvvvvv",
"vvvvvvvvvvvvvvvvvvvvvv    @cccccccccccccccccccccckpwwuclwwrfkcccccccccccccccccccccccc>    vvvvvvvvvvvvvvvvvvvv",
"vvvvvvvvvvvvvvvvvvvvvvv    cccccccccccccccccczsywwwwpxcchewwwwikccccccccccccccccccccc%    vvvvvvvvvvvvvvvvvvvv",
"vvvvvvvvvvvvvvvvvvvvvvv    0ccccccccccccccccswwwwypkcccccxgprwwwpcccccccccccccccccccc    vvvvvvvvvvvvvvvvvvvvv",
"vvvvvvvvvvvvvvvvvvvvvvv    ,ccccccccccccccxywwihccccccccccccczdwwpcccccccccccccccccc0    vvvvvvvvvvvvvvvvvvvvv",
"vvvvvvvvvvvvvvvvvvvvvvv    %ccccccccccccccywekccccccccccccccccclwwkccccccccccccccccc,    vvvvvvvvvvvvvvvvvvvvv",
"vvvvvvvvvvvvvvvvvvvvvvvv    cccccccccccccswelcccccccccccccccccccpwyccccccccccccccccc%    vvvvvvvvvvvvvvvvvvvvv",
"vvvvvvvvvvvvvvvvvvvvvvvv    cccccccccccckwwhccccccccccccccccccccxewydsigcccccccccccc%    vvvvvvvvvvvvvvvvvvvvv",
"vvvvvvvvvvvvvvvvvvvvvvvv    ccccccccccccywicccccccccccccccccccccclewwwwwifcccccccccc%    vvvvvvvvvvvvvvvvvvvvv",
"vvvvvvvvvvvvvvvvvvvvvvvv    cccccccccccceexcccccccccccccccccccccccxgdddwwwzccccccccc%    vvvvvvvvvvvvvvvvvvvvv",
"vvvvvvvvvvvvvvvvvvvvvvvv    ccccccccccccxxcccccccccccccccccccccccccccccksgcccccccccc%    vvvvvvvvvvvvvvvvvvvvv",
"vvvvvvvvvvvvvvvvvvvvvvvv    cccccccccccccccccccccccccccccccccccccccccccccccccccccccc%    vvvvvvvvvvvvvvvvvvvvv",
"vvvvvvvvvvvvvvvvvvvvvvvv    cccccccccccccccccccccccccccccccccccccccccccccccccccccccc%    vvvvvvvvvvvvvvvvvvvvv",
"vvvvvvvvvvvvvvvvvvvvvvvv    acccccccccccccccccccccccccccccccccccccccccccccccccccccccO    vvvvvvvvvvvvvvvvvvvvv",
"vvvvvvvvvvvvvvvvvvvvvvvv    0ccccccccccccccccccccccccccccccccccccccccccccccccccccccc    vvvvvvvvvvvvvvvvvvvvvv",
"vvvvvvvvvvvvvvvvvvvvvvvv    ,cccccccccccccccccccccccccccccccccccccccccccccccccccccc0    vvvvvvvvvvvvvvvvvvvvvv",
"vvvvvvvvvvvvvvvvvvvvvvvv    @cccccccccccccccccccccccccccccccccccccccccccccccccccccc>    vvvvvvvvvvvvvvvvvvvvvv",
"vvvvvvvvvvvvvvvvvvvvvvvvv    0ccccccccccccccccccccccct03,,0jccccccccccccccccccccccjX    vvvvvvvvvvvvvvvvvvvvvv",
"vvvvvvvvvvvvvvvvvvvvvvvvv    @jcccccccccccccccccccc,X      X4ccccccccccccccccccccc-    vvvvvvvvvvvvvvvvvvvvvvv",
"vvvvvvvvvvvvvvvvvvvvvvvvv     X,tccccccccccccccccc7          0ccccccccccccccccca4O     vvvvvvvvvvvvvvvvvvvvvvv",
"vvvvvvvvvvvvvvvvvvvvvvvvvv        @%%,,,,,,%%%% %c@  40tcj4  %c, @%%%>,,,,,*%%        vvvvvvvvvvvvvvvvvvvvvvvv",
"vvvvvvvvvvvvvvvvvvvvvvvvvvv                      9  >cccccc-  6$                     vvvvvvvvvvvvvvvvvvvvvvvvv",
"vvvvvvvvvvvvvvvvvvvvvvvvvvvv               +###=1=  acccccca  #5;####               vvvvvvvvvvvvvvvvvvvvvvvvvv",
"vvvvvvvvvvvvvvvvvvvvvvvvvvvvvv       ;wwwwwwwwwww+ @cccccccc-  5wwwwwwwwww;       vvvvvvvvvvvvvvvvvvvvvvvvvvvv",
"vvvvvvvvvvvvvvvvvvvvvvvvvvvvvvvvv    .qwwwwwwwwww  >cccccccct  &wwwwwwwwww.    vvvvvvvvvvvvvvvvvvvvvvvvvvvvvvv",
"vvvvvvvvvvvvvvvvvvvvvvvvvvvvvvvvvv    ;wwwwwwwww2  40accccccc%  qwwwwwwww<    vvvvvvvvvvvvvvvvvvvvvvvvvvvvvvvv",
"vvvvvvvvvvvvvvvvvvvvvvvvvvvvvvvvvv    .qwwwwwww5:  3       O%O  1wwwwwwwwo    vvvvvvvvvvvvvvvvvvvvvvvvvvvvvvvv",
"vvvvvvvvvvvvvvvvvvvvvvvvvvvvvvvvvvv    ;wwwq:#                  #;:22qww<    vvvvvvvvvvvvvvvvvvvvvvvvvvvvvvvvv",
"vvvvvvvvvvvvvvvvvvvvvvvvvvvvvvvvvv     .q8&                           +=o    vvvvvvvvvvvvvvvvvvvvvvvvvvvvvvvvv",
"vvvvvvvvvvvvvvvvvvvvvvvvvvvvvvv         +.   X-30007@                          vvvvvvvvvvvvvvvvvvvvvvvvvvvvvvv",
"vvvvvvvvvvvvvvvvvvvvvvvvvvvvvv             %7ccccccc0  -,400O         X         vvvvvvvvvvvvvvvvvvvvvvvvvvvvvv",
"vvvvvvvvvvvvvvvvvvvvvvvvvvvvv            X4ccccccccc0  0ccc7  O--%     *>O       vvvvvvvvvvvvvvvvvvvvvvvvvvvvv",
"vvvvvvvvvvvvvvvvvvvvvvvvvvvv      O-,,-  4cccccccccc>  accc,  jcccj4%   Ot4O      vvvvvvvvvvvvvvvvvvvvvvvvvvvv",
"vvvvvvvvvvvvvvvvvvvvvvvvvvvv    X7cccct  3cccccccccc@ Occcc,  ccccccc0@  Xtc3X    vvvvvvvvvvvvvvvvvvvvvvvvvvvv",
"vvvvvvvvvvvvvvvvvvvvvvvvvvvv    4cccccc  -ccccccccca  >cccc,  ccccccccc>  XjctX    vvvvvvvvvvvvvvvvvvvvvvvvvvv",
"vvvvvvvvvvvvvvvvvvvvvvvvvvvv    jcccccc* Xccccccccc*  tcccc,  accccccccc,  3cc>    vvvvvvvvvvvvvvvvvvvvvvvvvvv",
"vvvvvvvvvvvvvvvvvvvvvvvvvvvv    ccccccc3  7ccccccc>  %ccccc0  0cccccccccc  ,cc0    vvvvvvvvvvvvvvvvvvvvvvvvvvv",
"vvvvvvvvvvvvvvvvvvvvvvvvvvvv    0cccccca  -cccccc4   jccccc0  -ccccccccc4  4ccj    vvvvvvvvvvvvvvvvvvvvvvvvvvv",
"vvvvvvvvvvvvvvvvvvvvvvvvvvvv    %ccccccc%  jcccc4    4ccccc0   tcccccccc%  jccc    vvvvvvvvvvvvvvvvvvvvvvvvvvv",
"vvvvvvvvvvvvvvvvvvvvvvvvvvvv     *tcccj03  ,ccc4     ,ccccc0   %ccccccc0  -cccc%    vvvvvvvvvvvvvvvvvvvvvvvvvv",
"vvvvvvvvvvvvvvvvvvvvvvvvvvvv            %  Xac3      4ccccc0    3cccccc%  >cccc%    vvvvvvvvvvvvvvvvvvvvvvvvvv",
"vvvvvvvvvvvvvvvvvvvvvvvvvvvv    %           @*       tcccccc    Xtcccc7   %cccc*    vvvvvvvvvvvvvvvvvvvvvvvvvv",
"vvvvvvvvvvvvvvvvvvvvvvvvvvvv    ct,,,>              OcccccccO    @jccjO   %cccc,    vvvvvvvvvvvvvvvvvvvvvvvvvv",
"vvvvvvvvvvvvvvvvvvvvvvvvvvvv    >cccc@  >00*  %,-%%*tccccccc*     -cc*    @cccc-    vvvvvvvvvvvvvvvvvvvvvvvvvv",
"vvvvvvvvvvvvvvvvvvvvvvvvvvvv     O,,%  @jcccaacccccccccccccctO     --      403-X    vvvvvvvvvvvvvvvvvvvvvvvvvv",
"vvvvvvvvvvvvvvvvvvvvvvvvvvvvv          jcccccccccccccccccccccca04X    X,>          vvvvvvvvvvvvvvvvvvvvvvvvvvv",
"vvvvvvvvvvvvvvvvvvvvvvvvvvvvv          @%%@       O7ccccccccccccct@  @tcc%         vvvvvvvvvvvvvvvvvvvvvvvvvvv",
"vvvvvvvvvvvvvvvvvvvvvvvvvvvvvvv                    Xacccccccccccccc00cccc% @0t0    vvvvvvvvvvvvvvvvvvvvvvvvvvv",
"vvvvvvvvvvvvvvvvvvvvvvvvvvvvvvvvv         %%*,,,,-  @jccccccc0,,,,4000cca@ %cc0    vvvvvvvvvvvvvvvvvvvvvvvvvvv",
"vvvvvvvvvvvvvvvvvvvvvvvvvvvvvvvvvvv       0ccccccc*  @jccccj*              %cc0    vvvvvvvvvvvvvvvvvvvvvvvvvvv",
"vvvvvvvvvvvvvvvvvvvvvvvvvvvvvvvvvvvv      XtccccccjO  @tccc*               *cc0    vvvvvvvvvvvvvvvvvvvvvvvvvvv",
"vvvvvvvvvvvvvvvvvvvvvvvvvvvvvvvvvvvvvv     Xtccc0*X    X3t*   3cc00        ,cc0    vvvvvvvvvvvvvvvvvvvvvvvvvvv",
"vvvvvvvvvvvvvvvvvvvvvvvvvvvvvvvvvvvvvvv     Xtcc7             ccccc        ,cc0    vvvvvvvvvvvvvvvvvvvvvvvvvvv",
"vvvvvvvvvvvvvvvvvvvvvvvvvvvvvvvvvvvvvvvv     %cc0             jcccc        ,cc0    vvvvvvvvvvvvvvvvvvvvvvvvvvv",
"vvvvvvvvvvvvvvvvvvvvvvvvvvvvvvvvvvvvvvvvv     cca             0cccj        ,cc0    vvvvvvvvvvvvvvvvvvvvvvvvvvv",
"vvvvvvvvvvvvvvvvvvvvvvvvvvvvvvvvvvvvvvvvvv     @-          @  ,ccc0        ,ccc    vvvvvvvvvvvvvvvvvvvvvvvvvvv",
"vvvvvvvvvvvvvvvvvvvvvvvvvvvvvvvvvvvvvvvvv                  7X *ccc4  -     ,cc0    vvvvvvvvvvvvvvvvvvvvvvvvvvv",
"vvvvvvvvvvvvvvvvvvvvvvvvvvvvvvvvvvvvvvvvv     -%      v    j*  X%%O  c-    ,cc4    vvvvvvvvvvvvvvvvvvvvvvvvvvv",
"vvvvvvvvvvvvvvvvvvvvvvvvvvvvvvvvvvvvvvvvv    -cctX         j7       *c0    %03O    vvvvvvvvvvvvvvvvvvvvvvvvvvv",
"vvvvvvvvvvvvvvvvvvvvvvvvvvvvvvvvvvvvvvvvv    jccc0         4c0,*%%%-ac0            vvvvvvvvvvvvvvvvvvvvvvvvvvv",
"vvvvvvvvvvvvvvvvvvvvvvvvvvvvvvvvvvvvvvvv    %ccccc         Xjccccccccc*           vvvvvvvvvvvvvvvvvvvvvvvvvvvv",
"vvvvvvvvvvvvvvvvvvvvvvvvvvvvvvvvvvvvvvv     Occcct          @jccccccc,           vvvvvvvvvvvvvvvvvvvvvvvvvvvvv",
"vvvvvvvvvvvvvvvvvvvvvvvvvvvvvvvvvvvvvv       cccc7           O0cccca%           vvvvvvvvvvvvvvvvvvvvvvvvvvvvvv",
"vvvvvvvvvvvvvvvvvvvvvvvvvvvvvvvvvvvvvv       jccc,  X          O>,%       vvvvvvvvvvvvvvvvvvvvvvvvvvvvvvvvvvvv",
"vvvvvvvvvvvvvvvvvvvvvvvvvvvvvvvvvvvvv     @  0ccc% O>    v               vvvvvvvvvvvvvvvvvvvvvvvvvvvvvvvvvvvvv",
"vvvvvvvvvvvvvvvvvvvvvvvvvvvvvvvvvvvvv    *t  *,,*  *0    vv            vvvvvvvvvvvvvvvvvvvvvvvvvvvvvvvvvvvvvvv",
"vvvvvvvvvvvvvvvvvvvvvvvvvvvvvvvvvvvvv    0cO       40    vvv          vvvvvvvvvvvvvvvvvvvvvvvvvvvvvvvvvvvvvvvv",
"vvvvvvvvvvvvvvvvvvvvvvvvvvvvvvvvvvvvv    0c4X   O%,c4    vvvvvv    vvvvvvvvvvvvvvvvvvvvvvvvvvvvvvvvvvvvvvvvvvv",
"vvvvvvvvvvvvvvvvvvvvvvvvvvvvvvvvvvvvv    4cccccccccjO    vvvvvvvvvvvvvvvvvvvvvvvvvvvvvvvvvvvvvvvvvvvvvvvvvvvvv",
"vvvvvvvvvvvvvvvvvvvvvvvvvvvvvvvvvvvvv    Xtcccccccc*    vvvvvvvvvvvvvvvvvvvvvvvvvvvvvvvvvvvvvvvvvvvvvvvvvvvvvv",
"vvvvvvvvvvvvvvvvvvvvvvvvvvvvvvvvvvvvv     X3ccccca@     vvvvvvvvvvvvvvvvvvvvvvvvvvvvvvvvvvvvvvvvvvvvvvvvvvvvvv",
"vvvvvvvvvvvvvvvvvvvvvvvvvvvvvvvvvvvvvv      O307-      vvvvvvvvvvvvvvvvvvvvvvvvvvvvvvvvvvvvvvvvvvvvvvvvvvvvvvv",
"vvvvvvvvvvvvvvvvvvvvvvvvvvvvvvvvvvvvvvv               vvvvvvvvvvvvvvvvvvvvvvvvvvvvvvvvvvvvvvvvvvvvvvvvvvvvvvvv",
"vvvvvvvvvvvvvvvvvvvvvvvvvvvvvvvvvvvvvvvv             vvvvvvvvvvvvvvvvvvvvvvvvvvvvvvvvvvvvvvvvvvvvvvvvvvvvvvvvv",
"vvvvvvvvvvvvvvvvvvvvvvvvvvvvvvvvvvvvvvvvv           vvvvvvvvvvvvvvvvvvvvvvvvvvvvvvvvvvvvvvvvvvvvvvvvvvvvvvvvvv"
};
