/* XPM */
static char *result[] = {
/* columns rows colors chars-per-pixel */
"110 110 83 1 ",
"  c black",
". c #010000",
"X c #000100",
"o c #000001",
"O c #010001",
"+ c #000101",
"@ c #020000",
"# c #000200",
"$ c #070606",
"% c #060706",
"& c #070706",
"* c #070707",
"= c #181A15",
"- c #191A15",
"; c #191B15",
": c gray10",
"> c #1A1A1B",
", c #2B2B26",
"< c #2A2B27",
"1 c #2B2B27",
"2 c #2C2C2C",
"3 c #2D2C2C",
"4 c #3C3C36",
"5 c #3C3D36",
"6 c #3D3D36",
"7 c #3C3D37",
"8 c #3E3E3E",
"9 c #4D4E44",
"0 c #4D4E45",
"q c #4D4F45",
"w c #4F4F4E",
"e c gray31",
"r c #5D5E54",
"t c #5C5F54",
"y c #5D5F54",
"u c #5D5F55",
"i c #606060",
"p c #6D6E63",
"a c #6D6F63",
"s c gray44",
"d c #7D7F72",
"f c #7D7E73",
"g c #7C7F73",
"h c #7D7F73",
"j c #818181",
"k c #8C8F81",
"l c #8D8F81",
"z c #9C9F8E",
"x c #9C9F8F",
"c c #9D9F8F",
"v c #909090",
"b c #ACAE9D",
"n c #ADAE9D",
"m c #A0A0A0",
"M c #BBBEAA",
"N c #BABEAB",
"B c #BBBEAB",
"V c gray69",
"C c #CBCEB8",
"Z c #CBCEB9",
"A c #C0C0C0",
"S c #C0C0C1",
"D c #DADEC8",
"F c #DBDEC8",
"G c #DADFC8",
"H c #DADEC9",
"J c #D0D0D0",
"K c #EAEDD6",
"L c #EAEDD7",
"P c #EBEDD7",
"I c gray88",
"U c #EFEEEF",
"Y c #EFEFEF",
"T c #F8FCE4",
"R c #F9FCE4",
"E c #F8FDE4",
"W c #F8FCE5",
"Q c #F9FCE5",
"! c #FFFFFE",
"~ c #FFFEFF",
"^ c #FEFFFF",
"/ c white",
"( c None",
/* pixels */
"((((((((((((((((((((((((((((((((((((((((((((((((((((((((((((((((((((((((((((((((((((((((((((((((((((((((((((((",
"((((((((((((((((((((((((((((((((((((((((((((((((((((((((((((((((((((((((((((((((((((((((((((((((((((((((((((((",
"((((((((((((((((((((((((((((((((((((((((((((((((((((((((((((((((((((((((((((((((((((((((((((((((((((((((((((((",
"((((((((((((((((((((((((((((((((((((((((((((((((((((((((((((((((((((((((((((((((((((((((((((((((((((((((((((((",
"((((((((((((((((((((((((((((((((((((((((((((((((((((((((((((((((((((((((((((((((((((((((((((((((((((((((((((((",
"((((((((((((((((((((((((((((((((((((((((((((((((((((((((((((((((((((((((((((((((((((((((((((((((((((((((((((((",
"((((((((((((((((((((((((((((((((((((((((((((                 (((((((((((((((((((((((((((((((((((((((((((((((((",
"(((((((((((((((((((((((((((((((((((((((((   o           .        (((((((((((((((((((((((((((((((((((((((((((((",
"((((((((((((((((((((((((((((((((((((((                   .      .   ((((((((((((((((((((((((((((((((((((((((((",
"((((((((((((((((((((((((((((((((((((                                   (((((((((((((((((((((((((((((((((((((((",
"(((((((((((((((((((((((((((((((((((.        -ylBDTTTTTTBBxht1            (((((((((((((((((((((((((((((((((((((",
"(((((((((((((((((((((((((((((((((        -lDWTTTTTTTETTTTTTTTTBh6     .    (((((((((((((((((((((((((((((((((((",
"((((((((((((((((((((((((((((((((       5BTTTTTTTTWTTTTTTTTTTTTTTTKx5     .  ((((((((((((((((((((((((((((((((((",
"(((((((((((((((((((((((((((((((    X ;BTTTTTTTTTTTTTTWTTTTTTTTTTWTTTDyX      (((((((((((((((((((((((((((((((((",
"((((((((((((((((((((((((((((((      hTTTTTTTTTTTTTTTTTTTTTTTTTTTTTTTTTD0      o(((((((((((((((((((((((((((((((",
"(((((((((((((((((((((((((((((     &NTTTTTTTTTTTTTTTTTRTRTTTTTTTTTTTRTTTTb&      ((((((((((((((((((((((((((((((",
"((((((((((((((((((((((((((((     1DTTTTTTTTTTTTTTWTTTTTTTTTTTTTTTTTTTTRTTK7      (((((((((((((((((((((((((((((",
"(((((((((((((((((((((((((((     1KTTRTTTTTTTTTTTTTTTTTTTTTTTTTTTTTTTWTTTTTTy     (((((((((((((((((((((((((((((",
"((((((((((((((((((((((((((     1KTWTTTTTTTTTTTQTTTTTTTTTTTTTTTTTTTTTRTTRTTTTy   .X((((((((((((((((((((((((((((",
"(((((((((((((((((((((((((     1KTTTTTTTTTTTTTTTTTTTTTRTTTTTTTTTTTTTTTTTRTTTTTy     (((((((((((((((((((((((((((",
"((((((((((((((((((((((((     =KTTTTTTTTTTTTWWTTTTTTTTTTTTTTTTTTTTTTTTTTTTTTTTK1    (((((((((((((((((((((((((((",
"((((((((((((((((((((((((    &ZTTTTTTTTTTTTTTTTTTTTTTTTTTTTTTTTTTTTTTRTTTTTTTTTZ    .((((((((((((((((((((((((((",
"(((((((((((((((((((((((     bTTTTTTTTTWTTTTTTTTTTTETTTTTTTTTTTTTTTTTTTTTTTTTTTTy    ((((((((((((((((((((((((((",
"((((((((((((((((((((((     pTTRTTTTTTTTTTTTTTTTTTTTTTTTTTTTRTTTTTTTWTTTETTTTTTTD     (((((((((((((((((((((((((",
"((((((((((((((((((((((.   1TTTETTTTTTTTTTTTTTTTTT9-lTTTTTTTTTTTTTTTTTTTTTTTTRTTZ-    (((((((((((((((((((((((((",
"(((((((((((((((((((((    &DETTTTTTTTTTTTTTTTTTTQT   0KTQWTTTTTTTTTTTTTTTTTTTTGp      (((((((((((((((((((((((((",
"(((((((((((((((((((((    hTTRTTTTTTTTTTTTTTTTTTTTx&  -ZWTTTTTTTTTTTTTTTTTTZx5         ((((((((((((((((((((((((",
"((((((((((((((((((((     KTTTTTTTTTTTTTTRTTTTTTTTTD1X &ZTTTTTTTTTTTTTTKl0-     $xp    ((((((((((((((((((((((((",
"((((((((((((((((((((  o 0TTTTTTTTTTTTTTTTTTTTTTTTTTTyo &ZTTTTTTTTTEKl0           -    ((((((((((((((((((((((((",
"((((((((((((((((((((    xTTTWTTTRTTTTTTTTTTTWRTTTTTTTh .&DTTTTTTTTp                    (((((((((((((((((((((((",
"((((((((((((((((((((    ZTTRTTTTTTTTTTTTTTTTTRTTTTTTTTy  5TTTTTTTT-     *iVI//IV8       ((((((((((((((((((((((",
"((((((((((((((((((((.   TTTTTTTTTTTTTTTTTTTTTTTTTTTRTTT0  xTTTTWTTZ&  *jY/////^/^A8     ((((((((((((((((((((((",
"(((((((((((((((((((#   -TTTTTTTTTTTTTTTTTTTTTTTTTTRTTTTK& -TTTTTTTx  8Y////////////m     (((((((((((((((((((((",
"(((((((((((((((((((o   5TTTTTTTTTTTTTTETTTETTTTTTTTTTTTTho bTTTTTT- *Y//^///////////i    (((((((((((((((((((((",
"(((((((((((((((((((    5TTTTTTTRTTTTTTTTEWTTTTTTTTTTTTTTKo pTTTWTZ  s////////////^//Y*    ((((((((((((((((((((",
"(((((((((((((((((((    5TTTTTTTTTTTTTTTTTTTTTTTTTTTRTTTTT1 5TTTTTl  J!////!//////////s    ((((((((((((((((((((",
"((((((((((((((((((((  X-TRTTTTTTTTTTTTTTWTTTRTTTTTTTTTTTK- 5TWTTTh  //////////////AjIA    ((((((((((((((((((((",
"((((((((((((((((((((   XTTTTTTTWWTTTTTTTTTTTTTTTTTETTTKx&  hTTWTT5 :///~////////I:X *J    ((((((((((((((((((((",
"((((((((((((((((((((    LTWTTTTRTTTTTTTTTTTTTTETTTTKxy&   1KTTTTW5 2///////////~i    i:   ((((((((((((((((((((",
"(((((((((((((((((((( o  BTTTTTTTTTTTRTWTTTTTTWTZxp1     &hTTTTTTTh  ///!//!/////s.   s*   ((((((((((((((((((((",
"((((((((((((((((((((   XhTTTTTTTTTTTTTTTTZbhy5 O      0xTTTTTTTTTh  ////////////I*  *Io.  ((((((((((((((((((((",
"((((((((((((((((((((    0TTTTTTTTTTTTTTTx         1pbKTTTTTTTTTTTx  A/////^/////^IswJAX   ((((((((((((((((((((",
"((((((((((((((((((((    &TTTTTRTTTTTTTTTx    5ylBTTTTTTTTTTWTTTTTB  j//^/////////////s    ((((((((((((((((((((",
"(((((((((((((((((((((    bTTTTTTWTTTTTTTTCBTTTTTTTTTTTTTTTTTTTTTTT- &Y//////////////I*    ((((((((((((((((((((",
"(((((((((((((((((((((    yTTTTTTTWTWTTTTTTWTTTTTTTTTTTTTTTTTTTTTTTh  s/////^////////2     ((((((((((((((((((((",
"(((((((((((((((((((((    %KTTTRTTTTTTTTTTTTTTTTTTTTTTTTRTTTTTTEERTT-  m//////!////Y8      ((((((((((((((((((((",
"((((((((((((((((((((((   oxTTTTTTTTTTTTTTTTTTTTTDbhy55hDWTTTTTTRTWTZ   v/////////m:       ((((((((((((((((((((",
"((((((((((((((((((((((    -TTTTTTTTTTTETTTTTTby-       &pDTTTTTTTTTTx X >mI//!Jv:   11    ((((((((((((((((((((",
"(((((((((((((((((((((((    xTTTTTTTTTTTTTTDy$      &5-    pKTTTTTTTTTB%           &hT5    ((((((((((((((((((((",
"(((((((((((((((((((((((    -KWTTTTTTTTTTD5X    5hBTRTT   . -BTTTTTTTTTKh&       -hKWT-   (((((((((((((((((((((",
"(((((((((((((((((((((((     pTTTTTTTTTTZ&   1xKTTTTTTK       pKKh55xTTTTTbhhhhlZTTTTT    (((((((((((((((((((((",
"((((((((((((((((((((((((     BTTTTTTTTT0 o0ZTRTTTTTTTB  X     11   .yTn1 &yDTTKBhbDTb    (((((((((((((((((((((",
"(((((((((((((((((((((((((  o &ZTTTTTTTT  yTTTTTTTTTTTh  X        >*  5      xx&    01    (((((((((((((((((((((",
"(((((((((((((((((((((((((   . &xTTTTTDb  hTTTTTTTTTTT0 o     .  2YY: .  s8X o  .         (((((((((((((((((((((",
"((((((((((((((((((((((((((       545     0TTETTTTTTTT-    ((   XV//m   v/!m    mJS3     ((((((((((((((((((((((",
"(((((((((((((((((((((((((((              &TTTTTTTTTET    (((    ///A  */~//i  8^/!A    (((((((((((((((((((((((",
"((((((((((((((((((((((((((((         oo   ZTTTTTTTTTB    ((    2///V  8////A X8////*   (((((((((((((((((((((((",
"(((((((((((((((((((((((((((((@        .   yTTTTTTRTTB          :///8  8////J  *Y///2    ((((((((((((((((((((((",
"(((((((((((((((((((((((((((((((((         &ZTTTTTTTTB     .   + AV8   :////m   i//UX   (((((((((((((((((((((((",
"((((((((((((((((((((((((((((((((((((   X   &ZTTTTTTTT&     o           v//I:    eV2    (((((((((((((((((((((((",
"(((((((((((((((((((((((((((((((((((     h0  &ZTTTTTTTx                  28   1&        (((((((((((((((((((((((",
"(((((((((((((((((((((((((((((((((((    hTTy  &ZTTTTTTTDbdhhhhhbBlbBZTZ&  o  yTD5 X    ((((((((((((((((((((((((",
"((((((((((((((((((((((((((((((((((     LTTTy  &xTWTTTTTTTTTTTTTTTTTTTTDp55yBTTTWK1    ((((((((((((((((((((((((",
"((((((((((((((((((((((((((((((((((    yTTTTTp   hRTTTTTTTTTTTTTTTTTTTTETTTTWTTTTT5    ((((((((((((((((((((((((",
"((((((((((((((((((((((((((((((((((   onTTTTTTx   qKTTWTTTTTTTTTETTTTTTTTTTTTTTTTT-.  (((((((((((((((((((((((((",
"((((((((((((((((((((((((((((((((((    bTTTTTTT5   -ZTTWTTTTTTTTTTTTTTTTTTTTTTTTTT  . (((((((((((((((((((((((((",
"((((((((((((((((((((((((((((((((((    hTTTTWTT-     hTTETTTTTTTTTTTTTTTTTTTTTTTTK   .(((((((((((((((((((((((((",
"((((((((((((((((((((((((((((((((((  . 5RTTTTTT  hp   1bTTTTTTTTTTTTTTTTTTTTTTTTTb    (((((((((((((((((((((((((",
"((((((((((((((((((((((((((((((((((    &TTTTTTZ. lTb&    50hhxBBNBMBBBBBBBBBkhhy5&    (((((((((((((((((((((((((",
"(((((((((((((((((((((((((((((((((((    DTTTTTb  155-                                 (((((((((((((((((((((((((",
"(((((((((((((((((((((((((((((((((((    -bTRTTy         a5&       X  o           .   ((((((((((((((((((((((((((",
"((((((((((((((((((((((((((((((((((    o  -xKK&  O    X xTTTKx    . .            .  (((((((((((((((((((((((((((",
"((((((((((((((((((((((((((((((((((    - .              1TTTTT&                  @(((((((((((((((((((((((((((((",
"(((((((((((((((((((((((((((((((((( o  hFp&    1&        TTTTTu        ((((((((((((((((((((((((((((((((((((((((",
"((((((((((((((((((((((((((((((((((    bTTTbhhlPx        BTTTTb    X   ((((((((((((((((((((((((((((((((((((((((",
"((((((((((((((((((((((((((((((((((  . DTTTTTTTTTDfh555 opTTTTK        ((((((((((((((((((((((((((((((((((((((((",
"(((((((((((((((((((((((((((((((((( . &TTTTTTWTTTTTTTTE1O-TTTTT,        (((((((((((((((((((((((((((((((((((((((",
"(((((((((((((((((((((((((((((((((  o 5TTTTTTTTTTTRTTTTlo xTTTTr  KyX   (((((((((((((((((((((((((((((((((((((((",
"(((((((((((((((((((((((((((((((((    pTTTTWTTTTTTTTTTTK& -TTTTy  Bb    (((((((((((((((((((((((((((((((((((((((",
"((((((((((((((((((((((((((((((((o    hTTTTTxhxBKTTTTTTTh  lTTb   &H    (((((((((((((((((((((((((((((((((((((((",
"((((((((((((((((((((((((((((((((     yTTTW0      &55phhx.  Zx%    h1    ((((((((((((((((((((((((((((((((((((((",
"((((((((((((((((((((((((((((((        BTTx                     x-.     (((((((((((((((((((((((((((((((((((((((",
"(((((((((((((((((((((((((((((  o   1  -KW- &KBBhh  &         &xTh      (((((((((((((((((((((((((((((((((((((((",
"((((((((((((((((((((((((((((O     &Dp .5z  hTTTTh  lx        &TTK&      ((((((((((((((((((((((((((((((((((((((",
"(((((((((((((((((((((((((((    . 5ZTT1    &KTTTZ. &KTx       +pRTn    X   ((((((((((((((((((((((((((((((((((((",
"(((((((((((((((((((((((((((    1BTRTT5  X hTTTK- obTTTh        DTTy      o (((((((((((((((((((((((((((((((((((",
"(((((((((((((((((((((((((((    5ZTETT&   5WTTK1  pTTTTT0       1TTTy o    X(((((((((((((((((((((((((((((((((((",
"(((((((((((((((((((((((((((     -TTb5&   1KTK1 . xTTTTTK1       lTTTl      (((((((((((((((((((((((((((((((((((",
"(((((((((((((((((((((((((((( X   h0   X&  1D1    X-xTTTx-       5TTTh     .(((((((((((((((((((((((((((((((((((",
"((((((((((((((((((((((((((((          hEy.          5h&         &TTTh     ((((((((((((((((((((((((((((((((((((",
"(((((((((((((((((((((((((((((.  o    lTTT-               1&     1TTTho.   ((((((((((((((((((((((((((((((((((((",
"(((((((((((((((((((((((((((((       0TTTD    X .       XbTKh   .-B05& .     ((((((((((((((((((((((((((((((((((",
"((((((((((((((((((((((((((((       &KTTTh     (         hTTTZ-  o    o        ((((((((((((((((((((((((((((((((",
"((((((((((((((((((((((((((         bTTTK&    ((((       &ZTTTK0               ((((((((((((((((((((((((((((((((",
"((((((((((((((((((((((((((        5TTTTh   .(((((((      &bTTTTyo              (((((((((((((((((((((((((((((((",
"(((((((((((((((((((((((((     <l  pTTTZ     ((((((((       xTTTT0  -hhhp       (((((((((((((((((((((((((((((((",
"(((((((((((((((((((((((((  X  1Z   5xK1 .  ((((((((((       gRTK-  5TTK1       (((((((((((((((((((((((((((((((",
"((((((((((((((((((((((((((     1p&         (((((((((((       0D<   ZKh&        (((((((((((((((((((((((((((((((",
"((((((((((((((((((((((((((      &hy     .  (((((((((((            lh&         ((((((((((((((((((((((((((((((((",
"(((((((((((((((((((((((((((( . o  5Dh41    ((((((((((((        o h1        X (((((((((((((((((((((((((((((((((",
"(((((((((((((((((((((((((((((      1KTT-.   (((((((((((       hhy%          ((((((((((((((((((((((((((((((((((",
"((((((((((((((((((((((((((((((      1KTy    ((((((((((((      y-          ((((((((((((((((((((((((((((((((((((",
"(((((((((((((((((((((((((((((((      &Zc    (((((((((((((            X  ((((((((((((((((((((((((((((((((((((((",
"(((((((((((((((((((((((((((((((((  X X u&    ((((((((((((             ((((((((((((((((((((((((((((((((((((((((",
"((((((((((((((((((((((((((((((((((      XX   (((((((((((((           (((((((((((((((((((((((((((((((((((((((((",
"(((((((((((((((((((((((((((((((((((         ((((((((((((((          ((((((((((((((((((((((((((((((((((((((((((",
"((((((((((((((((((((((((((((((((((((        ((((((((((((((( X     ((((((((((((((((((((((((((((((((((((((((((((",
"((((((((((((((((((((((((((((((((((((((o     (((((((((((((((((   ((((((((((((((((((((((((((((((((((((((((((((((",
"(((((((((((((((((((((((((((((((((((((((   ((((((((((((((((((((((((((((((((((((((((((((((((((((((((((((((((((((",
"(((((((((((((((((((((((((((((((((((((((((((((((((((((((((((((((((((((((((((((((((((((((((((((((((((((((((((((("
};
