/* XPM */
static char *result[] = {
/* columns rows colors chars-per-pixel */
"110 110 34 1 ",
"  c black",
". c #10100E",
"X c #101010",
"o c #1F201C",
"O c #202020",
"+ c #2F2F2B",
"@ c gray19",
"# c #3E3F39",
"$ c gray25",
"% c #4E4F47",
"& c #505050",
"* c #5D5F55",
"= c #606060",
"- c #6D6E63",
"; c gray44",
": c #7C7E72",
"> c #808080",
", c #8C8E80",
"< c gray56",
"1 c #9B9E8E",
"2 c #9F9F9F",
"3 c #ABAD9C",
"4 c #AFAFAF",
"5 c #BABDAA",
"6 c gray75",
"7 c #CACDB8",
"8 c gray81",
"9 c #D9DDC7",
"0 c #DFDFDF",
"q c #E9ECD5",
"w c #EFEFEF",
"e c #F8FCE3",
"r c white",
"t c None",
/* pixels */
"tttttttttttttttttttttttttttttttttttttttttttttttttttttttttttttttttttttttttttttttttttttttttttttttttttttttttttttt",
"tttttttttttttttttttttttttttttttttttttttttttttttttttttttttttttttttttttttttttttttttttttttttttttttttttttttttttttt",
"tttttttttttttttttttttttttttttttttttttttttttttttttttttttttttttttttttttttttttttttttttttttttttttttttttttttttttttt",
"tttttttttttttttttttttttttttttttttttttttttttttttttttttttttttttttttttttttttttttttttttttttttttttttttttttttttttttt",
"tttttttttttttttttttttttttttttttttttttttttttttttttttttttttttttttttttttttttttttttttttttttttttttttttttttttttttttt",
"tttttttttttttttttttttttttttttttttttttttttttttttttttttttttttttttttttttttttttttttttttttttttttttttttttttttttttttt",
"ttttttttttttttttttttttttttttttttttttttttttttttttt                 tttttttttttttttttttttttttttttttttttttttttttt",
"ttttttttttttttttttttttttttttttttttttttttttttt                        ttttttttttttttttttttttttttttttttttttttttt",
"tttttttttttttttttttttttttttttttttttttttttt                              tttttttttttttttttttttttttttttttttttttt",
"ttttttttttttttttttttttttttttttttttttttt                                   tttttttttttttttttttttttttttttttttttt",
"ttttttttttttttttttttttttttttttttttttt            +*:155eeeeee95,*o         ttttttttttttttttttttttttttttttttttt",
"ttttttttttttttttttttttttttttttttttt          #:5eeeeeeeeeeeeeeeeee9,o        ttttttttttttttttttttttttttttttttt",
"tttttttttttttttttttttttttttttttttt        #1qeeeeeeeeeeeeeeeeeeeeeeee5#       tttttttttttttttttttttttttttttttt",
"ttttttttttttttttttttttttttttttttt       *9eeeeeeeeeeeeeeeeeeeeeeeeeeeee5o      ttttttttttttttttttttttttttttttt",
"ttttttttttttttttttttttttttttttt       %9eeeeeeeeeeeeeeeeeeeeeeeeeeeeeeeee:      tttttttttttttttttttttttttttttt",
"tttttttttttttttttttttttttttttt      .3eeeeeeeeeeeeeeeeeeeeeeeeeeeeeeeeeeee5.     ttttttttttttttttttttttttttttt",
"ttttttttttttttttttttttttttttt      #qeeeeeeeeeeeeeeeeeeeeeeeeeeeeeeeeeeeeee9+     tttttttttttttttttttttttttttt",
"ttttttttttttttttttttttttttttt     *eeeeeeeeeeeeeeeeeeeeeeeeeeeeeeeeeeeeeeeeeq+     ttttttttttttttttttttttttttt",
"tttttttttttttttttttttttttttt     *eeeeeeeeeeeeeeeeeeeeeeeeeeeeeeeeeeeeeeeeeeeq+     tttttttttttttttttttttttttt",
"ttttttttttttttttttttttttttt     *eeeeeeeeeeeeeeeeeeeeeeeeeeeeeeeeeeeeeeeeeeeeeq+     ttttttttttttttttttttttttt",
"ttttttttttttttttttttttttttt    +qeeeeeeeeeeeeeeeeeeeeeeeeeeeeeeeeeeeeeeeeeeeeeeqo     tttttttttttttttttttttttt",
"tttttttttttttttttttttttttt     7eeeeeeeeeeeeeeeeeeeeeeeeeeeeeeeeeeeeeeeeeeeeeeee7.    tttttttttttttttttttttttt",
"tttttttttttttttttttttttttt    *eeeeeeeeeeeeeeeeeeeeeeeeeeeeeeeeeeeeeeeeeeeeeeeeee3     ttttttttttttttttttttttt",
"ttttttttttttttttttttttttt     9eeeeeeeeeeeeeeeeeeeeeeeeeeeeeeeeeeeeeeeeeeeeeeeeeee-     tttttttttttttttttttttt",
"ttttttttttttttttttttttttt    o7eeeeeeeeeeeeeeeeeeeeeeeeeee,o%eeeeeeeeeeeeeeeeeeeeee+    tttttttttttttttttttttt",
"ttttttttttttttttttttttttt      -9eeeeeeeeeeeeeeeeeeeeeeeq%   eeeeeeeeeeeeeeeeeeeeee9.    ttttttttttttttttttttt",
"tttttttttttttttttttttttt         #17eeeeeeeeeeeeeeeeeee7o  .1eeeeeeeeeeeeeeeeeeeeeee:    ttttttttttttttttttttt",
"tttttttttttttttttttttttt    -1.     o%,qeeeeeeeeeeeeee7.  +9eeeeeeeeeeeeeeeeeeeeeeeeq     tttttttttttttttttttt",
"tttttttttttttttttttttttt    o           %,qeeeeeeeeee7.  *eeeeeeeeeeeeeeeeeeeeeeeeeee%    tttttttttttttttttttt",
"ttttttttttttttttttttttt                    -eeeeeeee9.  :eeeeeeeeeeeeeeeeeeeeeeeeeeee1    tttttttttttttttttttt",
"tttttttttttttttttttttt       $40rr04=X     oeeeeeeee#  *eeeeeeeeeeeeeeeeeeeeeeeeeeeee7    tttttttttttttttttttt",
"tttttttttttttttttttttt     $6rrrrrrrrw>X  .7eeeeeee1  %eeeeeeeeeeeeeeeeeeeeeeeeeeeeeee    tttttttttttttttttttt",
"ttttttttttttttttttttt     2rrrrrrrrrrrrw$  1eeeeeeeo .qeeeeeeeeeeeeeeeeeeeeeeeeeeeeeeeo    ttttttttttttttttttt",
"ttttttttttttttttttttt    =rrrrrrrrrrrrrrwX oeeeeee3  :eeeeeeeeeeeeeeeeeeeeeeeeeeeeeeee#    ttttttttttttttttttt",
"tttttttttttttttttttt    Xwrrrrrrrrrrrrrrr;  7eeeee-  qeeeeeeeeeeeeeeeeeeeeeeeeeeeeeeee#    ttttttttttttttttttt",
"tttttttttttttttttttt    ;rrrrrrrrrrrrrrrr8  ,eeeee# +eeeeeeeeeeeeeeeeeeeeeeeeeeeeeeeee#    ttttttttttttttttttt",
"tttttttttttttttttttt    60>6rrrrrrrrrrrrrr  :eeeee# oqeeeeeeeeeeeeeeeeeeeeeeeeeeeeeeeeo   tttttttttttttttttttt",
"tttttttttttttttttttt    8X  O0rrrrrrrrrrrrO #eeeee:  .1qeeeeeeeeeeeeeeeeeeeeeeeeeeeeee    tttttttttttttttttttt",
"tttttttttttttttttttt   O=    =rrrrrrrrrrrr@ #eeeeeq+   .*1qeeeeeeeeeeeeeeeeeeeeeeeeeeq    tttttttttttttttttttt",
"tttttttttttttttttttt   X;    ;rrrrrrrrrrrr  :eeeeeee:.     +-17eeeeeeeeeeeeeeeeeeeeee5    tttttttttttttttttttt",
"tttttttttttttttttttt    0X  X0rrrrrrrrrrrr  :eeeeeeeee1%        #*:37eeeeeeeeeeeeeeee:    tttttttttttttttttttt",
"tttttttttttttttttttt    68&;0rrrrrrrrrrrr6  1eeeeeeeeeeeq3-+         1eeeeeeeeeeeeeee%    tttttttttttttttttttt",
"tttttttttttttttttttt    ;rrrrrrrrrrrrrrrr>  5eeeeeeeeeeeeeeee5,*#    1eeeeeeeeeeeeeee.    tttttttttttttttttttt",
"tttttttttttttttttttt    X0rrrrrrrrrrrrrrwX oeeeeeeeeeeeeeeeeeeeeeee57eeeeeeeeeeeeeee3    ttttttttttttttttttttt",
"tttttttttttttttttttt     @rrrrrrrrrrrrrr;  :eeeeeeeeeeeeeeeeeeeeeeeeeeeeeeeeeeeeeeee*    ttttttttttttttttttttt",
"tttttttttttttttttttt      $wrrrrrrrrrrr2  oeeeeeeeeeeeeeeeeeeeeeeeeeeeeeeeeeeeeeeeeq.    ttttttttttttttttttttt",
"tttttttttttttttttttt       O2rrrrrrrrr<   7eeeeeeeeeee9:##*:39eeeeeeeeeeeeeeeeeeeee1    tttttttttttttttttttttt",
"tttttttttttttttttttt    ++   O<8rrr02O   1eeeeeeeeee9-.       o*3eeeeeeeeeeeeeeeeeeo    tttttttttttttttttttttt",
"tttttttttttttttttttt    #e:.           .5eeeeeeeeeq-    o#.      .*9eeeeeeeeeeeeee1    ttttttttttttttttttttttt",
"ttttttttttttttttttttt   oeeq:o       .:qeeeeeeeee5o     eeee5:#     #9eeeeeeeeeeeqo    ttttttttttttttttttttttt",
"ttttttttttttttttttttt    eeeee7,::::3eeeee1##:qq-       qeeeeeeq1+   .7eeeeeeeeee-     ttttttttttttttttttttttt",
"ttttttttttttttttttttt    3e93:5qee9*. +3e*    ++        5eeeeeeeee7%  %eeeeeeeee5     tttttttttttttttttttttttt",
"ttttttttttttttttttttt    +%    .11      #  XO           :eeeeeeeeeee*  eeeeeeee7.    ttttttttttttttttttttttttt",
"ttttttttttttttttttttt               $;    Oww@          %eeeeeeeeeee:  39eeeee1.     ttttttttttttttttttttttttt",
"tttttttttttttttttttttt     @682    2rr<   2rr4    tt    oeeeeeeeeeee%     ###       tttttttttttttttttttttttttt",
"ttttttttttttttttttttttt    6rrr$  =rrrrX  6rrr    ttt    eeeeeeeeeee.              ttttttttttttttttttttttttttt",
"ttttttttttttttttttttttt   Xrrrr$  6rrrr$  4rrr@    tt    5eeeeeeeee7              tttttttttttttttttttttttttttt",
"tttttttttttttttttttttt    @rrrwX  8rrrr$  $rrrO          5eeeeeeeee*             ttttttttttttttttttttttttttttt",
"ttttttttttttttttttttttt    wrr=   2rrrrO   $46           5eeeeeeee7.         ttttttttttttttttttttttttttttttttt",
"ttttttttttttttttttttttt    @4&    O0rr<                 .eeeeeeee7.       tttttttttttttttttttttttttttttttttttt",
"ttttttttttttttttttttttt        .+   $@                  1eeeeeee7.  %:     ttttttttttttttttttttttttttttttttttt",
"tttttttttttttttttttttttt      #9e*     .7e753,53::::::39eeeeeee7.  *ee:    ttttttttttttttttttttttttttttttttttt",
"tttttttttttttttttttttttt    +qeeee5*##-9eeeeeeeeeeeeeeeeeeeeee1.  *eeeq     tttttttttttttttttttttttttttttttttt",
"tttttttttttttttttttttttt    #eeeeeeeeeeeeeeeeeeeeeeeeeeeeeeee:   -eeeee*    tttttttttttttttttttttttttttttttttt",
"ttttttttttttttttttttttttt   oeeeeeeeeeeeeeeeeeeeeeeeeeeeeeeq%   1eeeeee3    tttttttttttttttttttttttttttttttttt",
"ttttttttttttttttttttttttt    eeeeeeeeeeeeeeeeeeeeeeeeeeeee7o   #eeeeeee3    tttttttttttttttttttttttttttttttttt",
"ttttttttttttttttttttttttt    qeeeeeeeeeeeeeeeeeeeeeeeeeee:     oeeeeeee:    tttttttttttttttttttttttttttttttttt",
"ttttttttttttttttttttttttt    3eeeeeeeeeeeeeeeeeeeeeeeee3+   -:  eeeeeee#    tttttttttttttttttttttttttttttttttt",
"ttttttttttttttttttttttttt    .#*::,555555555555551::%#    .3e,  7eeeeee.    tttttttttttttttttttttttttttttttttt",
"ttttttttttttttttttttttttt                                 o##+  3eeeee9    ttttttttttttttttttttttttttttttttttt",
"tttttttttttttttttttttttttt                          .#-         *eeee3o    ttttttttttttttttttttttttttttttttttt",
"ttttttttttttttttttttttttttt                      1qeee1         .qq1o       tttttttttttttttttttttttttttttttttt",
"ttttttttttttttttttttttttttttt                   .eeeee+                o    tttttttttttttttttttttttttttttttttt",
"tttttttttttttttttttttttttttttttttttttttt        *eeeee        .+    .-9:    tttttttttttttttttttttttttttttttttt",
"tttttttttttttttttttttttttttttttttttttttt        3eeee5        1q,::3eee3    tttttttttttttttttttttttttttttttttt",
"tttttttttttttttttttttttttttttttttttttttt        qeeee-  ###::9eeeeeeeee9    tttttttttttttttttttttttttttttttttt",
"ttttttttttttttttttttttttttttttttttttttt        +eeeeeo +eeeeeeeeeeeeeeee.   tttttttttttttttttttttttttttttttttt",
"ttttttttttttttttttttttttttttttttttttttt    *q  *eeee1  ,eeeeeeeeeeeeeeee#    ttttttttttttttttttttttttttttttttt",
"ttttttttttttttttttttttttttttttttttttttt    35  *eeeeo .qeeeeeeeeeeeeeeee-    ttttttttttttttttttttttttttttttttt",
"ttttttttttttttttttttttttttttttttttttttt    9.   3ee,  :eeeeeeeq51:1eeeee:     tttttttttttttttttttttttttttttttt",
"tttttttttttttttttttttttttttttttttttttt    +:    .17   1::-##.      %eeee*     tttttttttttttttttttttttttttttttt",
"ttttttttttttttttttttttttttttttttttttttt      o1                     1ee5        tttttttttttttttttttttttttttttt",
"ttttttttttttttttttttttttttttttttttttttt      :e1.         .  ::55q. oeqo  +      ttttttttttttttttttttttttttttt",
"tttttttttttttttttttttttttttttttttttttt      .qee.        1,  :eeee:  1#  -9.      tttttttttttttttttttttttttttt",
"tttttttttttttttttttttttttttttttttttt        3ee-        1eq.  7eeeq.    +ee7#      ttttttttttttttttttttttttttt",
"ttttttttttttttttttttttttttttttttttt        *ee9        :eee3  oqeee:    #eeee5+    ttttttttttttttttttttttttttt",
"ttttttttttttttttttttttttttttttttttt       *eee+       %eeeee-  +qeee#   .eeee7#    ttttttttttttttttttttttttttt",
"ttttttttttttttttttttttttttttttttttt      ,eee,       +qeeeee1   +qeq+   .#3eeo     ttttttttttttttttttttttttttt",
"ttttttttttttttttttttttttttttttttttt      :eee#       o1eee1o     +9+  .    %:     tttttttttttttttttttttttttttt",
"tttttttttttttttttttttttttttttttttttt     :eee.         .:#           *e:          tttttttttttttttttttttttttttt",
"tttttttttttttttttttttttttttttttttttt     :eee+     .+               oeee,        ttttttttttttttttttttttttttttt",
"tttttttttttttttttttttttttttttttttt       .#%5o    :qe3               9eee%       ttttttttttttttttttttttttttttt",
"tttttttttttttttttttttttttttttttt                o7eee:         t     :eeeq.       tttttttttttttttttttttttttttt",
"tttttttttttttttttttttttttttttttt               %qeee7.       tttt    .qeee3         tttttttttttttttttttttttttt",
"ttttttttttttttttttttttttttttttt               *eeee3.      ttttttt    :eeee#        tttttttttttttttttttttttttt",
"ttttttttttttttttttttttttttttttt       -:::o  %eeee1       tttttttt     7eee-  ,+     ttttttttttttttttttttttttt",
"ttttttttttttttttttttttttttttttt       +qee#  oqee:       tttttttttt    +q1#   7+     ttttttttttttttttttttttttt",
"ttttttttttttttttttttttttttttttt        .:q7   +9%       ttttttttttt         .-+     tttttttttttttttttttttttttt",
"tttttttttttttttttttttttttttttttt         .:,            ttttttttttt        *:.      tttttttttttttttttttttttttt",
"ttttttttttttttttttttttttttttttttt          +:          tttttttttttt    +#:9#      tttttttttttttttttttttttttttt",
"tttttttttttttttttttttttttttttttttt          .*::       ttttttttttt    oeeq+      ttttttttttttttttttttttttttttt",
"tttttttttttttttttttttttttttttttttttt          o*      tttttttttttt    *eq+      tttttttttttttttttttttttttttttt",
"tttttttttttttttttttttttttttttttttttttt               ttttttttttttt    17.      ttttttttttttttttttttttttttttttt",
"tttttttttttttttttttttttttttttttttttttttt             tttttttttttt    .*      ttttttttttttttttttttttttttttttttt",
"ttttttttttttttttttttttttttttttttttttttttt           ttttttttttttt           tttttttttttttttttttttttttttttttttt",
"tttttttttttttttttttttttttttttttttttttttttt          tttttttttttttt         ttttttttttttttttttttttttttttttttttt",
"tttttttttttttttttttttttttttttttttttttttttttt       ttttttttttttttt        tttttttttttttttttttttttttttttttttttt",
"tttttttttttttttttttttttttttttttttttttttttttttt   ttttttttttttttttt      tttttttttttttttttttttttttttttttttttttt",
"tttttttttttttttttttttttttttttttttttttttttttttttttttttttttttttttttttt   ttttttttttttttttttttttttttttttttttttttt",
"tttttttttttttttttttttttttttttttttttttttttttttttttttttttttttttttttttttttttttttttttttttttttttttttttttttttttttttt"
};
