/* XPM */
static char *result[] = {
/* columns rows colors chars-per-pixel */
"110 110 34 1 ",
"  c black",
". c #10100E",
"X c #101010",
"o c #1F201C",
"O c #202020",
"+ c #2F2F2B",
"@ c gray19",
"# c #3E3F39",
"$ c gray25",
"% c #4E4F47",
"& c #505050",
"* c #5D5F55",
"= c #606060",
"- c #6D6E63",
"; c gray44",
": c #7C7E72",
"> c #808080",
", c #8C8E80",
"< c gray56",
"1 c #9B9E8E",
"2 c #9F9F9F",
"3 c #ABAD9C",
"4 c #AFAFAF",
"5 c #BABDAA",
"6 c gray75",
"7 c #CACDB8",
"8 c gray81",
"9 c #D9DDC7",
"0 c #DFDFDF",
"q c #E9ECD5",
"w c #EFEFEF",
"e c #F8FCE3",
"r c white",
"t c None",
/* pixels */
"tttttttttttttttttttttttttttttttttttttttttttttttttttttttttttttttttttttttttttttttttttttttttttttttttttttttttttttt",
"tttttttttttttttttttttttttttttttttttttttttttttttttttttttttttttttttttttttttttttttttttttttttttttttttttttttttttttt",
"tttttttttttttttttttttttttttttttttttttttttttttttttttttttttttttttttttttttttttttttttttttttttttttttttttttttttttttt",
"tttttttttttttttttttttttttttttttttttttttttttttttttttttttttttttttttttttttttttttttttttttttttttttttttttttttttttttt",
"tttttttttttttttttttttttttttttttttttttttttttttttttttttttttttttttttttttttttttttttttttttttttttttttttttttttttttttt",
"ttttttttttttttttttttttttttttttttttttttttttttttt                   tttttttttttttttttttttttttttttttttttttttttttt",
"ttttttttttttttttttttttttttttttttttttttttttt                            ttttttttttttttttttttttttttttttttttttttt",
"tttttttttttttttttttttttttttttttttttttttt                                  tttttttttttttttttttttttttttttttttttt",
"tttttttttttttttttttttttttttttttttttttt                                      tttttttttttttttttttttttttttttttttt",
"tttttttttttttttttttttttttttttttttttt           .#-:15555555555,:*#            tttttttttttttttttttttttttttttttt",
"tttttttttttttttttttttttttttttttttt         .*19eeeeeeeeeeeeeeeeeeee71%.        ttttttttttttttttttttttttttttttt",
"ttttttttttttttttttttttttttttttttt        *5eeeeeeeeeeeeeeeeeeeeeeeeeeee3%        ttttttttttttttttttttttttttttt",
"tttttttttttttttttttttttttttttttt      .:qeeeeeeeeeeeeeeeeeeeeeeeeeeeeeeee9*       tttttttttttttttttttttttttttt",
"ttttttttttttttttttttttttttttttt      *qeeeeeeeeeeeeeeeeeeeeeeeeeeeeeeeeeeee7#      ttttttttttttttttttttttttttt",
"tttttttttttttttttttttttttttttt     .5eeeeeeeeeeeeeeeeeeeeeeeeeeeeeeeeeeeeeeee,      tttttttttttttttttttttttttt",
"ttttttttttttttttttttttttttttt     +qeeeeeeeeeeeeeeeeeeeeeeeeeeeeeeeeeeeeeeeeee7.     ttttttttttttttttttttttttt",
"tttttttttttttttttttttttttttt     %qeeeeeeeeeeeeeeeeeeeeeeeeeeeeeeeeeeeeeeeeeeeeq+     tttttttttttttttttttttttt",
"ttttttttttttttttttttttttttt     +eeeeeeeeeeeeeeeeeeeeeeeeeeeeeeeeeeeeeeeeeeeeeeeqo     ttttttttttttttttttttttt",
"ttttttttttttttttttttttttttt    +qeeeeeeeeeeeeeeeeeeeeeeeeeeeeeeeeeeeeeeeeeeeeeeee7.    ttttttttttttttttttttttt",
"tttttttttttttttttttttttttt    .7eeeeeeeeeeeeeeeeeeeeeeeeeeeeeeeeeeeeeeeeeeeeeeeeee3     tttttttttttttttttttttt",
"ttttttttttttttttttttttttt     ,eeeeeeeeeeeeeeeeeeeeeeeeeeeeeeeeeeeeeeeeeeeeeeeeeeee%    tttttttttttttttttttttt",
"ttttttttttttttttttttttttt    +eeeeeeeeeeeeeeeeeeeeeeeeeeeeeeeeeeeeeeeeeeeeeeeeeeeeeq.    ttttttttttttttttttttt",
"ttttttttttttttttttttttttt    5eeeeeeeeeeeeeeeeeeeeeeeeeeeeeeeeeeeeeeeeeeeeeeeeeeeeee:    ttttttttttttttttttttt",
"tttttttttttttttttttttttt    oeeeeeeeeeeeeeeeeeeeeeeeeeeeeeeeeeeeeeeeeeeeeeeeeeeeeeeeq     tttttttttttttttttttt",
"tttttttttttttttttttttttt    ,eeeeeeeeeeeeeeeeeeeeeeeeeeeeeeeeeeeeeeeeeeeeeeeeeeeeeeee*    tttttttttttttttttttt",
"tttttttttttttttttttttttt    qeeeeeeeeeeeeeeeeeeeeeeeeeeeeeeeeeeeeeeeeeeeeeeeeeeeeeeee3    tttttttttttttttttttt",
"ttttttttttttttttttttttt    +eeeeeeeeeeeeeeeeeeeeeeeeeeeeeeeeeeeeeeeeeeeeeeeeeeeeeeeeee     ttttttttttttttttttt",
"ttttttttttttttttttttttt    -eeeeeeeeeeeeeeeeeeeeeeeeeeeeeeeeeeeeeeeeeeeeeeeeeeeeeeeeee#    ttttttttttttttttttt",
"ttttttttttttttttttttttt    1eeeeeeeeeeeeeeeeeeeeeeeeeeeeeeeeeeeeeeeeeeeeeeeeeeeeeeeeee-    ttttttttttttttttttt",
"ttttttttttttttttttttttt    5eeeeeeeeeeeeeeeeeeeeeeeeeeeeeeeeeeeeeeeeeeeeeeeeeeeeeeeeee:    ttttttttttttttttttt",
"ttttttttttttttttttttttt    5eeeeeeeeeeeeeeeeee59eeeeeeeeeeeeeeeeee9eeeeeeeeeeeeeeeeeee1    ttttttttttttttttttt",
"ttttttttttttttttttttttt    5eeeeeeeeeeeeeeeq:. oeeeeeeeeeeeeeeeeq. #5eeeeeeeeeeeeeeeee5    ttttttttttttttttttt",
"ttttttttttttttttttttttt    5eeeeeeeeeeeee9-.   +eeeeeeeeeeeeeeee9    #1qeeeeeeeeeeeeee5    ttttttttttttttttttt",
"ttttttttttttttttttttttt    5eeeeeeeeeeq,+    o1qeeeeeeeeeeeeeeeee5*    .%:3eeeeeeeeeee5    ttttttttttttttttttt",
"ttttttttttttttttttttttt    5eeeeeeeeq:.      .*3eeeeeeeeeeeeeeeeeq-         o-3eeeeeee:    ttttttttttttttttttt",
"ttttttttttttttttttttttt    5eeeeee9-.           o1eeeeeeeeeeeeee,.              %7eeee:    ttttttttttttttttttt",
"ttttttttttttttttttttttt    3eeeee%     $2666>&    #qeeeeeeeeeeq+   @4wrrr02&     :eeee:    ttttttttttttttttttt",
"ttttttttttttttttttttttt    :eeee1    @6rrrrrrr0>X  +eeeeeeeeee%  X<rrrrrrrrr0=   5eeee#    ttttttttttttttttttt",
"ttttttttttttttttttttttt    *eeee9   <rrrrrrrrrrrw$  :eeeeeeee1  @wrrrrrrrrrrrr>  :eeee+    ttttttttttttttttttt",
"ttttttttttttttttttttttt    +eeee,  =rrrrrrrrrrrrrwX .eeeeeeeeo X0rrrrrrrrrrrrrrO .eeeq    tttttttttttttttttttt",
"tttttttttttttttttttttttt    qeeeo Owrrrrrrrrrrrrrr2  1eeeeee7  >rrrrrrrrrrrrrrr<  5ee3    tttttttttttttttttttt",
"tttttttttttttttttttttttt    1ee7  ;rrrrrrrrrrrrrrrw  -eeeeee:  0rrrrrrrrrrrrrrr0  :ee-    tttttttttttttttttttt",
"tttttttttttttttttttttttt    *ee:  8rrrrr>&wrrrrrrrr$ #eeeeee# Orrrrrr>$<wrrrrrrr  :ee+    tttttttttttttttttttt",
"tttttttttttttttttttttttt    #ee% Orrrrr2  O4rrrrrrr$ #eeeeee# $rrrrr;   Owrrrrrr  :ee    ttttttttttttttttttttt",
"tttttttttttttttttttttttt    #ee# $rrrrr$   Xrrrrrrr$ #eeeeee# $rrrrr$    6rrrrrr  :ee    ttttttttttttttttttttt",
"tttttttttttttttttttttttt    #ee# $rrrrr     6rrrrrr$ #eeeeee# $rrrrr&    0rrrrrr  :ee    ttttttttttttttttttttt",
"tttttttttttttttttttttttt    #ee# Orrrrr=   X0rrrrrr@ #eeeeee% XrrrrrwO  2rrrrrr0  :ee    ttttttttttttttttttttt",
"tttttttttttttttttttttttt    #ee:  wrrrrw>>60rrrrrrw  -eeeeee,  8rrrrr060rrrrrrr2  5ee    ttttttttttttttttttttt",
"tttttttttttttttttttttttt    #ee3  >rrrrrrrrrrrrrrr>  1eeeeee7  =rrrrrrrrrrrrrrr$  qee    ttttttttttttttttttttt",
"tttttttttttttttttttttttt    #eeeo X8rrrrrrrrrrrrrwX .qeeeeeee#  6rrrrrrrrrrrrr4  *eee    ttttttttttttttttttttt",
"ttttttttttttttttttttttttt    eee3  X8rrrrrrrrrrrw@  ,95eee77e7  X8rrrrrrrrrrr8X .9ee9    ttttttttttttttttttttt",
"ttttttttttttttttttttttttt    qeee*   >wrrrrrrrr0@  #e. ,e7  7e,   >wrrrrrrrr8X  ,eee3    ttttttttttttttttttttt",
"ttttttttttttttttttttttttt    1eeee-   X=4wrrr8;X  +q3  ,e7  ,ee:   X;6rrrr8=   *eeee-    ttttttttttttttttttttt",
"ttttttttttttttttttttttttt    %eeeee3o            #qe*  9ee. %eee5o     @@     -eeeeeo    ttttttttttttttttttttt",
"ttttttttttttttttttttttttt     7eeeeee1+        o1eee. +eee% .eeeee1+        #5eeeee,    tttttttttttttttttttttt",
"tttttttttttttttttttttttttt    +7eeeeeeeq3:  #,7eeee5  ,eee,  7eeeeee9%  #-,9eeeeee5.    tttttttttttttttttttttt",
"tttttttttttttttttttttttttt      #:57eeeeeeo #eeeeee7 .9eee9o#eeeeeeeeo oeeeeee53:+      tttttttttttttttttttttt",
"ttttttttttttttttttttttttttt                 oeeeeeee79eeeeeeeeeeeeee,                  ttttttttttttttttttttttt",
"tttttttttttttttttttttttttttt                 *55eeeeeeeeeeeeeee755,-.                 tttttttttttttttttttttttt",
"ttttttttttttttttttttttttttttt         -:::o                           #::::#         ttttttttttttttttttttttttt",
"tttttttttttttttttttttttttttttt        :eee.                           *eeeeo       ttttttttttttttttttttttttttt",
"tttttttttttttttttttttttttttttt     .. oeee  >86=  $>>>$  O>>>=   68r  :eee1  o      tttttttttttttttttttttttttt",
"ttttttttttttttttttttttttttttt    .:q:  1ee. @rr=  >rrr2  $rrr8   wr0  :eee# .q5#    tttttttttttttttttttttttttt",
"ttttttttttttttttttttttttttttt    :ee5  oee*  &4X  >rrr;  $rrr4   <r>  5ee5  #9eeo    ttttttttttttttttttttttttt",
"ttttttttttttttttttttttttttttt    qe:    ,eqo      OwrwX   8rr$    =X .eee#   .qe,    ttttttttttttttttttttttttt",
"tttttttttttttttttttttttttttt    #ee#    .qe9#   +  O;O    X=$  +     1ee3     1e7    ttttttttttttttttttttttttt",
"tttttttttttttttttttttttttttt    :ee.     -eee959e+     #-     .q5+ o1eeeo     :ee    ttttttttttttttttttttttttt",
"tttttttttttttttttttttttttttt    :ee       7eeeeeee:+ +:ee3# o*qeeeeeeee:      :ee    ttttttttttttttttttttttttt",
"tttttttttttttttttttttttttttt    #ee+      oqeeeeeeeeeeeeeeeeeeeeeeeeee5       :ee    ttttttttttttttttttttttttt",
"tttttttttttttttttttttttttttt    #ee#       .-5eeeeeeeeeeeeeeeeeeeeee9:.       3eq    ttttttttttttttttttttttttt",
"tttttttttttttttttttttttttttt    #ee#    -*     #%:1557eeeeeeee753:*+          5e5    ttttttttttttttttttttttttt",
"tttttttttttttttttttttttttttt    #ee*    o#                                    5e5    ttttttttttttttttttttttttt",
"tttttttttttttttttttttttttttt    #ee:                                          qe5    ttttttttttttttttttttttttt",
"tttttttttttttttttttttttttttt    o7e:                  -:::::#                 eq:    ttttttttttttttttttttttttt",
"tttttttttttttttttttttttttttt      oo                  eeeeee,                 #      ttttttttttttttttttttttttt",
"tttttttttttttttttttttttttttt                         oeeeeee5                        ttttttttttttttttttttttttt",
"tttttttttttttttttttttttttttt    *:#.                 :eeeeeeq                 +*1    ttttttttttttttttttttttttt",
"tttttttttttttttttttttttttttt    :ee-         +######*qeeeeeee:       .##-*    5ee    ttttttttttttttttttttttttt",
"tttttttttttttttttttttttttttt    :ee:    o59eeeeeeeeeeeeeeeeeeee5557eeeeee5    eee+    tttttttttttttttttttttttt",
"tttttttttttttttttttttttttttt    :ee:    :eeeeeeeeeeeeeeeeeeeeeeeeeeeeeeee5    eee#    tttttttttttttttttttttttt",
"tttttttttttttttttttttttttttt    :ee:    5eeee51:*##-qeeeeeeeeeeeeeeeeeeee9    eee#    tttttttttttttttttttttttt",
"tttttttttttttttttttttttttttt    :ee5    -*#o        #eeeeeeeee93:::::::-#o    eee#    tttttttttttttttttttttttt",
"tttttttttttttttttttttttttttt    :ee5             #o  *eeeeeee:                eee+    tttttttttttttttttttttttt",
"tttttttttttttttttttttttttttt    #ee,        +15eeeqo  *eeeee*                 ee7    ttttttttttttttttttttttttt",
"tttttttttttttttttttttttttttt      #.         1eee1.    %qee1    7eee*         oo     ttttttttttttttttttttttttt",
"ttttttttttttttttttttttttttttt                 3ee5      .,,     5ee:                 ttttttttttttttttttttttttt",
"ttttttttttttttttttttttttttttt          tt     oee5              qee.     tt         tttttttttttttttttttttttttt",
"tttttttttttttttttttttttttttttt        tttt     5qq              eq5     tttt       ttttttttttttttttttttttttttt",
"tttttttttttttttttttttttttttttttttt ttttttt       o              .      ttttttt  tttttttttttttttttttttttttttttt",
"tttttttttttttttttttttttttttttttttttttttttt             t                tttttttttttttttttttttttttttttttttttttt",
"tttttttttttttttttttttttttttttttttttttttttt     1:o     tttt     #::     tttttttttttttttttttttttttttttttttttttt",
"tttttttttttttttttttttttttttttttttttttttttt    ,eeq+    tttt    +eee:    tttttttttttttttttttttttttttttttttttttt",
"ttttttttttttttttttttttttttttttttttttttttt    .eeee9     tt    oqeeeq    tttttttttttttttttttttttttttttttttttttt",
"ttttttttttttttttttttttttttttttttttttttttt    #eeeee     tt     eeeee     ttttttttttttttttttttttttttttttttttttt",
"tttttttttttttttttttttttttttttttttttttttt     .eeee5            qeeee      tttttttttttttttttttttttttttttttttttt",
"ttttttttttttttttttttttttttttttttttttttt       eeee1            5eeeq       ttttttttttttttttttttttttttttttttttt",
"ttttttttttttttttttttttttttttttttttttttt       9eee-  o      +  :eee5       ttttttttttttttttttttttttttttttttttt",
"tttttttttttttttttttttttttttttttttttttt     *  5eee# +,      3. %eee1  *     tttttttttttttttttttttttttttttttttt",
"tttttttttttttttttttttttttttttttttttttt    :9  o##.  *5      q%  .##o  e*    tttttttttttttttttttttttttttttttttt",
"tttttttttttttttttttttttttttttttttttttt    5e+       55      q3       %e5    tttttttttttttttttttttttttttttttttt",
"tttttttttttttttttttttttttttttttttttttt    5e7%###*:5e:      1e5:%###*9e5    tttttttttttttttttttttttttttttttttt",
"tttttttttttttttttttttttttttttttttttttt    :eeeeeeeee7.      .qeeeeeeeee%    tttttttttttttttttttttttttttttttttt",
"tttttttttttttttttttttttttttttttttttttt     1eeeeeee9+        +qeeeeeee:     tttttttttttttttttttttttttttttttttt",
"ttttttttttttttttttttttttttttttttttttttt     %9eeee1.          o5eeee9#     ttttttttttttttttttttttttttttttttttt",
"ttttttttttttttttttttttttttttttttttttttt       %:-o      tt      o-:%       ttttttttttttttttttttttttttttttttttt",
"tttttttttttttttttttttttttttttttttttttttt               tttt               tttttttttttttttttttttttttttttttttttt",
"ttttttttttttttttttttttttttttttttttttttttt             tttttt             ttttttttttttttttttttttttttttttttttttt",
"ttttttttttttttttttttttttttttttttttttttttttt          tttttttt          ttttttttttttttttttttttttttttttttttttttt",
"ttttttttttttttttttttttttttttttttttttttttttttt     tttttttttttttt    tttttttttttttttttttttttttttttttttttttttttt",
"tttttttttttttttttttttttttttttttttttttttttttttttttttttttttttttttttttttttttttttttttttttttttttttttttttttttttttttt"
};
