/* XPM */
static char *result[] = {
/* columns rows colors chars-per-pixel */
"110 110 34 1 ",
"  c black",
". c #10100E",
"X c #101010",
"o c #1F201C",
"O c #202020",
"+ c #2F2F2B",
"@ c gray19",
"# c #3E3F39",
"$ c gray25",
"% c #4E4F47",
"& c #505050",
"* c #5D5F55",
"= c #606060",
"- c #6D6E63",
"; c gray44",
": c #7C7E72",
"> c #808080",
", c #8C8E80",
"< c gray56",
"1 c #9B9E8E",
"2 c #9F9F9F",
"3 c #ABAD9C",
"4 c #AFAFAF",
"5 c #BABDAA",
"6 c gray75",
"7 c #CACDB8",
"8 c gray81",
"9 c #D9DDC7",
"0 c #DFDFDF",
"q c #E9ECD5",
"w c #EFEFEF",
"e c #F8FCE3",
"r c white",
"t c None",
/* pixels */
"tttttttttttttttttttttttttttttttttttttttttttttttttttttttttttttttttttttttttttttttttttttttttttttttttttttttttttttt",
"tttttttttttttttttttttttttttttttttttttttttttttttttttttttttttttttttttttttttttttttttttttttttttttttttttttttttttttt",
"tttttttttttttttttttttttttttttttttttttttttttttttttttttttttttttttttttttttttttttttttttttttttttttttttttttttttttttt",
"tttttttttttttttttttttttttttttttttttttttttttttt                   ttttttttttttttttttttttttttttttttttttttttttttt",
"tttttttttttttttttttttttttttttttttttttttttt                            tttttttttttttttttttttttttttttttttttttttt",
"ttttttttttttttttttttttttttttttttttttttt                                  ttttttttttttttttttttttttttttttttttttt",
"ttttttttttttttttttttttttttttttttttttt                                      ttttttttttttttttttttttttttttttttttt",
"ttttttttttttttttttttttttttttttttttt           .#-:15555555555,:*#            ttttttttttttttttttttttttttttttttt",
"ttttttttttttttttttttttttttttttttt         .*19eeeeeeeeeeeeeeeeeeee71%.        tttttttttttttttttttttttttttttttt",
"tttttttttttttttttttttttttttttttt        *5eeeeeeeeeeeeeeeeeeeeeeeeeeee1%        tttttttttttttttttttttttttttttt",
"ttttttttttttttttttttttttttttttt      .:qeeeeeeeeeeeeeeeeeeeeeeeeeeeeeeee9*       ttttttttttttttttttttttttttttt",
"tttttttttttttttttttttttttttttt      *qeeeeeeeeeeeeeeeeeeeeeeeeeeeeeeeeeeee7#      tttttttttttttttttttttttttttt",
"ttttttttttttttttttttttttttttt     .5eeeeeeeeeeeeeeeeeeeeeeeeeeeeeeeeeeeeeeee,      ttttttttttttttttttttttttttt",
"tttttttttttttttttttttttttttt     +qeeeeeeeeeeeeeeeeeeeeeeeeeeeeeeeeeeeeeeeeee7.     tttttttttttttttttttttttttt",
"ttttttttttttttttttttttttttt     %qeeeeeeeeeeeeeeeeeeeeeeeeeeeeeeeeeeeeeeeeeeeeq+     ttttttttttttttttttttttttt",
"tttttttttttttttttttttttttt     +eeeeeeeeeeeeeeeeeeeeeeeeeeeeeeeeeeeeeeeeeeeeeeeqo     tttttttttttttttttttttttt",
"tttttttttttttttttttttttttt    +qeeeeeeeeeeeeeeeeeeeeeeeeeeeeeeeeeeeeeeeeeeeeeeee7.    tttttttttttttttttttttttt",
"ttttttttttttttttttttttttt    .7eeeeeeeeeeeeeeeeeeeeeeeeeeeeeeeeeeeeeeeeeeeeeeeeee3     ttttttttttttttttttttttt",
"tttttttttttttttttttttttt     ,eeeeeeeeeeeeeeeeeeeeeeeeeeeeeeeeeeeeeeeeeeeeeeeeeeee%    ttttttttttttttttttttttt",
"tttttttttttttttttttttttt    +eeeeeeeeeeeeeeeeeeeeeeeeeeeeeeeeeeeeeeeeeeeeeeeeeeeeeq.    tttttttttttttttttttttt",
"tttttttttttttttttttttttt    5eeeeeeeeeeeeeeeeeeeeeeeeeeeeeeeeeeeeeeeeeeeeeeeeeeeeee:    tttttttttttttttttttttt",
"ttttttttttttttttttttttt    oeeeeeeeeeeeeeeeeeeeeeeeeeeeeeeeeeeeeeeeeeeeeeeeeeeeeeeeq     ttttttttttttttttttttt",
"ttttttttttttttttttttttt    ,eeeeeeeeeeeeeeeeeeeeeeeeeeeeeeeeeeeeeeeeeeeeeeeeeeeeeeee*    ttttttttttttttttttttt",
"ttttttttttttttttttttttt    qeeeeeeeeeeeeeeeeeeeeeeeeeeeeeeeeeeeeeeeeeeeeeeeeeeeeeeee3    ttttttttttttttttttttt",
"tttttttttttttttttttttt    +eeeeeeeeeeeeeeeeeeeeeeeeeeeeeeeeeeeeeeeeeeeeeeeeeeeeeeeeee     tttttttttttttttttttt",
"tttttttttttttttttttttt    -eeeeeeeeeeeeeeeeeeeeeeeeeeeeeeeeeeeeeeeeeeeeeeeeeeeeeeeeee#    tttttttttttttttttttt",
"tttttttttttttttttttttt    1eeeeeeeeeeeeeeeeeeeeeeeeeeeeeeeeeeeeeeeeeeeeeeeeeeeeeeeeee-    tttttttttttttttttttt",
"tttttttttttttttttttttt    5eeeeeeeeeeeeeeeeeeeeeeeeeeeeeeeeeeeeeeeeeeeeeeeeeeeeeeeeee:    tttttttttttttttttttt",
"tttttttttttttttttttttt    5eeeeeeeeeeeeeeeeee59eeeeeeeeeeeeeeeeee9eeeeeeeeeeeeeeeeeee1    tttttttttttttttttttt",
"tttttttttttttttttttttt    5eeeeeeeeeeeeeeeq:. oeeeeeeeeeeeeeeeeq. #5eeeeeeeeeeeeeeeee5    tttttttttttttttttttt",
"tttttttttttttttttttttt    5eeeeeeeeeeeee9-.   +eeeeeeeeeeeeeeee9    #1qeeeeeeeeeeeeee5    tttttttttttttttttttt",
"tttttttttttttttttttttt    5eeeeeeeeeeq,+    o1qeeeeeeeeeeeeeeeee5*    .%:3eeeeeeeeeee5    tttttttttttttttttttt",
"tttttttttttttttttttttt    5eeeeeeeeq:.      .*3eeeeeeeeeeeeeeeeeq-         o-3eeeeeee:    tttttttttttttttttttt",
"tttttttttttttttttttttt    5eeeeee9-.           o1eeeeeeeeeeeeee,.              %7eeee:    tttttttttttttttttttt",
"tttttttttttttttttttttt    3eeeee%     $2666>&    #qeeeeeeeeeeq+   @4wrrr02&     :eeee:    tttttttttttttttttttt",
"tttttttttttttttttttttt    :eeee1    @6rrrrrrr0>X  +eeeeeeeeee%  X<rrrrrrrrr0=   5eeee#    tttttttttttttttttttt",
"tttttttttttttttttttttt    *eeee9   <rrrrrrrrrrr0$  :eeeeeeee1  @wrrrrrrrrrrrr>  :eeee+    tttttttttttttttttttt",
"tttttttttttttttttttttt    +eeee,  =rrrrrrrrrrrrrwX .eeeeeeeeo X0rrrrrrrrrrrrrrO .eeeq    ttttttttttttttttttttt",
"ttttttttttttttttttttttt    qeeeo Owrrrrrrrrrrrrrr2  1eeeeee7  >rrrrrrrrrrrrrrr<  5ee3    ttttttttttttttttttttt",
"ttttttttttttttttttttttt    1ee7  ;rrrrrrrrrrrrrrrw  -eeeeee:  0rrrrrrrrrrrrrrr0  :ee-    ttttttttttttttttttttt",
"ttttttttttttttttttttttt    *ee:  8rrrrr>&wrrrrrrrr$ #eeeeee# Orrrrrr>$<wrrrrrrr  :ee+    ttttttttttttttttttttt",
"ttttttttttttttttttttttt    #ee% Orrrrr2  O4rrrrrrr$ #eeeeee# $rrrrr;   Owrrrrrr  :ee    tttttttttttttttttttttt",
"ttttttttttttttttttttttt    #ee# $rrrrr$   Xrrrrrrr$ #eeeeee# $rrrrr$    6rrrrrr  :ee    tttttttttttttttttttttt",
"ttttttttttttttttttttttt    #ee# $rrrrr     6rrrrrr$ #eeeeee# $rrrrr&    0rrrrrr  :ee    tttttttttttttttttttttt",
"ttttttttttttttttttttttt    #ee# Orrrrr=   X0rrrrrr@ #eeeeee% XrrrrrwO  2rrrrrr0  :ee    tttttttttttttttttttttt",
"ttttttttttttttttttttttt    #ee:  wrrrrw>>60rrrrrrw  -eeeeee,  8rrrrr060rrrrrrr2  5ee    tttttttttttttttttttttt",
"ttttttttttttttttttttttt    #ee3  >rrrrrrrrrrrrrrr>  1eeeeee7  =rrrrrrrrrrrrrrr$  qee    tttttttttttttttttttttt",
"ttttttttttttttttttttttt    #eeeo X8rrrrrrrrrrrrrwX .qeeeeeee#  6rrrrrrrrrrrrr4  *eee    tttttttttttttttttttttt",
"tttttttttttttttttttttttt    eee3  X8rrrrrrrrrrrw@  ,95eee77e7  X8rrrrrrrrrrr8X .9ee9    tttttttttttttttttttttt",
"tttttttttttttttttttttttt    qeee*   >wrrrrrrrr0@  #e. ,e7  7e,   >wrrrrrrrr8X  ,eee3    tttttttttttttttttttttt",
"tttttttttttttttttttttttt    1eeee-   X=4wrrr8;X  +q3  ,e7  ,ee:   X;6rrrr8=   *eeee-    tttttttttttttttttttttt",
"tttttttttttttttttttttttt    %eeeee3o            #qe*  9ee. %eee5o     @@     -eeeeeo    tttttttttttttttttttttt",
"tttttttttttttttttttttttt     7eeeeee1+        o1eee. +eee% .eeeee1+        #5eeeee,    ttttttttttttttttttttttt",
"ttttttttttttttttttttttttt    +7eeeeeeeq3:  #,7eeee5  ,eee,  7eeeeee9%  #-,9eeeeee5.    ttttttttttttttttttttttt",
"ttttttttttttttttttttttttt      #:57eeeeeeo #eeeeee7 .9eee9o#eeeeeeeeo oeeeeee53:+      ttttttttttttttttttttttt",
"tttttttttttttttttttttttttt                 oeeeeeee79eeeeeeeeeeeeee,                  tttttttttttttttttttttttt",
"ttttttttttttttttttttttttttt                 *55eeeeeeeeeeeeeee755,-.                 ttttttttttttttttttttttttt",
"ttttttttttttttttttttttttttt    %95o  -:::o                           #::::#         tttttttttttttttttttttttttt",
"ttttttttttttttttttttttttttt    :ee   :eee.                           *eeeeo      ttttttttttttttttttttttttttttt",
"ttttttttttttttttttttttttttt    -ee   oeee  >86=  $>>>$  O>>>=   68r  :eee1      tttttttttttttttttttttttttttttt",
"ttttttttttttttttttttttttttt    #ee#   1ee. @rr=  >rrr2  $rrr8   wr0  :eee#        tttttttttttttttttttttttttttt",
"ttttttttttttttttttttttttttt    #ee#   oee*  &4X  >rrr;  $rrr4   <r>  5ee5         tttttttttttttttttttttttttttt",
"ttttttttttttttttttttttttttt    #ee#    ,eqo      OwrwX   8rr$    =X .eee#  1#      ttttttttttttttttttttttttttt",
"ttttttttttttttttttttttttttt    #ee*    .qe9#   +  O;O    X=$  +     1ee3  *ee5#    ttttttttttttttttttttttttttt",
"ttttttttttttttttttttttttttt    #ee:     -eee959e+     #-     .q5+ o1eeeo  759eeo    tttttttttttttttttttttttttt",
"ttttttttttttttttttttttttttt    o3e:      7eeeeeee:+ +:ee3# o*qeeeeeeee:  -. .qe,    tttttttttttttttttttttttttt",
"ttttttttttttttttttttttttttt       .      oqeeeeeeeeeeeeeeeeeeeeeeeeee5  o%   1e7    tttttttttttttttttttttttttt",
"ttttttttttttttttttttttttttt               .-5eeeeeeeeeeeeeeeeeeeeee9:.  1    :ee    tttttttttttttttttttttttttt",
"ttttttttttttttttttttttttttt    -1-.    #*     #%:1557eeeeeeee753:*+    1*    :ee    tttttttttttttttttttttttttt",
"ttttttttttttttttttttttttttt    :ee-    -e1+                          o37     :ee    tttttttttttttttttttttttttt",
"ttttttttttttttttttttttttttt    :ee:    o###                        .3eq+     3eq    tttttttttttttttttttttttttt",
"ttttttttttttttttttttttttttt    :ee:                  *:::::o        .%o      5e5    tttttttttttttttttttttttttt",
"ttttttttttttttttttttttttttt    :ee,                  7eeeee:                 5e5    tttttttttttttttttttttttttt",
"ttttttttttttttttttttttttttt    :ee5                  eeeeee,                 qe5    tttttttttttttttttttttttttt",
"ttttttttttttttttttttttttttt    :ee5                 oeeeeee5                   .    tttttttttttttttttttttttttt",
"ttttttttttttttttttttttttttt    +7e,                 :eeeeeeq                        tttttttttttttttttttttttttt",
"tttttttttttttttttttttttttttt                +######*qeeeeeee:       .##*   *9e7o    tttttttttttttttttttttttttt",
"tttttttttttttttttttttttttttt           o5qeeeeeeeeeeeeeeeeeeee5557eeeee% .5eeeeeo    ttttttttttttttttttttttttt",
"tttttttttttttttttttttttttttt           :eeeeeeeeeeeeeeeeeeeeeeeeeeeeee9  7eeeeee:    ttttttttttttttttttttttttt",
"tttttttttttttttttttttttttttttt         5eeee51:*##-qeeeeeeeeeeeeeeeeee, %eeeeeee5    ttttttttttttttttttttttttt",
"ttttttttttttttttttttttttttttttttttt    -*#o        #eeeeeeeee93:::::::# :eeeeeeeq    ttttttttttttttttttttttttt",
"ttttttttttttttttttttttttttttttttttt             #+  *eeeeeee:           :eeeeeeeq    ttttttttttttttttttttttttt",
"ttttttttttttttttttttttttttttttttttt       %:15eeeqo  *eeeee*            :eeeeeee,    ttttttttttttttttttttttttt",
"tttttttttttttttttttttttttttttttttttt      ,eeeeeee7.  %qee1   +eee:     -eeeeeeqo    ttttttttttttttttttttttttt",
"tttttttttttttttttttttttttttttttttttttt     1eeeeee7*   .,,   oqeeeq      :qeeeq+    tttttttttttttttttttttttttt",
"tttttttttttttttttttttttttttttttttttttt      1eee1.            eeeee       .*,:o     tttttttttttttttttttttttttt",
"ttttttttttttttttttttttttttttttttttttttt      3ee5             qeeee                 tttttttttttttttttttttttttt",
"tttttttttttttttttttttttttttttttttttttttt     oee5             5eeeq                ttttttttttttttttttttttttttt",
"ttttttttttttttttttttttttttttttttttttttttt     5qq     t    +  :eee5               tttttttttttttttttttttttttttt",
"ttttttttttttttttttttttttttttttttttttttttt       o    tt    3. %eee1  *         ttttttttttttttttttttttttttttttt",
"ttttttttttttttttttttttttttttttttttttttttt             t    q%  .##o  e*    ttttttttttttttttttttttttttttttttttt",
"ttttttttttttttttttttttttttttttttttttttttt     1:o     t    q3       %e5    ttttttttttttttttttttttttttttttttttt",
"ttttttttttttttttttttttttttttttttttttttttt    ,eeq+         1e5:%###*9e5    ttttttttttttttttttttttttttttttttttt",
"tttttttttttttttttttttttttttttttttttttttt    .eeee9         .qeeeeeeeee%    ttttttttttttttttttttttttttttttttttt",
"tttttttttttttttttttttttttttttttttttttttt    #eeeee          +qeeeeeee:     ttttttttttttttttttttttttttttttttttt",
"ttttttttttttttttttttttttttttttttttttttt     .eeee5           o5eeee9#     tttttttttttttttttttttttttttttttttttt",
"tttttttttttttttttttttttttttttttttttttt       eeee1             o-:%       tttttttttttttttttttttttttttttttttttt",
"tttttttttttttttttttttttttttttttttttttt       9eee-  o    t               ttttttttttttttttttttttttttttttttttttt",
"ttttttttttttttttttttttttttttttttttttt     *  5eee# +,    tt             tttttttttttttttttttttttttttttttttttttt",
"ttttttttttttttttttttttttttttttttttttt    :9  o##.  *5    ttt          tttttttttttttttttttttttttttttttttttttttt",
"ttttttttttttttttttttttttttttttttttttt    5e+       55    tttttt    ttttttttttttttttttttttttttttttttttttttttttt",
"ttttttttttttttttttttttttttttttttttttt    5e7%###*:5e:    ttttttttttttttttttttttttttttttttttttttttttttttttttttt",
"ttttttttttttttttttttttttttttttttttttt    :eeeeeeeee7.    ttttttttttttttttttttttttttttttttttttttttttttttttttttt",
"ttttttttttttttttttttttttttttttttttttt     1eeeeeee9+    tttttttttttttttttttttttttttttttttttttttttttttttttttttt",
"tttttttttttttttttttttttttttttttttttttt     %9eeee1.     tttttttttttttttttttttttttttttttttttttttttttttttttttttt",
"tttttttttttttttttttttttttttttttttttttt       %:-o      ttttttttttttttttttttttttttttttttttttttttttttttttttttttt",
"ttttttttttttttttttttttttttttttttttttttt               tttttttttttttttttttttttttttttttttttttttttttttttttttttttt",
"tttttttttttttttttttttttttttttttttttttttt             ttttttttttttttttttttttttttttttttttttttttttttttttttttttttt",
"tttttttttttttttttttttttttttttttttttttttttt          tttttttttttttttttttttttttttttttttttttttttttttttttttttttttt",
"tttttttttttttttttttttttttttttttttttttttttttt     ttttttttttttttttttttttttttttttttttttttttttttttttttttttttttttt"
};
