/* XPM */
static char *result[] = {
/* columns rows colors chars-per-pixel */
"110 110 71 1 ",
"  c black",
". c #010000",
"X c #000100",
"o c #000001",
"O c #000200",
"+ c #070606",
"@ c #060706",
"# c #070706",
"$ c #070707",
"% c #191A14",
"& c #191A15",
"* c #191B15",
"= c gray10",
"- c #2B2A27",
"; c #2A2B27",
": c #2B2B27",
"> c #2C2C2C",
", c #2D2C2C",
"< c #3C3C36",
"1 c #3C3D36",
"2 c #3D3D36",
"3 c #3E3E3E",
"4 c #3E3F3E",
"5 c #4D4E45",
"6 c #4F4F4E",
"7 c gray31",
"8 c #5D5E54",
"9 c #5D5F54",
"0 c #606060",
"q c #6D6E63",
"w c gray44",
"e c #7D7F72",
"r c #7D7E73",
"t c #7C7F73",
"y c #7D7F73",
"u c #818181",
"i c #8D8F80",
"p c #8C8F81",
"a c #8D8F81",
"s c #9C9F8E",
"d c #9C9F8F",
"f c #909090",
"g c #ACAE9C",
"h c #ACAE9D",
"j c #A0A0A0",
"k c #A0A1A0",
"l c #A0A0A1",
"z c #BBBEAA",
"x c #BBBEAB",
"c c gray69",
"v c #CBCEB9",
"b c #C0C0C0",
"n c #DADEC8",
"m c #DADFC8",
"M c #DADEC9",
"N c #D0D0D0",
"B c #EAEDD6",
"V c #EBEDD6",
"C c #EAEDD7",
"Z c gray88",
"A c #EFEFEF",
"S c #F8FCE4",
"D c #F9FCE4",
"F c #F8FDE4",
"G c #F8FCE5",
"H c #F9FCE5",
"J c #FFFFFE",
"K c #FFFEFF",
"L c #FEFFFF",
"P c white",
"I c None",
/* pixels */
"IIIIIIIIIIIIIIIIIIIIIIIIIIIIIIIIIIIIIIIIIIIIIIIIIIIIIIIIIIIIIIIIIIIIIIIIIIIIIIIIIIIIIIIIIIIIIIIIIIIIIIIIIIIIII",
"IIIIIIIIIIIIIIIIIIIIIIIIIIIIIIIIIIIIIIIIIIIIIIIIIIIIIIIIIIIIIIIIIIIIIIIIIIIIIIIIIIIIIIIIIIIIIIIIIIIIIIIIIIIIII",
"IIIIIIIIIIIIIIIIIIIIIIIIIIIIIIIIIIIIIIIIIIIIIIIIIIIIIIIIIIIIIIIIIIIIIIIIIIIIIIIIIIIIIIIIIIIIIIIIIIIIIIIIIIIIII",
"IIIIIIIIIIIIIIIIIIIIIIIIIIIIIIIIIIIIIIIIIIIIIIIIIIIIIIIIIIIIIIIIIIIIIIIIIIIIIIIIIIIIIIIIIIIIIIIIIIIIIIIIIIIIII",
"IIIIIIIIIIIIIIIIIIIIIIIIIIIIIIIIIIIIIIIIIIIIIIIIIIIIIIIIIIIIIIIIIIIIIIIIIIIIIIIIIIIIIIIIIIIIIIIIIIIIIIIIIIIIII",
"IIIIIIIIIIIIIIIIIIIIIIIIIIIIIIIIIIIIIIIIIIIIIIIIIIIIIIIIIIIIIIIIIIIIIIIIIIIIIIIIIIIIIIIIIIIIIIIIIIIIIIIIIIIIII",
"IIIIIIIIIIIIIIIIIIIIIIIIIIIIIIIIIIIIIIIIIIIIIIII    o   IIIIIIIIIIIIIIIIIIIIIIIIIIIIIIIIIIIIIIIIIIIIIIIIIIIIII",
"IIIIIIIIIIIIIIIIIIIIIIIIIIIIIIIIIIIIIIIIIIII          .     X IIIIIIIIIIIIIIIIIIIIIIIIIIIIIIIIIIIIIIIIIIIIIIII",
"IIIIIIIIIIIIIIIIIIIIIIIIIIIIIIIIIIIIIIIII                o        IIIIIIIIIIIIIIIIIIIIIIIIIIIIIIIIIIIIIIIIIIII",
"IIIIIIIIIIIIIIIIIIIIIIIIIIIIIIIIIIIIIII  . X                    X    IIIIIIIIIIIIIIIIIIIIIIIIIIIIIIIIIIIIIIIII",
"IIIIIIIIIIIIIIIIIIIIIIIIIIIIIIIIIIIII        .  &11qy511.              IIIIIIIIIIIIIIIIIIIIIIIIIIIIIIIIIIIIIII",
"IIIIIIIIIIIIIIIIIIIIIIIIIIIIIIIIIII     . X :yxSSSSSSSSSSBxa9&      X   .IIIIIIIIIIIIIIIIIIIIIIIIIIIIIIIIIIIII",
"IIIIIIIIIIIIIIIIIIIIIIIIIIIIIIIIIIX      #ynSSSSSSSFSSSSSSSSSSnd9#    XX.  IIIIIIIIIIIIIIIIIIIIIIIIIIIIIIIIIII",
"IIIIIIIIIIIIIIIIIIIIIIIIIIIIIIII       #dSSSFSSSSSSSSSSSSSSSSSSSSSh5         IIIIIIIIIIIIIIIIIIIIIIIIIIIIIIIII",
"IIIIIIIIIIIIIIIIIIIIIIIIIIIIIII       qBSSSSSSSSSSSSSSSSSSSSSGSSSSSSMy#       IIIIIIIIIIIIIIIIIIIIIIIIIIIIIIII",
"IIIIIIIIIIIIIIIIIIIIIIIIIIIIII      &vSSSSSSSSSSSSSSSSSSSSSSSSSSSSSGSSBy       IIIIIIIIIIIIIIIIIIIIIIIIIIIIIII",
"IIIIIIIIIIIIIIIIIIIIIIIIIIIII     X9BSSSSSSSSSSSSSSSSSSSSSSSSDSSSSSSSSSSn1 .    IIIIIIIIIIIIIIIIIIIIIIIIIIIIII",
"IIIIIIIIIIIIIIIIIIIIIIIIIIII      aSSSSSSSSSSSSSSSSSSSSFFSSSSSSSSSSSSSSSSSa      IIIIIIIIIIIIIIIIIIIIIIIIIIIII",
"IIIIIIIIIIIIIIIIIIIIIIIIIII      dSSSSSSSSSSSSSSSSSSDSSSSSSSSSSSSSSSSSGSSSSv#     IIIIIIIIIIIIIIIIIIIIIIIIIIII",
"IIIIIIIIIIIIIIIIIIIIIIIIII . . #xSSSSSSSSDSSSFDSDSSSSSSSSSSSSSSSSSSSSSSSSSSSB:  .  IIIIIIIIIIIIIIIIIIIIIIIIIII",
"IIIIIIIIIIIIIIIIIIIIIIIII    o#vSSSSSDSSSSSSSSSSSSSSSSSSSSSSSDSSSSSSSSSSSSSSGB:   X IIIIIIIIIIIIIIIIIIIIIIIIII",
"IIIIIIIIIIIIIIIIIIIIIIII      xSSSSSSFSSSSSSSSSSSSFFSSSSSDSFSSSSSSSSSSSSSSSSSSv#    IIIIIIIIIIIIIIIIIIIIIIIIII",
"IIIIIIIIIIIIIIIIIIIIIIII     sSSSSSSSSSSSSSSSSSSSSSSSGSSSSSSSSSSSGGSSSSSSSSSSSSh     IIIIIIIIIIIIIIIIIIIIIIIII",
"IIIIIIIIIIIIIIIIIIIIIII     aSSSSSSDSSSSSSSSSSSSSSSSSSSSSSSSSSSSSSSSSFSSSSSSSSSS9   XIIIIIIIIIIIIIIIIIIIIIIIII",
"IIIIIIIIIIIIIIIIIIIIIII    1SSSSSSSSSSSSSSSSDSSSFSSBxBSSSSSSDSSSSSSSSSSSSSSSSSSSB#    IIIIIIIIIIIIIIIIIIIIIIII",
"IIIIIIIIIIIIIIIIIIIIII     nSSSSSSSDSSSSSDSSSSSSSSS5 :vSSFSSFSSSSSSSSSSSSSSSSSSSSy    IIIIIIIIIIIIIIIIIIIIIIII",
"IIIIIIIIIIIIIIIIIIIIII    9SSSSSSSSSSSSDSGSSSSSSSSS5  #vSSSSSSSSSSSSSSSSSSSSSSSSSnX   IIIIIIIIIIIIIIIIIIIIIIII",
"IIIIIIIIIIIIIIIIIIIIII    hSSSSSSSSSFSSSSSSSSSSSSSSS9  #vSSSSSSSSSSSSSSSSSSDSSSSSS5    IIIIIIIIIIIIIIIIIIIIIII",
"IIIIIIIIIIIIIIIIIIIII    #FSSSSSSSSSSSSSSSSSSSSSSSSSF9  #vSSSSSSSSSSSSSSSSSSSDSSBp&    IIIIIIIIIIIIIIIIIIIIIII",
"IIIIIIIIIIIIIIIIIIIII    5SFSSSSSSSSSSSSSSSSSSSSSSSSSS9  :BSSGSSSSSSSSSSSSSSSnd5#   X  IIIIIIIIIIIIIIIIIIIIIII",
"IIIIIIIIIIIIIIIIIIIII    ySSSSSSSSSSSSSSGSDSSFSSSSSSSSS9  qSSSSSSSSSSSSvh91&      ##.  IIIIIIIIIIIIIIIIIIIIIII",
"IIIIIIIIIIIIIIIIIIIII  . xSSSSSSSSSSSSSSSSSSSSSSSSSSSSSB:  xSGSSSSSSa1         . &x1    IIIIIIIIIIIIIIIIIIIIII",
"IIIIIIIIIIIIIIIIIIIII    xSSSSSSSSSSSSSSSSSSSSSSSSSSSSSSx  <SSSSGSSx.o             &    IIIIIIIIIIIIIIIIIIIIII",
"IIIIIIIIIIIIIIIIIIIII    SSSSSSFSDSDSSSSSSSSSSSSSSSSSSSSS9  nSSSSSSB:     3uucuw>       IIIIIIIIIIIIIIIIIIIIII",
"IIIIIIIIIIIIIIIIIIIII  X SSSSSSSSSSSSSSSSSSSSSSSSSSSSSSSSv  aSSSSSSS:  =fAPPJPPPPN>      IIIIIIIIIIIIIIIIIIIII",
"IIIIIIIIIIIIIIIIIIIII    FSSSSSSSSFSSSSSSSSSSSSSSSSSSSSSFS* 5SSSSSSy  7PPPPPPPPJPPPu     IIIIIIIIIIIIIIIIIIIII",
"IIIIIIIIIIIIIIIIIIIII   .SSSSSSSSSSSSSSSSSSSSSSSSSGSSSSSSS1 1SSSSSS# $APPPPPPPPLPPPPc     IIIIIIIIIIIIIIIIIIII",
"IIIIIIIIIIIIIIIIIIIII    vSSSSSSSSGSSSSSSSSSSGSSSSSSSSSSGS: 1SSSSSh  lPPKPPPPPPPPPPPLu X  IIIIIIIIIIIIIIIIIIII",
"IIIIIIIIIIIIIIIIIIIII    xSDSSSSSSDSSSSSSDSSSSSGSSSSSSSBd1 X9SSSSS9  APPPPPPPPPPPPLPPA$    IIIIIIIIIIIIIIIIIII",
"IIIIIIIIIIIIIIIIIIIII    dSSSSSSSSSSSSSSSSSSSSSSSSxxy9:    #nSSSSS< 3PPPPPPPPPPPPJPPPP7    IIIIIIIIIIIIIIIIIII",
"IIIIIIIIIIIIIIIIIIIII    ySSSSSSSSSSSSSDSh11111#         #9CSSSSSS# 0PPPPPPPPPPPPPZjjJf    IIIIIIIIIIIIIIIIIII",
"IIIIIIIIIIIIIIIIIIIII    1SSSSSSSSSSSSSSS         o   1qhSSSSGSSSS XuPPPPPPPPPPPPw   3b    IIIIIIIIIIIIIIIIIII",
"IIIIIIIIIIIIIIIIIIIIII    SSSSSSSSSSSFSSSe211115yydxBSSSSSSSSSSFSS  uPPPPPPPPPPJP  . Xf    IIIIIIIIIIIIIIIIIII",
"IIIIIIIIIIIIIIIIIIIIII    xSSSSSSSSSSSSSSSSSSSSSSSSSSSSSSSSSSSSSFS  uPPPPPPPPPPPP$    u    IIIIIIIIIIIIIIIIIII",
"IIIIIIIIIIIIIIIIIIIIII    qSSSSSSSSSSSSSSSSSSSSSSGSSSFSSSSSSSSSSSS# 6PPPPPPPPLPPPj   0w    IIIIIIIIIIIIIIIIIII",
"IIIIIIIIIIIIIIIIIIIIII    &SSSSSSSSSSSSSSSSSSGSSSSSSSSSSSSSSSSSSSS1 $PPPLPPPPPPPPPc7uP=    IIIIIIIIIIIIIIIIIII",
"IIIIIIIIIIIIIIIIIIIIIII    xSSSSSDSSSSSSSSSSSSSSSSSSSSSSSSSSSSSSSSa  jPPPPPPPKLPPPPPPb    IIIIIIIIIIIIIIIIIIII",
"IIIIIIIIIIIIIIIIIIIIIII  . 9DSSSSSSSSSSSSSSSvdq1&    &9BSSSSSSSSSSB# =APPPPPPKPPPPPPA>    IIIIIIIIIIIIIIIIIIII",
"IIIIIIIIIIIIIIIIIIIIIII   X nSSSSSSSSSSSSh9# .         :dSSSSSSSSSSy .0PPPPPKPPPPKPP0   X IIIIIIIIIIIIIIIIIIII",
"IIIIIIIIIIIIIIIIIIIIIIII    1SFSSSSSSGSh&      :1yyey:   :nSSSSSSSSB:  0PPPPPPPPKPZ>     IIIIIIIIIIIIIIIIIIIII",
"IIIIIIIIIIIIIIIIIIIIIIII   o dSSSSSSSSn#   1yxSSSSSSSd    #xGSSSSSSSv# .=jPPPPPPc0X   o  IIIIIIIIIIIIIIIIIIIII",
"IIIIIIIIIIIIIIIIIIIIIIIII    #vSSSSSSSr .yBSSSSSSSDSS9      dSSSSSSSSv&    3733     1    IIIIIIIIIIIIIIIIIIIII",
"IIIIIIIIIIIIIIIIIIIIIIIII      9xBFSSn1 &SSSSSSSSSSSS#       ySd55dSSSBy       .  1xx    IIIIIIIIIIIIIIIIIIIII",
"IIIIIIIIIIIIIIIIIIIIIIIIIIo             1SSSSSSSSSSSv    X    &    9SSSxvd51#&19dnSSa    IIIIIIIIIIIIIIIIIIIII",
"IIIIIIIIIIIIIIIIIIIIIIIIIII            X#SSSSSDSSSSSq           $$  yy#  1xSSSSSSSSS5    IIIIIIIIIIIIIIIIIIIII",
"IIIIIIIIIIIIIIIIIIIIIIIIIIII             BSSSSSSGSSS&    I     =AZ=        dBy115dSB+   .IIIIIIIIIIIIIIIIIIIII",
"IIIIIIIIIIIIIIIIIIIIIIIIIIIIII           hSSSSSSSSSn   XIII    jPLj   $k0   #     :9    IIIIIIIIIIIIIIIIIIIIII",
"IIIIIIIIIIIIIIIIIIIIIIIIIIIIIIIIIIIII.   qSSSSSSSSSd    IIO   =PPPb   NPPj    =3$       IIIIIIIIIIIIIIIIIIIIII",
"IIIIIIIIIIIIIIIIIIIIIIIIIIIIIIIIIIIII    #nSSSDSSSSy    o     0PPPj  7PPPP3  3PPA>     IIIIIIIIIIIIIIIIIIIIIII",
"IIIIIIIIIIIIIIIIIIIIIIIIIIIIIIIIIIIII   X :BSSSSSSSy      X.  wPPA=o uPPPKu  uPPPc     IIIIIIIIIIIIIIIIIIIIIII",
"IIIIIIIIIIIIIIIIIIIIIIIIIIIIIIIIIIII       9SDSSSSSh      o   =bj,   fPPPPuX uPPPb   XIIIIIIIIIIIIIIIIIIIIIIII",
"IIIIIIIIIIIIIIIIIIIIIIIIIIIIIIIIIIII .  q-  9SSSSSSS9      .         0PPPP3  =PLPb    IIIIIIIIIIIIIIIIIIIIIIII",
"IIIIIIIIIIIIIIIIIIIIIIIIIIIIIIIIIII  .  BB#  9SSSSSSSvaq11&      X    bPPf    uPP7    IIIIIIIIIIIIIIIIIIIIIIII",
"IIIIIIIIIIIIIIIIIIIIIIIIIIIIIIIIIII    9DSv@  dSSSSSSSSSSSSSSFxxxxaq  X        43 o   IIIIIIIIIIIIIIIIIIIIIIII",
"IIIIIIIIIIIIIIIIIIIIIIIIIIIIIIIIIII    hSSSv#  aSSSSSSSSSSSSSSSSSSSSd     &vv#       IIIIIIIIIIIIIIIIIIIIIIIII",
"IIIIIIIIIIIIIIIIIIIIIIIIIIIIIIIIIII    hSSSSv#  9SSSSSSSSSSSSSSSSGSSSnayydBSSn9#     IIIIIIIIIIIIIIIIIIIIIIIII",
"IIIIIIIIIIIIIIIIIIIIIIIIIIIIIIIIIII    ySSSSSy   9SSSSSSSSSSSSSSSSFSSSSSFSSSSSS1  o IIIIIIIIIIIIIIIIIIIIIIIIII",
"IIIIIIIIIIIIIIIIIIIIIIIIIIIIIIIIIII    1SSSSS&    1BSSSSSSSSSSSSSSSSSSSSSDSSGSD#   IIIIIIIIIIIIIIIIIIIIIIIIIII",
"IIIIIIIIIIIIIIIIIIIIIIIIIIIIIIIIIII    #SSSSa X9&  &dSSSSSSSSSSSSSSSSSSSSSSSSSS    IIIIIIIIIIIIIIIIIIIIIIIIIII",
"IIIIIIIIIIIIIIIIIIIIIIIIIIIIIIIIIIII  X nSSd  #BB: o  5yxBSSSSSSSSSSSSSSSSSSSSx    IIIIIIIIIIIIIIIIIIIIIIIIIII",
"IIIIIIIIIIIIIIIIIIIIIIIIIIIIIIIIIIII    &hv#  hSSSt#      &1yaxvGSSSDSSSSSSSSSq    IIIIIIIIIIIIIIIIIIIIIIIIIII",
"IIIIIIIIIIIIIIIIIIIIIIIIIIIIIIIIIII          dSSSSSx        o     115yyyaxxxxx& o  IIIIIIIIIIIIIIIIIIIIIIIIIII",
"IIIIIIIIIIIIIIIIIIIIIIIIIIIIIIIIIII    &    qSSSSSB&  @ddy1&       o     .        IIIIIIIIIIIIIIIIIIIIIIIIIIII",
"IIIIIIIIIIIIIIIIIIIIIIIIIIIIIIIIIII    yx  &BSSSSS5    #9yyaxy              .     IIIIIIIIIIIIIIIIIIIIIIIIIIII",
"IIIIIIIIIIIIIIIIIIIIIIIIIIIIIIIIIII    hqX dSSSSSa                               IIIIIIIIIIIIIIIIIIIIIIIIIIIII",
"IIIIIIIIIIIIIIIIIIIIIIIIIIIIIIIIIII    n+ &SDSSSx  #1111#                       IIIIIIIIIIIIIIIIIIIIIIIIIIIIII",
"IIIIIIIIIIIIIIIIIIIIIIIIIIIIIIIIIII   #g  dSSSSn#  xSSSSSSSBxzay1&      IIIIIIIIIIIIIIIIIIIIIIIIIIIIIIIIIIIIII",
"IIIIIIIIIIIIIIIIIIIIIIIIIIIIIIIIII    1y  BSSSB:  ySSSSSSSSSSSSSSSB9o   IIIIIIIIIIIIIIIIIIIIIIIIIIIIIIIIIIIIII",
"IIIIIIIIIIIIIIIIIIIIIIIIIIIIIIIIII    qa  9vSv:  9SSSSSSSSSSSSSSSSSh    IIIIIIIIIIIIIIIIIIIIIIIIIIIIIIIIIIIIII",
"IIIIIIIIIIIIIIIIIIIIIIIIIIIIIIIIIIXX  tq        :BSFSSSSSSSSFSFSSSSBo   IIIIIIIIIIIIIIIIIIIIIIIIIIIIIIIIIIIIII",
"IIIIIIIIIIIIIIIIIIIIIIIIIIIIIIIIII    1       X   #11qyyhxxnSSSSFSSS:      IIIIIIIIIIIIIIIIIIIIIIIIIIIIIIIIIII",
"IIIIIIIIIIIIIIIIIIIIIIIIIIIIIIIIII     . xva:  X               #121:         IIIIIIIIIIIIIIIIIIIIIIIIIIIIIIIII",
"IIIIIIIIIIIIIIIIIIIIIIIIIIIIIIIIIII     1SSn  &#  #11                   .     IIIIIIIIIIIIIIIIIIIIIIIIIIIIIIII",
"IIIIIIIIIIIIIIIIIIIIIIIIIIIIIIIIIII     ySS9  y   vSSSSSy        #119:        IIIIIIIIIIIIIIIIIIIIIIIIIIIIIIII",
"IIIIIIIIIIIIIIIIIIIIIIIIIIIIIIIIIII  o  SSn  #x  5SSSSSSS1        vSSSd1      IIIIIIIIIIIIIIIIIIIIIIIIIIIIIIII",
"IIIIIIIIIIIIIIIIIIIIIIIIIIIIIIIII      9SSi . :&  dSSSSSDn#       #dSSSx .    IIIIIIIIIIIIIIIIIIIIIIIIIIIIIIII",
"IIIIIIIIIIIIIIIIIIIIIIIIIIIIIIIII     #nSD1        dSSGSSSy         nSSV#  . IIIIIIIIIIIIIIIIIIIIIIIIIIIIIIIII",
"IIIIIIIIIIIIIIIIIIIIIIIIIIIIIIII X   ;vSSS  &       aSSSSSS&        9SSS9    IIIIIIIIIIIIIIIIIIIIIIIIIIIIIIIII",
"IIIIIIIIIIIIIIIIIIIIIIIIIIIIIIII    9SSSSS#          :vHSSSx        :SSSq    IIIIIIIIIIIIIIIIIIIIIIIIIIIIIIIII",
"IIIIIIIIIIIIIIIIIIIIIIIIIIIIIII     &ySSn5# X          dSSSv#        n1      IIIIIIIIIIIIIIIIIIIIIIIIIIIIIIIII",
"IIIIIIIIIIIIIIIIIIIIIIIIIIIIII    o   dx:      o       X8d:          #      IIIIIIIIIIIIIIIIIIIIIIIIIIIIIIIIII",
"IIIIIIIIIIIIIIIIIIIIIIIIIIIII X    #  #  XX   . I  .                .       IIIIIIIIIIIIIIIIIIIIIIIIIIIIIIIIII",
"IIIIIIIIIIIIIIIIIIIIIIIIIIIII   o h5     q# X  III         #9yo    .      oIIIIIIIIIIIIIIIIIIIIIIIIIIIIIIIIIII",
"IIIIIIIIIIIIIIIIIIIIIIIIIIIII     :h    9y     IIIII       qSSd#  o         IIIIIIIIIIIIIIIIIIIIIIIIIIIIIIIIII",
"IIIIIIIIIIIIIIIIIIIIIIIIIIIII      &r&   .    IIIIIII      &SSSv#       o     IIIIIIIIIIIIIIIIIIIIIIIIIIIIIIII",
"IIIIIIIIIIIIIIIIIIIIIIIIIIIIII      #yd&       IIIIIII      ySSSx              IIIIIIIIIIIIIIIIIIIIIIIIIIIIIII",
"IIIIIIIIIIIIIIIIIIIIIIIIIIIIIIII o    :Bxy9    IIIIIIII      vSSSd.       .     IIIIIIIIIIIIIIIIIIIIIIIIIIIIII",
"IIIIIIIIIIIIIIIIIIIIIIIIIIIIIIIII      :BSm   oIIIIIIII      #BSSSqo            IIIIIIIIIIIIIIIIIIIIIIIIIIIIII",
"IIIIIIIIIIIIIIIIIIIIIIIIIIIIIIIIII      :nS&    IIIIIIII   X. :BSSx  &yt1:X     IIIIIIIIIIIIIIIIIIIIIIIIIIIIII",
"IIIIIIIIIIIIIIIIIIIIIIIIIIIIIIIIIIII     #hq    IIIIIIIII   X  9SB:  :SSB:   ..  IIIIIIIIIIIIIIIIIIIIIIIIIIIII",
"IIIIIIIIIIIIIIIIIIIIIIIIIIIIIIIIIIIII X    #    IIIIIIIII       9:   vSs%   .   IIIIIIIIIIIIIIIIIIIIIIIIIIIIII",
"IIIIIIIIIIIIIIIIIIIIIIIIIIIIIIIIIIIIII          IIIIIIIIIOo         dy&         IIIIIIIIIIIIIIIIIIIIIIIIIIIIII",
"IIIIIIIIIIIIIIIIIIIIIIIIIIIIIIIIIIIIIII         IIIIIIIIII         a:        o IIIIIIIIIIIIIIIIIIIIIIIIIIIIIII",
"IIIIIIIIIIIIIIIIIIIIIIIIIIIIIIIIIIIIIIII  .     IIIIIIIIIIo    Xqyy#Xo        IIIIIIIIIIIIIIIIIIIIIIIIIIIIIIII",
"IIIIIIIIIIIIIIIIIIIIIIIIIIIIIIIIIIIIIIIIII     IIIIIIIIIIII     5&           IIIIIIIIIIIIIIIIIIIIIIIIIIIIIIIII",
"IIIIIIIIIIIIIIIIIIIIIIIIIIIIIIIIIIIIIIIIIIII IIIIIIIIIIIIII              X.IIIIIIIIIIIIIIIIIIIIIIIIIIIIIIIIIII",
"IIIIIIIIIIIIIIIIIIIIIIIIIIIIIIIIIIIIIIIIIIIIIIIIIIIIIIIIIII        o     IIIIIIIIIIIIIIIIIIIIIIIIIIIIIIIIIIIII",
"IIIIIIIIIIIIIIIIIIIIIIIIIIIIIIIIIIIIIIIIIIIIIIIIIIIIIIIIIIII           IIIIIIIIIIIIIIIIIIIIIIIIIIIIIIIIIIIIIII",
"IIIIIIIIIIIIIIIIIIIIIIIIIIIIIIIIIIIIIIIIIIIIIIIIIIIIIIIIIIII          IIIIIIIIIIIIIIIIIIIIIIIIIIIIIIIIIIIIIIII",
"IIIIIIIIIIIIIIIIIIIIIIIIIIIIIIIIIIIIIIIIIIIIIIIIIIIIIIIIIIIII       IIIIIIIIIIIIIIIIIIIIIIIIIIIIIIIIIIIIIIIIII"
};
