/* XPM */
static char *result[] = {
/* columns rows colors chars-per-pixel */
"110 110 71 1 ",
"  c black",
". c #010000",
"X c #000100",
"o c #000001",
"O c #010001",
"+ c #000101",
"@ c #000200",
"# c #000002",
"$ c #070606",
"% c #070706",
"& c #070707",
"* c #191A14",
"= c #191A15",
"- c #191B15",
"; c gray10",
": c #2B2B26",
"> c #2B2A27",
", c #2B2B27",
"< c #2C2C2C",
"1 c #3C3D36",
"2 c #3D3D36",
"3 c #3E3E3E",
"4 c #4C4E45",
"5 c #4D4E45",
"6 c gray31",
"7 c #5D5F54",
"8 c #5D5F55",
"9 c #606060",
"0 c #6D6E63",
"q c #6D6F63",
"w c gray44",
"e c #7D7E73",
"r c #7C7F73",
"t c #7D7F73",
"y c #818181",
"u c #8D8F80",
"i c #8C8F81",
"p c #8D8F81",
"a c #9C9F8E",
"s c #9C9F8F",
"d c #909090",
"f c #ACAE9D",
"g c #A0A0A0",
"h c #A0A1A0",
"j c #A0A0A1",
"k c #BBBEAA",
"l c #BBBEAB",
"z c gray69",
"x c #CBCEB9",
"c c #CBCFB9",
"v c #C0C0C0",
"b c #C1C0C0",
"n c #C0C1C0",
"m c #DADEC8",
"M c #D0D0D0",
"N c #EAECD6",
"B c #EAEDD6",
"V c #EBEDD6",
"C c gray88",
"Z c #EFEEEF",
"A c #EFEFEF",
"S c #F8FCE4",
"D c #F9FCE4",
"F c #F8FDE4",
"G c #F8FCE5",
"H c #F9FCE5",
"J c #FFFFFE",
"K c #FFFEFF",
"L c #FEFFFF",
"P c white",
"I c None",
/* pixels */
"IIIIIIIIIIIIIIIIIIIIIIIIIIIIIIIIIIIIIIIIIIIIIIIIIIIIIIIIIIIIIIIIIIIIIIIIIIIIIIIIIIIIIIIIIIIIIIIIIIIIIIIIIIIIII",
"IIIIIIIIIIIIIIIIIIIIIIIIIIIIIIIIIIIIIIIIIIIIIIIIIIIIIIIIIIIIIIIIIIIIIIIIIIIIIIIIIIIIIIIIIIIIIIIIIIIIIIIIIIIIII",
"IIIIIIIIIIIIIIIIIIIIIIIIIIIIIIIIIIIIIIIIIIIIIIIIIIIIIIIIIIIIIIIIIIIIIIIIIIIIIIIIIIIIIIIIIIIIIIIIIIIIIIIIIIIIII",
"IIIIIIIIIIIIIIIIIIIIIIIIIIIIIIIIIIIIIIIIIIIIIIIIIIIIIIIIIIIIIIIIIIIIIIIIIIIIIIIIIIIIIIIIIIIIIIIIIIIIIIIIIIIIII",
"IIIIIIIIIIIIIIIIIIIIIIIIIIIIIIIIIIIIIIIIIIIIIIIIIIIIIIIIIIIIIIIIIIIIIIIIIIIIIIIIIIIIIIIIIIIIIIIIIIIIIIIIIIIIII",
"IIIIIIIIIIIIIIIIIIIIIIIIIIIIIIIIIIIIIIIIIIIIIIIIIIII  @IIIIIIIIIIIIIIIIIIIIIIIIIIIIIIIIIIIIIIIIIIIIIIIIIIIIIII",
"IIIIIIIIIIIIIIIIIIIIIIIIIIIIIIIIIIIIIIIIIIIII   XX             IIIIIIIIIIIIIIIIIIIIIIIIIIIIIIIIIIIIIIIIIIIIIII",
"IIIIIIIIIIIIIIIIIIIIIIIIIIIIIIIIIIIIIIIIII           o          X  IIIIIIIIIIIIIIIIIIIIIIIIIIIIIIIIIIIIIIIIIII",
"IIIIIIIIIIIIIIIIIIIIIIIIIIIIIIIIIIIIIIII   X                        o+IIIIIIIIIIIIIIIIIIIIIIIIIIIIIIIIIIIIIIII",
"IIIIIIIIIIIIIIIIIIIIIIIIIIIIIIIIIIIIII    X         11=           .  .   IIIIIIIIIIIIIIIIIIIIIIIIIIIIIIIIIIIII",
"IIIIIIIIIIIIIIIIIIIIIIIIIIIIIIIIIIII   o      5tkmSSSSSGSBlft5,X     .     IIIIIIIIIIIIIIIIIIIIIIIIIIIIIIIIIII",
"IIIIIIIIIIIIIIIIIIIIIIIIIIIIIIIIIII        5sSSSSSSSSSSSSSSSSSSBf0=         IIIIIIIIIIIIIIIIIIIIIIIIIIIIIIIIII",
"IIIIIIIIIIIIIIIIIIIIIIIIIIIIIIIIII       7mSFSSSSSSSSSSSSSSSGSSSSSGmt=        IIIIIIIIIIIIIIIIIIIIIIIIIIIIIIII",
"IIIIIIIIIIIIIIIIIIIIIIIIIIIIIIIII  X   1xSSSSSSSSSSFSSSSSSSSSSSSSSSSSSf1   X   IIIIIIIIIIIIIIIIIIIIIIIIIIIIIII",
"IIIIIIIIIIIIIIIIIIIIIIIIIIIIIII      %pSSSDSSSSSDDSSSSFSSSSSSSSSSSSSSSSSl, o    IIIIIIIIIIIIIIIIIIIIIIIIIIIIII",
"IIIIIIIIIIIIIIIIIIIIIIIIIIIIII      ,xSSGSSSSSSSSSSSSSSSSSSSSSSSSFSDFSSSSSp%  .  IIIIIIIIIIIIIIIIIIIIIIIIIIIII",
"IIIIIIIIIIIIIIIIIIIIIIIIIIIII      1BSSSSSSSSSSSSSSSSDSSSSSSSSSSSSSSSSSSSSSx> .   IIIIIIIIIIIIIIIIIIIIIIIIIIII",
"IIIIIIIIIIIIIIIIIIIIIIIIIIIII     7SSSSSSSSSSSSSSSSSSSSSSSSSSSSSSSSSSSSSSSSSB5     IIIIIIIIIIIIIIIIIIIIIIIIIII",
"IIIIIIIIIIIIIIIIIIIIIIIIIIII     7SSSSSSSSSSSSSSSSSSSSSSSSSSSSSSDSSSSSSSSSSSSS7     IIIIIIIIIIIIIIIIIIIIIIIIII",
"IIIIIIIIIIIIIIIIIIIIIIIIIII  X  7SSSSSSSSSSSSSSSSSSSSSSSSSSSSSFSSSSSSSSSSSDSSSS1     IIIIIIIIIIIIIIIIIIIIIIIII",
"IIIIIIIIIIIIIIIIIIIIIIIIIIo    5SSSSSSSDSSSSSSSFSSSSSSSSSSSSSSSSFSSSSSSSSSSSSSSB=    IIIIIIIIIIIIIIIIIIIIIIIII",
"IIIIIIIIIIIIIIIIIIIIIIIII  .  ,BSSSSSSFSSSFSSSSSSSSSSSSSSFSSSSSSSSSSSSSDSSSSSSSSx     IIIIIIIIIIIIIIIIIIIIIIII",
"IIIIIIIIIIIIIIIIIIIIIIIII    %mSSSSSSSSSSSSSSSSSSSSSSSSGSSSSSSSFSSSSSSSSSSSSSSSSS0    IIIIIIIIIIIIIIIIIIIIIIII",
"IIIIIIIIIIIIIIIIIIIIIIII     lSSSSSSSSSSSSSSSSSSSSSSSSSSSSSSSSSSSGSSSSSSSSSSSSSSSB%    IIIIIIIIIIIIIIIIIIIIIII",
"IIIIIIIIIIIIIIIIIIIIIII     tSSSSSSSSGSSSSSSSSSSSSSf.:xSSSSSSSSSSSSSSSSSSSSSSSDSSS7    IIIIIIIIIIIIIIIIIIIIIII",
"IIIIIIIIIIIIIIIIIIIIIII    =SSSSSSSSSSSSSSSSSSSSSSSt o%sSSSSSSSSSSSSSSSSSSSSSSSSSB0    IIIIIIIIIIIIIIIIIIIIIII",
"IIIIIIIIIIIIIIIIIIIIIII    sSSSSSSSSSSSSSSSSSSSSSSSB7   sDSSSSSSSSSSSSSSSSSSSSSmt%      IIIIIIIIIIIIIIIIIIIIII",
"IIIIIIIIIIIIIIIIIIIIII    &SSSSSSSSSSSGSSSSSDSSSSSSSSs   0SSSSSSSSSSSSSSSSDBft1 o o     IIIIIIIIIIIIIIIIIIIIII",
"IIIIIIIIIIIIIIIIIIIIII  X 7SSSSSSSSSSSSSSSSSSGSSSSSSSSx%  sSSSSSSSSSFSSBs7%       7l   XIIIIIIIIIIIIIIIIIIIIII",
"IIIIIIIIIIIIIIIIIIIIII    sSSSSFSDSSSSSSSSSSSSSSSSSSGDSx%  lSSSSSSSSBt,      .     ,    IIIIIIIIIIIIIIIIIIIIII",
"IIIIIIIIIIIIIIIIIIIIII    xSGSSSSSDSSSSGSSSSGSSDSSSSSSSSfX -BSSSSSSS7                    IIIIIIIIIIIIIIIIIIIII",
"IIIIIIIIIIIIIIIIIIIIII.   DSSSSSSSSSSSSSSSSSSSSSSSSSSSDSSt  tSSSSSSSs   . <dMPPPPv9       IIIIIIIIIIIIIIIIIIII",
"IIIIIIIIIIIIIIIIIIIIII    SSSSSSSSSSSSSSSSSSSSSSSSSSSSSSDS= %BSSSSSSB=  3MPPPPLPPPPM3     IIIIIIIIIIIIIIIIIIII",
"IIIIIIIIIIIIIIIIIIIIII   %SFSSSSSSSDSSSSSFSGSSSSSSSSFFSSSSs  sSSSSSSt  wPPPPPPPPPPPPPd  .  IIIIIIIIIIIIIIIIIII",
"IIIIIIIIIIIIIIIIIIIII    ,SSSSSSDSSSSSSSSSSSSSSSSSSSSSSSSSB  7SSSSSS% ;PPPPPPPPPPPPPPP9    IIIIIIIIIIIIIIIIIII",
"IIIIIIIIIIIIIIIIIIIIII    GSSSSSSSSSFSSDSSSSSSSSSSSSSSSSSSS1 1SSGSSf  jPPJPPPPPPPPPPPPZ%    IIIIIIIIIIIIIIIIII",
"IIIIIIIIIIIIIIIIIIIIII   XSSSSGSSSSSSSSSSSSSSSSSSSSSSSSSSSN= 1SSSSSe  APPKPPLPPPPPPPPPPw    IIIIIIIIIIIIIIIIII",
"IIIIIIIIIIIIIIIIIIIIII    SSSSSSSSSSSSSSSSSSSSSSSSSSFSSSBs=  0SSSSS5 &PPPPPPPPPPPPPPMvAz    IIIIIIIIIIIIIIIIII",
"IIIIIIIIIIIIIIIIIIIIII   olSSSSSSSSSSSSSSSSSSSSSSSSSSlp5   .,BSFSSS1 3PPPLPPPPPPPKM;  &C  X IIIIIIIIIIIIIIIIII",
"IIIIIIIIIIIIIIIIIIIIII    sSSSSSSSSSSSSSSSSSSSSxlt7,      %tNSSGSSS1 3PPPPPPPPPPPP6    y    IIIIIIIIIIIIIIIIII",
"IIIIIIIIIIIIIIIIIIIIII  . 0SSSSSSSSSSSSSSSx11          %7sFSSSSSSSS1o3PPPPPPPPPPPP6    y   .IIIIIIIIIIIIIIIIII",
"IIIIIIIIIIIIIIIIIIIIII    ,SSSSSSSSSSSSSSS7        10sxSSSSSSSSSSFS0 .PPPLPPPPPPPPv   &z.   IIIIIIIIIIIIIIIIII",
"IIIIIIIIIIIIIIIIIIIIIII    BSSSSSSSSSSSSSSx110tslBSSSSSSSSSFSDSSSSSt  APPPPPPPPPJPPv63Mg    IIIIIIIIIIIIIIIIII",
"IIIIIIIIIIIIIIIIIIIIIII    aSSSSSSSSSSSSSSSSSSSSSSSSSSSSSSSSSSSSSSSfX hPPPPPPPKPPPPPPPP3  o IIIIIIIIIIIIIIIIII",
"IIIIIIIIIIIIIIIIIIIIIII    5SSSSSSSSGSSSSSSSSSSSSSSSSSSSSSSSSFSSSSSS% ;PPPPPPPPPPPPPPPv    IIIIIIIIIIIIIIIIIII",
"IIIIIIIIIIIIIIIIIIIIIII     mSSSSSSSSSSSSSSSSSSSSSDSSSSSSSSHSSSSSSSSt  yPPPPPPPLPPPPPA;    IIIIIIIIIIIIIIIIIII",
"IIIIIIIIIIIIIIIIIIIIIIII    tSSSSSSSSSSSSSSSSSSSBlt71115sSSSDSDSSSSSB=  gPPPPPPPPPPPM<     IIIIIIIIIIIIIIIIIII",
"IIIIIIIIIIIIIIIIIIIIIIII    %BSSSSSSSSFSSSSSSx0:         5sSSSSSSSSSSx   yPPPPPPPPAy&      IIIIIIIIIIIIIIIIIII",
"IIIIIIIIIIIIIIIIIIIIIIIII    tSSSSSSSDSSSSBp=       121%   ,xSSSSSSSSFs   ;wvAPMg9.   ,    IIIIIIIIIIIIIIIIIII",
"IIIIIIIIIIIIIIIIIIIIIIIII    %BSSSSSSSSSSs%    =0fmDSSSt     pSSSSSSSSSl=      .    =flX . IIIIIIIIIIIIIIIIIII",
"IIIIIIIIIIIIIIIIIIIIIIIIII    4SSSSSSSSSm   =0xSSSSSSSS7      5BSSllmSSSBt*       5sGSa    IIIIIIIIIIIIIIIIIII",
"IIIIIIIIIIIIIIIIIIIIIIIIII     tSSSSSSSSt  uSSSGSSSSSSS=       =s=   0SSBlllfttslSSSSS0    IIIIIIIIIIIIIIIIIII",
"IIIIIIIIIIIIIIIIIIIIIIIIIII     tBSSSSSSt  SSSSFSSSSSFm             X 0s%   0BSSltfxGS=    IIIIIIIIIIIIIIIIIII",
"IIIIIIIIIIIIIIIIIIIIIIIIIIII     %10t51%   SSSSSSSSSSSs           9z&        ,l%    1p    IIIIIIIIIIIIIIIIIIII",
"IIIIIIIIIIIIIIIIIIIIIIIIIIII    X       .  BSSSSSSSSSF7    II    3PPv    gz<              IIIIIIIIIIIIIIIIIIII",
"IIIIIIIIIIIIIIIIIIIIIIIIIIIII              fSSSSSSSSSS,X   II   ogPPP   yPPA<   dCb9  X   IIIIIIIIIIIIIIIIIIII",
"IIIIIIIIIIIIIIIIIIIIIIIIIIIIIII    o ..o   7SSSSDSSSSS    III.   CPPP   APPPv  &PPPA&    IIIIIIIIIIIIIIIIIIIII",
"IIIIIIIIIIIIIIIIIIIIIIIIIIIIIIIII          %BSSSSSSSSS X.        PJPz  ;PPPPP  ;PPLP3    IIIIIIIIIIIIIIIIIIIII",
"IIIIIIIIIIIIIIIIIIIIIIIIIIIIIIIIIIIIII      7SSSSSSSGS           MLn&  &PPPPP   MPKP3    IIIIIIIIIIIIIIIIIIIII",
"IIIIIIIIIIIIIIIIIIIIIIIIIIIIIIIIIIIIII   .  .7SSSSFSSS=          ;<     CPPPz   3PPP;    IIIIIIIIIIIIIIIIIIIII",
"IIIIIIIIIIIIIIIIIIIIIIIIIIIIIIIIIIIII     t%  pSSSSSSSf% X              <MPz&    3z6 X  IIIIIIIIIIIIIIIIIIIIII",
"IIIIIIIIIIIIIIIIIIIIIIIIIIIIIIIIIIIII    tSx%  7SSSSSSSmatttt1111110rt1       7,        IIIIIIIIIIIIIIIIIIIIII",
"IIIIIIIIIIIIIIIIIIIIIIIIIIIIIIIIIIII     BSDc%  7SSSSFSSSSSSSSSSSSSSSSV5     tFB7      IIIIIIIIIIIIIIIIIIIIIII",
"IIIIIIIIIIIIIIIIIIIIIIIIIIIIIIIIIIII X  7SSSSx%  5BSSSSSSDSSSSSSSSSSSSSSxptsmSSSSB%    IIIIIIIIIIIIIIIIIIIIIII",
"IIIIIIIIIIIIIIIIIIIIIIIIIIIIIIIIIIII    fSSSSSx%  ,BSSSSSSSSSSSSSSSSSSSSSSSSSSSSSS    IIIIIIIIIIIIIIIIIIIIIIII",
"IIIIIIIIIIIIIIIIIIIIIIIIIIIIIIIIIIII    fSSSSSSB=  %xSSSSSSSSSSSSSSSSSSSSSSSSSSGSS    IIIIIIIIIIIIIIIIIIIIIIII",
"IIIIIIIIIIIIIIIIIIIIIIIIIIIIIIIIIIII    rSSSSSSS=    pSSSSSSSSSSSSSSSSSSSSSSSSSSSB    IIIIIIIIIIIIIIIIIIIIIIII",
"IIIIIIIIIIIIIIIIIIIIIIIIIIIIIIIIIIII    1SSSSSSS      1xSSSSSSSSSSSDSSSSSSSSSSSFSl    IIIIIIIIIIIIIIIIIIIIIIII",
"IIIIIIIIIIIIIIIIIIIIIIIIIIIIIIIIIIII    %SSSSSSx   0%   %1tplxSSFSSSGSSSSSSSSSSSS0    IIIIIIIIIIIIIIIIIIIIIIII",
"IIIIIIIIIIIIIIIIIIIIIIIIIIIIIIIIIIIII    mSSSSSf o lB8o         %11117ttttttt7111X    IIIIIIIIIIIIIIIIIIIIIIII",
"IIIIIIIIIIIIIIIIIIIIIIIIIIIIIIIIIIIII    =fSSSS7   lSSmp,                            IIIIIIIIIIIIIIIIIIIIIIIII",
"IIIIIIIIIIIIIIIIIIIIIIIIIIIIIIIIIIII       =sBB%   lSSSSt                        o   IIIIIIIIIIIIIIIIIIIIIIIII",
"IIIIIIIIIIIIIIIIIIIIIIIIIIIIIIIIIIII    =      o   xSSSS4                           IIIIIIIIIIIIIIIIIIIIIIIIII",
"IIIIIIIIIIIIIIIIIIIIIIIIIIIIIIIIIIII  X tm0%X      SSSSS1                        IIIIIIIIIIIIIIIIIIIIIIIIIIIII",
"IIIIIIIIIIIIIIIIIIIIIIIIIIIIIIIIIIII   XfSSSfrtp, 1SSSSS                IIIIIIIIIIIIIIIIIIIIIIIIIIIIIIIIIIIIII",
"IIIIIIIIIIIIIIIIIIIIIIIIIIIIIIIIIIII    mSSSSSSS1 1SSSSB                IIIIIIIIIIIIIIIIIIIIIIIIIIIIIIIIIIIIII",
"IIIIIIIIIIIIIIIIIIIIIIIIIIIIIIIIIIII  X%SSSSSSSS1 1SSSSl  fSBllpt1= .    IIIIIIIIIIIIIIIIIIIIIIIIIIIIIIIIIIIII",
"IIIIIIIIIIIIIIIIIIIIIIIIIIIIIIIIIII    1SSSSDSSS2 1SSSSi  xSSSSSSSSB7    IIIIIIIIIIIIIIIIIIIIIIIIIIIIIIIIIIIII",
"IIIIIIIIIIIIIIIIIIIIIIIIIIIIIIIIIII    0SSDSSSSS1 1SSSS7  SSSSSSSSSSf    IIIIIIIIIIIIIIIIIIIIIIIIIIIIIIIIIIIII",
"IIIIIIIIIIIIIIIIIIIIIIIIIIIIIIIIIII    tSSSSSsts1  SSSx% 5SSSSSSSGSSB    IIIIIIIIIIIIIIIIIIIIIIIIIIIIIIIIIIIII",
"IIIIIIIIIIIIIIIIIIIIIIIIIIIIIIIIIII .  8SSSS5      fmt%  7llmSSSSSSSS,    IIIIIIIIIIIIIIIIIIIIIIIIIIIIIIIIIIII",
"IIIIIIIIIIIIIIIIIIIIIIIIIIIIIIIIIII     lSSs    X               %121,    IIIIIIIIIIIIIIIIIIIIIIIIIIIIIIIIIIIII",
"IIIIIIIIIIIIIIIIIIIIIIIIIIIIIIIIIIII O .=BS=  5llq    ==                 IIIIIIIIIIIIIIIIIIIIIIIIIIIIIIIIIIIII",
"IIIIIIIIIIIIIIIIIIIIIIIIIIIIIIIIIIIIX    1s.  =SSS  5xS1                 IIIIIIIIIIIIIIIIIIIIIIIIIIIIIIIIIIIII",
"IIIIIIIIIIIIIIIIIIIIIIIIIIIIIIIIIIIII          mSx  tSS1                IIIIIIIIIIIIIIIIIIIIIIIIIIIIIIIIIIIIII",
"IIIIIIIIIIIIIIIIIIIIIIIIIIIIIIIIIIIIII         7SBo 5SS1  X IIIII    IIIIIIIIIIIIIIIIIIIIIIIIIIIIIIIIIIIIIIIII",
"IIIIIIIIIIIIIIIIIIIIIIIIIIIIIIIIIIIIIII    X    mS1 1SSt    IIIIIIIIIIIIIIIIIIIIIIIIIIIIIIIIIIIIIIIIIIIIIIIIII",
"IIIIIIIIIIIIIIIIIIIIIIIIIIIIIIIIIIIIIIII       o0S1 =SSf     IIIIIIIIIIIIIIIIIIIIIIIIIIIIIIIIIIIIIIIIIIIIIIIII",
"IIIIIIIIIIIIIIIIIIIIIIIIIIIIIIIIIIIIIIIII X     =S0  SSB     XIIIIIIIIIIIIIIIIIIIIIIIIIIIIIIIIIIIIIIIIIIIIIIII",
"IIIIIIIIIIIIIIIIIIIIIIIIIIIIIIIIIIIIIIIIIIIII    t5  SSS0      IIIIIIIIIIIIIIIIIIIIIIIIIIIIIIIIIIIIIIIIIIIIIII",
"IIIIIIIIIIIIIIIIIIIIIIIIIIIIIIIIIIIIIIIIIIIII .     ,SSSl      IIIIIIIIIIIIIIIIIIIIIIIIIIIIIIIIIIIIIIIIIIIIIII",
"IIIIIIIIIIIIIIIIIIIIIIIIIIIIIIIIIIIIIIIIIIIII       fSSS, o    IIIIIIIIIIIIIIIIIIIIIIIIIIIIIIIIIIIIIIIIIIIIIII",
"IIIIIIIIIIIIIIIIIIIIIIIIIIIIIIIIIIIIIIIIIIIII      =SSSm       IIIIIIIIIIIIIIIIIIIIIIIIIIIIIIIIIIIIIIIIIIIIIII",
"IIIIIIIIIIIIIIIIIIIIIIIIIIIIIIIIIIIIIIIIIIIII         0,      IIIIIIIIIIIIIIIIIIIIIIIIIIIIIIIIIIIIIIIIIIIIIIII",
"IIIIIIIIIIIIIIIIIIIIIIIIIIIIIIIIIIIIIIIIIIIII    0         o IIIIIIIIIIIIIIIIIIIIIIIIIIIIIIIIIIIIIIIIIIIIIIIII",
"IIIIIIIIIIIIIIIIIIIIIIIIIIIIIIIIIIIIIIIIIIIII   Xrt51      IIIIIIIIIIIIIIIIIIIIIIIIIIIIIIIIIIIIIIIIIIIIIIIIIII",
"IIIIIIIIIIIIIIIIIIIIIIIIIIIIIIIIIIIIIIIIIIIII    tSSSt    IIIIIIIIIIIIIIIIIIIIIIIIIIIIIIIIIIIIIIIIIIIIIIIIIIII",
"IIIIIIIIIIIIIIIIIIIIIIIIIIIIIIIIIIIIIIIIIIII     tSSSso   IIIIIIIIIIIIIIIIIIIIIIIIIIIIIIIIIIIIIIIIIIIIIIIIIIII",
"IIIIIIIIIIIIIIIIIIIIIIIIIIIIIIIIIIIIIIIIIIII  X .7SSSl      IIIIIIIIIIIIIIIIIIIIIIIIIIIIIIIIIIIIIIIIIIIIIIIIII",
"IIIIIIIIIIIIIIIIIIIIIIIIIIIIIIIIIIIIIIIIIIII     1SSSl        IIIIIIIIIIIIIIIIIIIIIIIIIIIIIIIIIIIIIIIIIIIIIIII",
"IIIIIIIIIIIIIIIIIIIIIIIIIIIIIIIIIIIIIIIIIIII     %lp5$   o     IIIIIIIIIIIIIIIIIIIIIIIIIIIIIIIIIIIIIIIIIIIIIII",
"IIIIIIIIIIIIIIIIIIIIIIIIIIIIIIIIIIIIIIIIIII            =t% X    IIIIIIIIIIIIIIIIIIIIIIIIIIIIIIIIIIIIIIIIIIIIII",
"IIIIIIIIIIIIIIIIIIIIIIIIIIIIIIIIIIIIIIIIIII    7=   o5pmSx, X  XIIIIIIIIIIIIIIIIIIIIIIIIIIIIIIIIIIIIIIIIIIIIII",
"IIIIIIIIIIIIIIIIIIIIIIIIIIIIIIIIIIIIIIIIIII    tlttppsllmSx,   o IIIIIIIIIIIIIIIIIIIIIIIIIIIIIIIIIIIIIIIIIIIII",
"IIIIIIIIIIIIIIIIIIIIIIIIIIIIIIIIIIIIIIIIIII    o                 IIIIIIIIIIIIIIIIIIIIIIIIIIIIIIIIIIIIIIIIIIIII",
"IIIIIIIIIIIIIIIIIIIIIIIIIIIIIIIIIIIIIIIIIII                      IIIIIIIIIIIIIIIIIIIIIIIIIIIIIIIIIIIIIIIIIIIII",
"IIIIIIIIIIIIIIIIIIIIIIIIIIIIIIIIIIIIIIIIIII               o     IIIIIIIIIIIIIIIIIIIIIIIIIIIIIIIIIIIIIIIIIIIIII",
"IIIIIIIIIIIIIIIIIIIIIIIIIIIIIIIIIIIIIIIIIIII      O           #IIIIIIIIIIIIIIIIIIIIIIIIIIIIIIIIIIIIIIIIIIIIIII",
"IIIIIIIIIIIIIIIIIIIIIIIIIIIIIIIIIIIIIIIIIIIIIIIIIIIIIIIIIIIIIIIIIIIIIIIIIIIIIIIIIIIIIIIIIIIIIIIIIIIIIIIIIIIIII",
"IIIIIIIIIIIIIIIIIIIIIIIIIIIIIIIIIIIIIIIIIIIIIIIIIIIIIIIIIIIIIIIIIIIIIIIIIIIIIIIIIIIIIIIIIIIIIIIIIIIIIIIIIIIIII"
};
