/* XPM */
static char *result[] = {
/* columns rows colors chars-per-pixel */
"110 110 50 1 ",
"  c black",
". c #0D0C0B",
"X c #10100E",
"o c #1A1915",
"O c #1F201C",
"+ c #272520",
"@ c #2F2F2B",
"# c #34322A",
"$ c #393831",
"% c #3E3F39",
"& c #4D4A3F",
"* c #4E4F47",
"= c #5A574A",
"- c #5D5F55",
"; c #676354",
": c #6D6E63",
"> c #7C7E72",
", c #817C69",
"< c #8E8874",
"1 c #9B957E",
"2 c #8C8E80",
"3 c #9B9E8E",
"4 c #A7A189",
"5 c #ADAC98",
"6 c #ABAD9C",
"7 c #B4AD93",
"8 c #BAB9A2",
"9 c #BABDAA",
"0 c #C1BA9E",
"q c #CEC6A8",
"w c #D1C9AC",
"e c #D3CDAF",
"r c #CACDB8",
"t c #D6D0B3",
"y c #D9D4B7",
"u c #DBD7BA",
"i c #DEDABE",
"p c #D9DDC7",
"a c #E0DEC2",
"s c #E3E1C6",
"d c #E6E4C9",
"f c #E8E8CD",
"g c #EBEBD1",
"h c #E9ECD5",
"j c #EEEFD4",
"k c #F0F2D8",
"l c #F3F5DC",
"z c #F5F9DF",
"x c #F8FCE3",
"c c None",
/* pixels */
"cccccccccccccccccccccccccccccccccccccccccccccccccccccccccccccccccccccccccccccccccccccccccccccccccccccccccccccc",
"cccccccccccccccccccccccccccccccccccccccccccccccccccccccccccccccccccccccccccccccccccccccccccccccccccccccccccccc",
"cccccccccccccccccccccccccccccccccccccccccccccccccccccccccccccccccccccccccccccccccccccccccccccccccccccccccccccc",
"cccccccccccccccccccccccccccccccccccccccccccccccccccccccccccccccccccccccccccccccccccccccccccccccccccccccccccccc",
"ccccccccccccccccccccccccccccccccccccccccccccccccc              ccccccccccccccccccccccccccccccccccccccccccccccc",
"cccccccccccccccccccccccccccccccccccccccccccc                         ccccccccccccccccccccccccccccccccccccccccc",
"cccccccccccccccccccccccccccccccccccccccc                                cccccccccccccccccccccccccccccccccccccc",
"cccccccccccccccccccccccccccccccccccccc                                     ccccccccccccccccccccccccccccccccccc",
"cccccccccccccccccccccccccccccccccccc             @%%>>>>>>>>*%%              ccccccccccccccccccccccccccccccccc",
"cccccccccccccccccccccccccccccccccc          %>9pxxxxxxxxxxxxxxxxh92*X         cccccccccccccccccccccccccccccccc",
"ccccccccccccccccccccccccccccccccc        *6hxxxxxxxxxxxxxxxxxxxxxxxxx9-X        cccccccccccccccccccccccccccccc",
"ccccccccccccccccccccccccccccccc       X>hxxxxxxxxxxxxxxxxxxxxxxxxxxxxxxx3O       ccccccccccccccccccccccccccccc",
"cccccccccccccccccccccccccccccc       >hxxxxxxxxxxxxxxxzszxxxxxxxxxxxxxxxxx3X      cccccccccccccccccccccccccccc",
"ccccccccccccccccccccccccccccc      %pxxxxxxxxxxxxxxxxxsqsxxxxxxxxxxxxxxxxxxh:      ccccccccccccccccccccccccccc",
"cccccccccccccccccccccccccccc      :xxxxxxxxxxxxxxxxxxxyqfxxxxxxxxxxxxxxxxxxxx3X     cccccccccccccccccccccccccc",
"ccccccccccccccccccccccccccc      3xxxxxxxxxxxxxxxxxxxxyqfxxxxxxxxxxxxxxxxxxxxxrX     ccccccccccccccccccccccccc",
"ccccccccccccccccccccccccccc     3xxxxxxxxxxxxxxxxxxxxxsqwzxxxxxxxxxxxxxxxxxxxxxrX     cccccccccccccccccccccccc",
"cccccccccccccccccccccccccc     3xxxxxxxxxxxxxxxxxxxxxxxtqfxxxxxxxxxxxxxxxxxxxxxxrX    cccccccccccccccccccccccc",
"ccccccccccccccccccccccccc     -xxxxxxxxxxxxxxxxxxxxxxxxuqsxxxxxxxxxxxxxxxxxxxxxxx3     ccccccccccccccccccccccc",
"ccccccccccccccccccccccccc    Ohxxxxxxxxxxxxxxxxxxxxxxxfqqlxxxxxxxxxxxxxxxxxxxxxxxx*    ccccccccccccccccccccccc",
"cccccccccccccccccccccccc     9xxxxxxxxxxxxxxxxxxxxxxxfqqsxxxxxxxxxxxxxxxxxxxxxxxxxhX    cccccccccccccccccccccc",
"cccccccccccccccccccccccc    %xxxxxxxxxxxxxxxxxxxxxxxzwqixxxxxxxxxxxxxxxxxxxxxxxxxxx>    cccccccccccccccccccccc",
"ccccccccccccccccccccccc     9xxxxxxxxxxxxxxxxxxxxxxxfqyxxxxxxxxxxxxxxxxxxxxxxxxxxxxhX    ccccccccccccccccccccc",
"ccccccccccccccccccccccc    @xxxxxxxxxxxxxxxxxxxxxxxxsqsxxxxxxxxxxxxxxxxxxxxxxxxxxxxx:    ccccccccccccccccccccc",
"ccccccccccccccccccccccc    3xxxxxxxxxxxxxxxxxxxxxxxxsqsxxxxxxxxxxxxxxxxxxxxxxxxxxxxxr    ccccccccccccccccccccc",
"ccccccccccccccccccccccc    pxxxxxxxxxxxxxxxxxxxxxxxxdqixxxxxxxxxxxxxxxxxxxxxxxxxxxxxxO    cccccccccccccccccccc",
"cccccccccccccccccccccc    Oxxxxxxxxxxxxxxxxxxxxxxxxxlqqkxxxxxxxxxxxxxxxxxxxxxxxxxxxxx-    cccccccccccccccccccc",
"cccccccccccccccccccccc    *xxxxxxxxxxxxxxxxxxxxxxxxxxuqtzxxxxxxxxxxxxxxxxxxxxxxxxxxxx2    cccccccccccccccccccc",
"cccccccccccccccccccccc    >xxxxxxxxxxxxxxxxxxxxxxxxxxzwqaxxxxxxxxxxxxxxxxxxxxxxxxxxxx9    cccccccccccccccccccc",
"cccccccccccccccccccccc    >xxxxxxxxxxxxxxxxxxxxxxxxxxxjqqkxxxxxxxxxxxxxxxxxxxxxxxxxxx9    cccccccccccccccccccc",
"cccccccccccccccccccccc    6xxxxxxxxxxxxxxxxxxxxxxxxxxxxiqixxxxxxxxxxxxxxxxxxxxxxxxxxxp    cccccccccccccccccccc",
"cccccccccccccccccccccc    9xxxxxxxxxxxxxxxxxxxxxxxxxxxxjqyxxxxxxxxxxxxxxxxxxxxxxxxxxxx    cccccccccccccccccccc",
"cccccccccccccccccccccc    6xxxxxxxxxxxxxxxxxxxxxxxxxxxxuqixxxxxxxxxxxxxxxxxxxxxxxxxxxh    cccccccccccccccccccc",
"cccccccccccccccccccccc    >xxxxxxxxxxxxxxxxxxxxxxxxxxxiqqjxxxxxxxxxxxxxxxxxxxxxxxxxxx9    cccccccccccccccccccc",
"cccccccccccccccccccccc    >xxxxxxxxxxxxxxxxxxxxxxxxxxaqqtxxxxxxxxxxxxxxxxxxxxxxxxxxxx9    cccccccccccccccccccc",
"cccccccccccccccccccccc    >xxxxxxxxxxxxxxxxxxxxxxxxxgqqqqkxxxxxxxxxxxxxxxxxxxxxxxxxxx9    cccccccccccccccccccc",
"cccccccccccccccccccccc    *xxxxxxxxxxxxxxxxxxxxxxxxkwqauquxxxxxxxxxxxxxxxxxxxxxxxxxxx2    cccccccccccccccccccc",
"cccccccccccccccccccccc    @xxxxxxxxxxxxxxxxxxxxxxjiqqyxkqqedkxxxxxxxxxxxxxxxxxxxxxxxx:    cccccccccccccccccccc",
"ccccccccccccccccccccccc    xxxxxxxxxxxxxxxxxxlatqqqqizxxgwqqqqujxxxxxxxxxxxxxxxxxxxxx%    cccccccccccccccccccc",
"ccccccccccccccccccccccc    9xxxxxxxxxxxxxxxxaqqqqtijxxxxxzfieqqqixxxxxxxxxxxxxxxxxxxx    ccccccccccccccccccccc",
"ccccccccccccccccccccccc    >xxxxxxxxxxxxxxztqqugxxxxxxxxxxxxxlsqqixxxxxxxxxxxxxxxxxx9    ccccccccccccccccccccc",
"ccccccccccccccccccccccc    %xxxxxxxxxxxxxxtqwjxxxxxxxxxxxxxxxxxjqqjxxxxxxxxxxxxxxxxx>    ccccccccccccccccccccc",
"cccccccccccccccccccccccc    xxxxxxxxxxxxxaqwkxxxxxxxxxxxxxxxxxxxiqtxxxxxxxxxxxxxxxxx%    ccccccccccccccccccccc",
"cccccccccccccccccccccccc    xxxxxxxxxxxxjqqgxxxxxxxxxxxxxxxxxxxxzwqtsaifxxxxxxxxxxxx%    ccccccccccccccccccccc",
"cccccccccccccccccccccccc    xxxxxxxxxxxxtquxxxxxxxxxxxxxxxxxxxxxxkwqqqqqudxxxxxxxxxx%    ccccccccccccccccccccc",
"cccccccccccccccccccccccc    xxxxxxxxxxxxwwzxxxxxxxxxxxxxxxxxxxxxxxzfsssqqqlxxxxxxxxx%    ccccccccccccccccccccc",
"cccccccccccccccccccccccc    xxxxxxxxxxxxzzxxxxxxxxxxxxxxxxxxxxxxxxxxxxxjafxxxxxxxxxx%    ccccccccccccccccccccc",
"cccccccccccccccccccccccc    xxxxxxxxxxxxxxxxxxxxxxxxxxxxxxxxxxxxxxxxxxxxxxxxxxxxxxxx%    ccccccccccccccccccccc",
"cccccccccccccccccccccccc    xxxxxxxxxxxxxxxxxxxxxxxxxxxxxxxxxxxxxxxxxxxxxxxxxxxxxxxx%    ccccccccccccccccccccc",
"cccccccccccccccccccccccc    pxxxxxxxxxxxxxxxxxxxxxxxxxxxxxxxxxxxxxxxxxxxxxxxxxxxxxxxO    ccccccccccccccccccccc",
"cccccccccccccccccccccccc    9xxxxxxxxxxxxxxxxxxxxxxxxxxxxxxxxxxxxxxxxxxxxxxxxxxxxxxx    cccccccccccccccccccccc",
"cccccccccccccccccccccccc    >xxxxxxxxxxxxxxxxxxxxxxxxxxxxxxxxxxxxxxxxxxxxxxxxxxxxxx9    cccccccccccccccccccccc",
"cccccccccccccccccccccccc    @xxxxxxxxxxxxxxxxxxxxxxxxxxxxxxxxxxxxxxxxxxxxxxxxxxxxxx:    cccccccccccccccccccccc",
"ccccccccccccccccccccccccc    9xxxxxxxxxxxxxxxxxxxxxxxr92>>9hxxxxxxxxxxxxxxxxxxxxxxhX    cccccccccccccccccccccc",
"ccccccccccccccccccccccccc    @hxxxxxxxxxxxxxxxxxxxx>X      X3xxxxxxxxxxxxxxxxxxxxx-    ccccccccccccccccccccccc",
"ccccccccccccccccccccccccc     X>rxxxxxxxxxxxxxxxxx6          9xxxxxxxxxxxxxxxxxp3O     ccccccccccccccccccccccc",
"cccccccccccccccccccccccccc        @%%>>>>>>%%%% %x@  39rxh3  %x> @%%%:>>>>>*%%        cccccccccccccccccccccccc",
"ccccccccccccccccccccccccccc                      8  :xxxxxx-  5$                     ccccccccccccccccccccccccc",
"cccccccccccccccccccccccccccc               +###=<=  pxxxxxxp  #4;####               cccccccccccccccccccccccccc",
"cccccccccccccccccccccccccccccc       ;qqqqqqqqqqq+ @xxxxxxxx-  4qqqqqqqqqq;       cccccccccccccccccccccccccccc",
"ccccccccccccccccccccccccccccccccc    .0qqqqqqqqqq  :xxxxxxxxr  &qqqqqqqqqq.    ccccccccccccccccccccccccccccccc",
"cccccccccccccccccccccccccccccccccc    ;qqqqqqqqq1  3xxh99996>X  0qqqqqqqq,    cccccccccccccccccccccccccccccccc",
"cccccccccccccccccccccccccccccccccc    .0qqqqq0,&+  @             #&,0qqqqo    cccccccccccccccccccccccccccccccc",
"ccccccccccccccccccccccccccccccccccc    ;qq71&.                      .&4q,    ccccccccccccccccccccccccccccccccc",
"ccccccccccccccccccccccccccccccccccc    .=o      %--O  O9999>  O--%     ..    ccccccccccccccccccccccccccccccccc",
"cccccccccccccccccccccccccccccccccc           %3hxxxp  Oxxxx>  hxxxh3%          ccccccccccccccccccccccccccccccc",
"ccccccccccccccccccccccccccccccccc          @9xxxxxxx   xxxx>  xxxxxxx9@         cccccccccccccccccccccccccccccc",
"cccccccccccccccccccccccccccccccc          :xxxxxxxxx   xxxx>  xxxxxxxxx:         ccccccccccccccccccccccccccccc",
"ccccccccccccccccccccccccccccccc      >>  >xxxxxxxxxp  Oxxxx>  pxxxxxxxxx>  @X     cccccccccccccccccccccccccccc",
"cccccccccccccccccccccccccccccc     @px>  xxxxxxxxxx9  >xxxx9  9xxxxxxxxxx  >h*     ccccccccccccccccccccccccccc",
"cccccccccccccccccccccccccccccc    @hxx@  6xxxxxxxxx-  pxxxxp  -xxxxxxxxx3  3xx-    ccccccccccccccccccccccccccc",
"cccccccccccccccccccccccccccccc    pxx6   %xxxxxxxxr  @xxxxxx@  rxxxxxxxx%  >xxhX    cccccccccccccccccccccccccc",
"ccccccccccccccccccccccccccccc    @xxx>    9xxxxxxx%  9xxxxxx*  %xxxxxxx9   %xxx*    cccccccccccccccccccccccccc",
"ccccccccccccccccccccccccccccc    %xxx% X  %xxxxxx2  *xxxxxx9    2xxxxxx%   %xxx>    cccccccccccccccccccccccccc",
"ccccccccccccccccccccccccccccc    %xxx%     6xxxxr   Xrxxxxx9    Xrxxxx6    %xxx>    cccccccccccccccccccccccccc",
"ccccccccccccccccccccccccccccc    %xxx%     Ohxxh@    >xxxxx9     @hxxhO    %xxx>    cccccccccccccccccccccccccc",
"ccccccccccccccccccccccccccccc    %xxx%      *xx*     >xxxxxr      -xx*     Oxxx*    cccccccccccccccccccccccccc",
"cccccccccccccccccccccccccccccc    3xp        --      6xxxxxx       --       9xrX    cccccccccccccccccccccccccc",
"cccccccccccccccccccccccccccccc     *O                hxxxxxx@               X*     ccccccccccccccccccccccccccc",
"cccccccccccccccccccccccccccccc                      :xxxxxxx-                      ccccccccccccccccccccccccccc",
"cccccccccccccccccccccccccccccc    *XX   X%->>>>>>>>3xxxxxxxxh:%%%%%->>693  -@XO    ccccccccccccccccccccccccccc",
"cccccccccccccccccccccccccccccc    xx>   xxxxxxxxxxxxxxxxxxxxxxxxxxxxxxxx9  9xx9    ccccccccccccccccccccccccccc",
"ccccccccccccccccccccccccccccc    %xx>  *xxxxxxxxxxxxxxxxxxxxxxxxxxxxxxxx9  9xxp    ccccccccccccccccccccccccccc",
"ccccccccccccccccccccccccccccc    %xx2  >xh92>%O    :xxxxxxxxxxxxxxxxxxxh2  9xxx    ccccccccccccccccccccccccccc",
"ccccccccccccccccccccccccccccc    %xx9               2xxxxxxxx6*%%%%        9xxx    ccccccccccccccccccccccccccc",
"ccccccccccccccccccccccccccccc    %xx9         %>-    3xxxxxx-              pxxx    ccccccccccccccccccccccccccc",
"ccccccccccccccccccccccccccccc    %xxp         9hh     3xxxx-   %@          xxxx    ccccccccccccccccccccccccccc",
"ccccccccccccccccccccccccccccc    %xxx           O      -hx3    X           xxxx    ccccccccccccccccccccccccccc",
"ccccccccccccccccccccccccccccc    %xxx                   X%                 xxxx    ccccccccccccccccccccccccccc",
"ccccccccccccccccccccccccccccc    %xxx         3>O              %>>        %xxxx    ccccccccccccccccccccccccccc",
"ccccccccccccccccccccccccccccc    Oxxx        2xxh@            @xxx>       @xxx9    ccccccccccccccccccccccccccc",
"cccccccccccccccccccccccccccccc    @>-       Xxxxxp           Ohxxxh        69>O    ccccccccccccccccccccccccccc",
"cccccccccccccccccccccccccccccc              %xxxxx            xxxxx                ccccccccccccccccccccccccccc",
"ccccccccccccccccccccccccccccccc             Xxxxx9            hxxxx               cccccccccccccccccccccccccccc",
"ccccccccccccccccccccccccccccccc              xxxx3            9xxxh              ccccccccccccccccccccccccccccc",
"ccccccccccccccccccccccccccccccccc            pxxx:  O      @  >xxx9             cccccccccccccccccccccccccccccc",
"ccccccccccccccccccccccccccccccccccccc     -  9xxx% @2      6X *xxx3  -     ccccccccccccccccccccccccccccccccccc",
"ccccccccccccccccccccccccccccccccccccc    >p  O%%X  -9      h*  X%%O  x-    ccccccccccccccccccccccccccccccccccc",
"ccccccccccccccccccccccccccccccccccccc    9x@       99      h6       *x9    ccccccccccccccccccccccccccccccccccc",
"ccccccccccccccccccccccccccccccccccccc    9xr*%%%->9x>      3x9>*%%%-px9    ccccccccccccccccccccccccccccccccccc",
"ccccccccccccccccccccccccccccccccccccc    >xxxxxxxxxrX      Xhxxxxxxxxx*    ccccccccccccccccccccccccccccccccccc",
"ccccccccccccccccccccccccccccccccccccc     3xxxxxxxp@        @hxxxxxxx>     ccccccccccccccccccccccccccccccccccc",
"cccccccccccccccccccccccccccccccccccccc     *pxxxx3X          O9xxxxp%     cccccccccccccccccccccccccccccccccccc",
"cccccccccccccccccccccccccccccccccccccc       *>:O      cc      O:>*       cccccccccccccccccccccccccccccccccccc",
"ccccccccccccccccccccccccccccccccccccccc               cccc               ccccccccccccccccccccccccccccccccccccc",
"cccccccccccccccccccccccccccccccccccccccc             cccccc            ccccccccccccccccccccccccccccccccccccccc",
"cccccccccccccccccccccccccccccccccccccccccc          cccccccc          cccccccccccccccccccccccccccccccccccccccc",
"cccccccccccccccccccccccccccccccccccccccccccc     cccccccccccccc    ccccccccccccccccccccccccccccccccccccccccccc",
"cccccccccccccccccccccccccccccccccccccccccccccccccccccccccccccccccccccccccccccccccccccccccccccccccccccccccccccc",
"cccccccccccccccccccccccccccccccccccccccccccccccccccccccccccccccccccccccccccccccccccccccccccccccccccccccccccccc"
};
