/* XPM */
static char *result[] = {
/* columns rows colors chars-per-pixel */
"110 110 34 1 ",
"  c black",
". c #10100E",
"X c #101010",
"o c #1F201C",
"O c #202020",
"+ c #2F2F2B",
"@ c gray19",
"# c #3E3F39",
"$ c gray25",
"% c #4E4F47",
"& c #505050",
"* c #5D5F55",
"= c #606060",
"- c #6D6E63",
"; c gray44",
": c #7C7E72",
"> c #808080",
", c #8C8E80",
"< c gray56",
"1 c #9B9E8E",
"2 c #9F9F9F",
"3 c #ABAD9C",
"4 c #AFAFAF",
"5 c #BABDAA",
"6 c gray75",
"7 c #CACDB8",
"8 c gray81",
"9 c #D9DDC7",
"0 c #DFDFDF",
"q c #E9ECD5",
"w c #EFEFEF",
"e c #F8FCE3",
"r c white",
"t c None",
/* pixels */
"tttttttttttttttttttttttttttttttttttttttttttttttttttttttttttttttttttttttttttttttttttttttttttttttttttttttttttttt",
"tttttttttttttttttttttttttttttttttttttttttttttttttttttttttttttttttttttttttttttttttttttttttttttttttttttttttttttt",
"tttttttttttttttttttttttttttttttttttttttttttttttttttttttttttttttttttttttttttttttttttttttttttttttttttttttttttttt",
"tttttttttttttttttttttttttttttttttttttttttttttttttttttttttttttttttttttttttttttttttttttttttttttttttttttttttttttt",
"tttttttttttttttttttttttttttttttttttttttttttttttttttttttttttttttttttttttttttttttttttttttttttttttttttttttttttttt",
"ttttttttttttttttttttttttttttttttttttttttttttttttttttttt   tttttttttttttttttttttttttttttttttttttttttttttttttttt",
"ttttttttttttttttttttttttttttttttttttttttttttttt                  ttttttttttttttttttttttttttttttttttttttttttttt",
"ttttttttttttttttttttttttttttttttttttttttttt                         tttttttttttttttttttttttttttttttttttttttttt",
"tttttttttttttttttttttttttttttttttttttttt                              tttttttttttttttttttttttttttttttttttttttt",
"ttttttttttttttttttttttttttttttttttttt                  o##              tttttttttttttttttttttttttttttttttttttt",
"ttttttttttttttttttttttttttttttttttt            +%:35qeeeeeee95:%          tttttttttttttttttttttttttttttttttttt",
"tttttttttttttttttttttttttttttttttt         o-3qeeeeeeeeeeeeeeeeee1%        ttttttttttttttttttttttttttttttttttt",
"tttttttttttttttttttttttttttttttt        o:9eeeeeeeeeeeeeeeeeeeeeeee9*       tttttttttttttttttttttttttttttttttt",
"ttttttttttttttttttttttttttttttt       #3eeeeeeeeeeeeeeeeeeeeeeeeeeeee7#      ttttttttttttttttttttttttttttttttt",
"tttttttttttttttttttttttttttttt      +5eeeeeeeeeeeeeeeeeeeeeeeeeeeeeeeee,.      ttttttttttttttttttttttttttttttt",
"ttttttttttttttttttttttttttttt     .,eeeeeeeeeeeeeeeeeeeeeeeeeeeeeeeeeeee7+      tttttttttttttttttttttttttttttt",
"tttttttttttttttttttttttttttt     +7eeeeeeeeeeeeeeeeeeeeeeeeeeeeeeeeeeeeeeq#      ttttttttttttttttttttttttttttt",
"ttttttttttttttttttttttttttt     %qeeeeeeeeeeeeeeeeeeeeeeeeeeeeeeeeeeeeeeeee*     ttttttttttttttttttttttttttttt",
"tttttttttttttttttttttttttt     *eeeeeeeeeeeeeeeeeeeeeeeeeeeeeeeeeeeeeeeeeeee*     tttttttttttttttttttttttttttt",
"ttttttttttttttttttttttttt     #eeeeeeeeeeeeeeeeeeeeeeeeeeeeeeeeeeeeeeeeeeeeee*     ttttttttttttttttttttttttttt",
"ttttttttttttttttttttttttt    oqeeeeeeeeeeeeeeeeeeeeeeeeeeeeeeeeeeeeeeeeeeeeeee%     tttttttttttttttttttttttttt",
"tttttttttttttttttttttttt     7eeeeeeeeeeeeeeeeeeeeeeeeeeeeeeeeeeeeeeeeeeeeeeeeq+     ttttttttttttttttttttttttt",
"tttttttttttttttttttttttt    -eeeeeeeeeeeeeeeeeeeeeeeeeeeeeeeeeeeeeeeeeeeeeeeeee9.    ttttttttttttttttttttttttt",
"ttttttttttttttttttttttt    .qeeeeeeeeeeeeeeeeeeeeeeeeeeeeeeeeeeeeeeeeeeeeeeeeeee5     tttttttttttttttttttttttt",
"ttttttttttttttttttttttt    *eeeeeeeeeeeeeeeeeeeeeeeeeee7+ 3eeeeeeeeeeeeeeeeeeeeee:     ttttttttttttttttttttttt",
"ttttttttttttttttttttttt    -qeeeeeeeeeeeeeeeeeeeeeeeee1.  :eeeeeeeeeeeeeeeeeeeeeeeo    ttttttttttttttttttttttt",
"tttttttttttttttttttttt      .:9eeeeeeeeeeeeeeeeeeeeee1   *qeeeeeeeeeeeeeeeeeeeeeee1    ttttttttttttttttttttttt",
"tttttttttttttttttttttt         #:3qeeeeeeeeeeeeeeeee-   1eeeeeeeeeeeeeeeeeeeeeeeeee.    tttttttttttttttttttttt",
"tttttttttttttttttttttt    5*       .*1qeeeeeeeeeeee1  .7eeeeeeeeeeeeeeeeeeeeeeeeeee*    tttttttttttttttttttttt",
"tttttttttttttttttttttt    +            +:qeeeeeeee5  .7eeeeeeeeeeeeeeeeeeeeeeeeeeee1    tttttttttttttttttttttt",
"ttttttttttttttttttttt                    *eeeeeeeqo  3eeeeeeeeeeeeeeeeeeeeeeeeeeeee7    tttttttttttttttttttttt",
"tttttttttttttttttttt       =6rrrr8<@     1eeeeeee:  :eeeeeeeeeeeeeeeeeeeeeeeeeeeeeee    tttttttttttttttttttttt",
"tttttttttttttttttttt     $8rrrrrrrrr8$  oqeeeeeeq. oeeeeeeeeeeeeeeeeeeeeeeeeeeeeeeee    tttttttttttttttttttttt",
"ttttttttttttttttttt     <rrrrrrrrrrrrr;  :eeeeee1  1eeeeeeeeeeeeeeeeeeeeeeeeeeeeeeee.   tttttttttttttttttttttt",
"ttttttttttttttttttt    =rrrrrrrrrrrrrrrO .eeeeee*  qeeeeeeeeeeeeeeeeeeeeeeeeeeeeeeee+    ttttttttttttttttttttt",
"tttttttttttttttttt    Xwrrrrrrrrrrrrrrr2  3eeeee# #eeeeeeeeeeeeeeeeeeeeeeeeeeeeeeeee    tttttttttttttttttttttt",
"tttttttttttttttttt    ;rrrrrrrrrrrrrrrrw  :eeeee# oqeeeeeeeeeeeeeeeeeeeeeeeeeeeeeeee    tttttttttttttttttttttt",
"tttttttttttttttttt    4w68rrrrrrrrrrrrrrX %eeeee-  o1qeeeeeeeeeeeeeeeeeeeeeeeeeeeeee    tttttttttttttttttttttt",
"tttttttttttttttttt    0X  O8rrrrrrrrrrrr$ #eeeeeq+    %,5eeeeeeeeeeeeeeeeeeeeeeeeee5    tttttttttttttttttttttt",
"tttttttttttttttttt    >    &rrrrrrrrrrrr$ #eeeeeeq:.      +*:57eeeeeeeeeeeeeeeeeeee1    tttttttttttttttttttttt",
"tttttttttttttttttt    >    &rrrrrrrrrrrr$ #eeeeeeeee1*.          ##7eeeeeeeeeeeeeee-    tttttttttttttttttttttt",
"tttttttttttttttttt    4X   6rrrrrrrrrrrr  -eeeeeeeeeeee71-#        *eeeeeeeeeeeeeee+    tttttttttttttttttttttt",
"tttttttttttttttttt    28$&6rrrrrrrrrrrrw  :eeeeeeeeeeeeeeeeeq51:-##7eeeeeeeeeeeeeeq    ttttttttttttttttttttttt",
"tttttttttttttttttt    $rrrrrrrrrrrrrrrr2  3eeeeeeeeeeeeeeeeeeeeeeeeeeeeeeeeeeeeeee1    ttttttttttttttttttttttt",
"ttttttttttttttttttt    6rrrrrrrrrrrrrrrO .eeeeeeeeeeeeeeeeeeeeeeeeeeeeeeeeeeeeeeee%    ttttttttttttttttttttttt",
"ttttttttttttttttttt    Owrrrrrrrrrrrrr>  :eeeeeeeeeeeeeeeeeeeeeeeeeeeeeeeeeeeeeee9     ttttttttttttttttttttttt",
"ttttttttttttttttttt     @8rrrrrrrrrrr2  oqeeeeeeeeeee1%###*:5qeeeeeeeeeeeeeeeeeee:    tttttttttttttttttttttttt",
"ttttttttttttttttttt      X>wrrrrrrrr>   7eeeeeeeeee1%         +-7eeeeeeeeeeeeeeeq.    tttttttttttttttttttttttt",
"ttttttttttttttttttt    +    =28rw6;O   1eeeeeeeee7+   .###       o,qeeeeeeeeeeee:    ttttttttttttttttttttttttt",
"ttttttttttttttttttt    53o           o5eeeeeeeee,     :eeee93-o    .1eeeeeeeeeeq.    ttttttttttttttttttttttttt",
"ttttttttttttttttttt    1ee1%       o:qeee955eeq%      *eeeeeeee7-o   9eeeeeeeee%    tttttttttttttttttttttttttt",
"ttttttttttttttttttt    -eeeee51::3555qee-   o1o       oeeeeeeeeeee,  :eeeeeeee:     tttttttttttttttttttttttttt",
"ttttttttttttttttttt    oee73:5eeq-   .1-               9eeeeeeeeeee  :eeeeeeq:     ttttttttttttttttttttttttttt",
"tttttttttttttttttttt    ,#    .5+        X4=           1eeeeeeeeeee   .#%:-#.     tttttttttttttttttttttttttttt",
"tttttttttttttttttttt              @42    6rr$    tt    *eeeeeeeeeeq               tttttttttttttttttttttttttttt",
"tttttttttttttttttttt      =60<   @wrr>   rrr2    tt    +eeeeeeeeee3              ttttttttttttttttttttttttttttt",
"ttttttttttttttttttttt    XwrrrX  6rrrw   rrr0    ttt    eeeeeeeeee*            ttttttttttttttttttttttttttttttt",
"ttttttttttttttttttttt    $rrrrO  rrrrrO  4rrr           eeeeeeeeeq.          ttttttttttttttttttttttttttttttttt",
"ttttttttttttttttttttt    $rrr8   rrrrrX  X6r8           eeeeeeeee*      tttttttttttttttttttttttttttttttttttttt",
"ttttttttttttttttttttt    Orrr$   4rrr0     @O          oeeeeeeee*       tttttttttttttttttttttttttttttttttttttt",
"tttttttttttttttttttttt    &4$    X4r8@                .3eeeeeee,  .:     ttttttttttttttttttttttttttttttttttttt",
"tttttttttttttttttttttt        +*       #::-######::::19eeeeeee*  .7e:    ttttttttttttttttttttttttttttttttttttt",
"ttttttttttttttttttttttt      *qe:     %qeeeeeeeeeeeeeeeeeeeee*  .7eeq     tttttttttttttttttttttttttttttttttttt",
"ttttttttttttttttttttttt    .qeeee91:,7eeeeeeeeeeeeeeeeeeeeeq%  .7eeee*    tttttttttttttttttttttttttttttttttttt",
"tttttttttttttttttttttttt    eeeeeeeeeeeeeeeeeeeeeeeeeeeeeeq+  .7eeeee3    tttttttttttttttttttttttttttttttttttt",
"tttttttttttttttttttttttt    eeeeeeeeeeeeeeeeeeeeeeeeeeeee7.  oqeeeeee3    tttttttttttttttttttttttttttttttttttt",
"tttttttttttttttttttttttt    qeeeeeeeeeeeeeeeeeeeeeeeeeee,    oeeeeeee:    tttttttttttttttttttttttttttttttttttt",
"tttttttttttttttttttttttt    5eeeeeeeeeeeeeeeeeeeeeeeee7#      eeeeeee#    tttttttttttttttttttttttttttttttttttt",
"tttttttttttttttttttttttt    -eeeeeeeeeeeeeeeeeee75,:#.   .-   7eeeeee.    tttttttttttttttttttttttttttttttttttt",
"tttttttttttttttttttttttt     ###*:::::::*####.          *q5   3eeeee9    ttttttttttttttttttttttttttttttttttttt",
"ttttttttttttttttttttttttt                            +,9ee5   *eeee3o    ttttttttttttttttttttttttttttttttttttt",
"ttttttttttttttttttttttttt                            :eeee5   .qq1o       tttttttttttttttttttttttttttttttttttt",
"tttttttttttttttttttttttttt                           %eeee7          o    tttttttttttttttttttttttttttttttttttt",
"ttttttttttttttttttttttttttttt                        #eeeee       .-9:    tttttttttttttttttttttttttttttttttttt",
"tttttttttttttttttttttttttttttttttttttt                eeeee# +,::3eee3    tttttttttttttttttttttttttttttttttttt",
"tttttttttttttttttttttttttttttttttttttt                qeeee# #eeeeeee9    tttttttttttttttttttttttttttttttttttt",
"ttttttttttttttttttttttttttttttttttttt      o#:,55qe3  5eeee# #eeeeeeee.   tttttttttttttttttttttttttttttttttttt",
"ttttttttttttttttttttttttttttttttttttt    *qeeeeeeee7  ,eeee# #eeeeeeee#    ttttttttttttttttttttttttttttttttttt",
"ttttttttttttttttttttttttttttttttttttt    3eeeeeeeeee  *eeee# #eeeeeeee-    ttttttttttttttttttttttttttttttttttt",
"ttttttttttttttttttttttttttttttttttttt    qeeeeeeeeee% .7eee  #1:1eeeee:    ttttttttttttttttttttttttttttttttttt",
"tttttttttttttttttttttttttttttttttttt    +eeeeeeee955*  .:93      %eeee*    ttttttttttttttttttttttttttttttttttt",
"ttttttttttttttttttttttttttttttttttttt    +###.                    1ee5     ttttttttttttttttttttttttttttttttttt",
"ttttttttttttttttttttttttttttttttttttt                 oo    -55%  oeqo    tttttttttttttttttttttttttttttttttttt",
"ttttttttttttttttttttttttttttttttttttt                 #e7%  eeeo   1#     tttttttttttttttttttttttttttttttttttt",
"tttttttttttttttttttttttttttttttttttttt                #ee:  7e9          ttttttttttttttttttttttttttttttttttttt",
"ttttttttttttttttttttttttttttttttttttttttt    ttttt    #ee%  qe*         tttttttttttttttttttttttttttttttttttttt",
"tttttttttttttttttttttttttttttttttttttttttttttttttt    :ee# #e9         ttttttttttttttttttttttttttttttttttttttt",
"ttttttttttttttttttttttttttttttttttttttttttttttttt     3eeo #e-        tttttttttttttttttttttttttttttttttttttttt",
"tttttttttttttttttttttttttttttttttttttttttttttttt      qee  -eo       ttttttttttttttttttttttttttttttttttttttttt",
"ttttttttttttttttttttttttttttttttttttttttttttttt      -eee  %:    ttttttttttttttttttttttttttttttttttttttttttttt",
"ttttttttttttttttttttttttttttttttttttttttttttttt      5eee+       ttttttttttttttttttttttttttttttttttttttttttttt",
"ttttttttttttttttttttttttttttttttttttttttttttttt      +eee3       ttttttttttttttttttttttttttttttttttttttttttttt",
"ttttttttttttttttttttttttttttttttttttttttttttttt       9eeeo      ttttttttttttttttttttttttttttttttttttttttttttt",
"tttttttttttttttttttttttttttttttttttttttttttttttt      +-         ttttttttttttttttttttttttttttttttttttttttttttt",
"ttttttttttttttttttttttttttttttttttttttttttttttttt           -    ttttttttttttttttttttttttttttttttttttttttttttt",
"ttttttttttttttttttttttttttttttttttttttttttttttttttt      #%::    ttttttttttttttttttttttttttttttttttttttttttttt",
"tttttttttttttttttttttttttttttttttttttttttttttttttttt    :eee:    ttttttttttttttttttttttttttttttttttttttttttttt",
"tttttttttttttttttttttttttttttttttttttttttttttttttttt    1eee:     tttttttttttttttttttttttttttttttttttttttttttt",
"tttttttttttttttttttttttttttttttttttttttttttttttttt      5eee*     tttttttttttttttttttttttttttttttttttttttttttt",
"tttttttttttttttttttttttttttttttttttttttttttttttt        5eee#     tttttttttttttttttttttttttttttttttttttttttttt",
"ttttttttttttttttttttttttttttttttttttttttttttttt         .%,5.     tttttttttttttttttttttttttttttttttttttttttttt",
"tttttttttttttttttttttttttttttttttttttttttttttt      .:o            ttttttttttttttttttttttttttttttttttttttttttt",
"tttttttttttttttttttttttttttttttttttttttttttttt     +7e9,%    o*    ttttttttttttttttttttttttttttttttttttttttttt",
"ttttttttttttttttttttttttttttttttttttttttttttt     +7e9551,,::5:    ttttttttttttttttttttttttttttttttttttttttttt",
"ttttttttttttttttttttttttttttttttttttttttttttt                      ttttttttttttttttttttttttttttttttttttttttttt",
"ttttttttttttttttttttttttttttttttttttttttttttt                      ttttttttttttttttttttttttttttttttttttttttttt",
"tttttttttttttttttttttttttttttttttttttttttttttt                     ttttttttttttttttttttttttttttttttttttttttttt",
"ttttttttttttttttttttttttttttttttttttttttttttttt                   tttttttttttttttttttttttttttttttttttttttttttt",
"tttttttttttttttttttttttttttttttttttttttttttttttttttttttttttttttttttttttttttttttttttttttttttttttttttttttttttttt",
"tttttttttttttttttttttttttttttttttttttttttttttttttttttttttttttttttttttttttttttttttttttttttttttttttttttttttttttt"
};
